<svg xmlns="http://www.w3.org/2000/svg" xmlns:xlink="http://www.w3.org/1999/xlink" width="348.315" height="285.125" viewBox="0 0 348.315 285.125">
  <defs>
    <clipPath id="clip-path">
      <path id="Trazado_160" data-name="Trazado 160" d="M-5630,2751.421h-16.751c.34-3.956.55-7.95.55-11.995a137.713,137.713,0,0,0-27.671-82.966h-15.64a6.864,6.864,0,0,1-6.843-6.843,6.864,6.864,0,0,1,6.843-6.845h3.951l-.021-.021h11.68a6.862,6.862,0,0,0,6.843-6.842,6.862,6.862,0,0,0-6.843-6.843h-27.164a137.955,137.955,0,0,0-52.573-24.6c-9.972-2.285-20.56-34.685-31.225-34.685-11.537,0-22.535,32.605-33.249,35.263a138.635,138.635,0,0,0-102.345,107.387H-5937.9a6.105,6.105,0,0,0-6.086,6.085,6.1,6.1,0,0,0,6.086,6.086h26.1a6.1,6.1,0,0,1,6.083,6.086,6.1,6.1,0,0,1-6.083,6.083h-34.687a6.1,6.1,0,0,0-6.086,6.086,6.1,6.1,0,0,0,6.086,6.086h23.745a137.706,137.706,0,0,0,9.605,41.973,17.651,17.651,0,0,1,4.14-.509,17.688,17.688,0,0,1,17.687,17.686,17.805,17.805,0,0,1-.169,2.32,22.543,22.543,0,0,1,4.133-.4,22.359,22.359,0,0,1,22.357,22.359,22.235,22.235,0,0,1-1.45,7.858,17.311,17.311,0,0,1,3.147-.3,17.18,17.18,0,0,1,15.6,9.991,25.639,25.639,0,0,1,22.537-13.4,25.636,25.636,0,0,1,24.581,18.38,22.064,22.064,0,0,1,17.85-9.1,22.03,22.03,0,0,1,16.309,7.216,25.639,25.639,0,0,1,23.678-15.806,25.616,25.616,0,0,1,22.908,14.169,16.027,16.027,0,0,1,14.682-9.606,15.983,15.983,0,0,1,4.469.644,20.517,20.517,0,0,1-2.258-9.351,20.64,20.64,0,0,1,20.639-20.639,20.545,20.545,0,0,1,6.913,1.212,16.545,16.545,0,0,1-.415-3.628,16.467,16.467,0,0,1,16.468-16.466,16.332,16.332,0,0,1,2.085.147c.021-.05.043-.1.064-.147h18.642a7.036,7.036,0,0,0,7.015-7.015,7.036,7.036,0,0,0-7.015-7.016h-13.572l0-.019h-22.607a7.037,7.037,0,0,1-7.018-7.016,7.037,7.037,0,0,1,7.018-7.015h26.038l0-.019H-5630a7.036,7.036,0,0,0,7.018-7.016A7.036,7.036,0,0,0-5630,2751.421Z" transform="translate(5952.574 -2569.778)" fill="none"/>
    </clipPath>
  </defs>
  <g id="Grupo_694" data-name="Grupo 694" transform="translate(-13.685 -51.04)">
    <g id="Grupo_570" data-name="Grupo 570">
      <g id="Grupo_529" data-name="Grupo 529">
        <g id="Grupo_458" data-name="Grupo 458">
          <path id="Trazado_11" data-name="Trazado 11" d="M659.27,475.517l16.185-12.134,24.225,36.333H602.64l24.248-64.663Z" transform="translate(-463.64 -268.344)" fill="#fff8f8"/>
          <path id="Trazado_12" data-name="Trazado 12" d="M818.551,423.25a12.136,12.136,0,1,1,12.181,12.123A12.236,12.236,0,0,1,818.551,423.25Z" transform="translate(-606.728 -252.471)" fill="#fff8f8"/>
          <path id="Trazado_112" data-name="Trazado 112" d="M-5952.378,2663.511h-3.238a6.1,6.1,0,0,1-6.085-6.083h0a6.1,6.1,0,0,1,6.085-6.086h3.238a6.1,6.1,0,0,1,6.083,6.086h0A6.1,6.1,0,0,1-5952.378,2663.511Z" transform="translate(5975.386 -2433.001)" fill="#333335"/>
          <ellipse id="Elipse_35" data-name="Elipse 35" cx="6.154" cy="6.154" rx="6.154" ry="6.154" transform="translate(340.901 185.305)" fill="#333335"/>
          <g id="Grupo_157" data-name="Grupo 157" transform="translate(32.406 51.04)" clip-path="url(#clip-path)">
            <g id="Grupo_156" data-name="Grupo 156" transform="translate(0 11.562)">
              <path id="Trazado_113" data-name="Trazado 113" d="M-5630,2735.435h-16.751c.34-3.957.55-7.95.55-12a137.713,137.713,0,0,0-27.671-82.966h-15.64a6.864,6.864,0,0,1-6.843-6.843,6.864,6.864,0,0,1,6.843-6.845h3.951l-.021-.021h11.68a6.862,6.862,0,0,0,6.843-6.843,6.862,6.862,0,0,0-6.843-6.843h-27.164a137.808,137.808,0,0,0-83.589-28.095,138.483,138.483,0,0,0-135.8,111.457H-5937.9a6.1,6.1,0,0,0-6.086,6.086,6.1,6.1,0,0,0,6.086,6.086h26.1a6.1,6.1,0,0,1,6.083,6.086,6.1,6.1,0,0,1-6.083,6.083h-34.687a6.1,6.1,0,0,0-6.086,6.086,6.1,6.1,0,0,0,6.086,6.086h23.745a137.7,137.7,0,0,0,9.605,41.973,17.638,17.638,0,0,1,4.14-.509,17.688,17.688,0,0,1,17.687,17.687,17.815,17.815,0,0,1-.169,2.32,22.458,22.458,0,0,1,4.133-.4,22.359,22.359,0,0,1,22.357,22.358,22.232,22.232,0,0,1-1.45,7.858,17.333,17.333,0,0,1,3.147-.3,17.18,17.18,0,0,1,15.6,9.991,25.638,25.638,0,0,1,22.537-13.4,25.636,25.636,0,0,1,24.581,18.38,22.064,22.064,0,0,1,17.85-9.1,22.031,22.031,0,0,1,16.309,7.215,25.64,25.64,0,0,1,23.678-15.806,25.616,25.616,0,0,1,22.908,14.17,16.026,16.026,0,0,1,14.682-9.606,15.982,15.982,0,0,1,4.469.644,20.518,20.518,0,0,1-2.258-9.351,20.64,20.64,0,0,1,20.639-20.639,20.539,20.539,0,0,1,6.913,1.211,16.543,16.543,0,0,1-.415-3.628,16.467,16.467,0,0,1,16.468-16.466,16.287,16.287,0,0,1,2.085.148c.021-.05.043-.1.064-.148h18.642a7.036,7.036,0,0,0,7.015-7.016,7.036,7.036,0,0,0-7.015-7.015h-13.572l0-.019h-22.607a7.037,7.037,0,0,1-7.018-7.017,7.038,7.038,0,0,1,7.018-7.015h26.038l0-.018H-5630a7.036,7.036,0,0,0,7.018-7.015A7.036,7.036,0,0,0-5630,2735.435Z" transform="translate(5952.574 -2565.354)" fill="#333335"/>
              <g id="Grupo_155" data-name="Grupo 155" transform="translate(68.516)">
                <path id="Trazado_114" data-name="Trazado 114" d="M-5899.687,2669.608l-9.16,11.411s1.81,7.893,2.838,9.224,7.409,4.991,8.3,5.571,2.41.712,2.615.215-2.711-3.382-1.077-7.957,3.472-8.123,3.625-11.093C-5892.207,2670.394-5899.687,2669.608-5899.687,2669.608Z" transform="translate(5930.025 -2476.4)" fill="#ffbd95"/>
                <path id="Trazado_115" data-name="Trazado 115" d="M-5818.865,2664.291c5.317-16.268,19.069-44.151,11.051-49.019-10.453-6.344-40.544-10.272-40.544-10.272v.517s-30.359,2.5-40.83,8.81c-8.034,4.842,5.891,34.109,11.163,50.393,1.264,3.906,1.1,21.416.59,36.944-.126,3.829-3.26,21.437-2.741,28.719.152,2.172,24.72,15.663,31.607,16.018v-.517c6.891-.335,31.5-13.751,31.659-15.924.54-7.28-2.544-24.9-2.657-28.727C-5820.032,2685.7-5820.144,2668.195-5818.865,2664.291Z" transform="translate(5948.122 -2544.315)" fill="#ffbd95"/>
                <path id="Trazado_116" data-name="Trazado 116" d="M-5852.086,2609.751c-5.539,2.691-6.374,12.73-.931,22.821s10.262,16.377,11.742,18.963c1.531,2.671,9.235,18.8,11.981,22.775s8.742,7.5,13.046,5.176c3.6-1.941,7.6-3.6,5.128-11.549S-5834.591,2601.249-5852.086,2609.751Z" transform="translate(5984.841 -2540.203)" fill="#ffbd95"/>
                <path id="Trazado_117" data-name="Trazado 117" d="M-5846.868,2612.111c-.686-3.1-2.384-18.431-2.384-18.431l-10.161-.015v.517l-10.163-.017s-1.744,15.327-2.437,18.427-9.065,7.765-9.065,7.765l21.624.031,0-.518,21.625.033S-5846.184,2615.213-5846.868,2612.111Z" transform="translate(5959.213 -2556.231)" fill="#ffbd95"/>
                <path id="Trazado_118" data-name="Trazado 118" d="M-5847.55,2607.785c-.635-4.7-1.4-11.38-1.628-13.46l-.657-.646-9.578-.015v.517l-10.163-.017s-1.744,15.327-2.437,18.427-9.065,7.765-9.065,7.765h1.022c9.654-2.558,19.254-5.107,20.547-5.477,2.7-.771,11.959-7.095,11.959-7.095Z" transform="translate(5959.213 -2556.231)" fill="#ffa47c"/>
                <path id="Trazado_119" data-name="Trazado 119" d="M-5869.821,2657.8c-12.4-.057-17.235,8.584-16.931,35.108s4.216,55.291,5.933,59.427,19.288,4.249,21.015,1.841,6.112-57.428,6.127-66.042S-5856.315,2657.865-5869.821,2657.8Z" transform="translate(5953.235 -2488.811)" fill="#ffbd95"/>
                <rect id="Rectángulo_155" data-name="Rectángulo 155" width="21.184" height="28.934" rx="1.909" transform="matrix(1, 0.026, -0.026, 1, 72.689, 255.527)" fill="#ffbd95"/>
                <path id="Trazado_120" data-name="Trazado 120" d="M-5872.524,2706.329c-3.79-.006-13.091,1.234-12.611,25.962s10.935,58.608,10.935,58.608l8.954.014s4.439-45.771,4.474-54.552C-5860.694,2716.382-5860.557,2706.347-5872.524,2706.329Z" transform="translate(5954.929 -2437.801)" fill="#ffbd95"/>
                <path id="Trazado_121" data-name="Trazado 121" d="M-5855.778,2657.981c12.328-1.332,18.024,6.767,20.454,33.18s3.568,55.431,2.287,59.722-18.748,6.213-20.713,3.994-14.064-56.494-14.962-65.058S-5869.208,2659.433-5855.778,2657.981Z" transform="translate(5971.906 -2488.769)" fill="#ffbd95"/>
                <path id="Rectángulo_156" data-name="Rectángulo 156" d="M1.907,0H19.273a1.911,1.911,0,0,1,1.911,1.911V27.027a1.907,1.907,0,0,1-1.907,1.907H1.9a1.9,1.9,0,0,1-1.9-1.9V1.907A1.907,1.907,0,0,1,1.907,0Z" transform="matrix(-0.992, 0.128, -0.128, -0.992, 141.485, 282.88)" fill="#ffbd95"/>
                <path id="Trazado_122" data-name="Trazado 122" d="M-5850.953,2706.167c3.768-.4,13.149-.119,15.216,24.526s-1.988,59.424-1.988,59.424l-8.906.936s-11.982-45.073-12.919-53.8C-5861.686,2717.382-5862.857,2707.418-5850.953,2706.167Z" transform="translate(5980.401 -2438.052)" fill="#ffbd95"/>
                <path id="Trazado_123" data-name="Trazado 123" d="M-5872.781,2609.52c5.938,1.622,8.612,11.335,5.125,22.258s-7.064,17.988-8.042,20.8c-1.011,2.906-5.606,20.184-7.574,24.594s-7.206,8.982-11.863,7.495c-3.9-1.245-8.134-2.133-7.173-10.406S-5891.545,2604.392-5872.781,2609.52Z" transform="translate(5936.75 -2539.883)" fill="#ffbd95"/>
                <path id="Trazado_124" data-name="Trazado 124" d="M-5882.365,2655.2s-4.49,21.841-5.2,33.724,5.031,63.834,5.044,69.553-.4,23.285-.063,40.509,4.735,51.131,4.735,51.131l22.047-.515s.141-72.813.157-84.256,2.863-71.719,2.863-71.719l.056-37.461Z" transform="translate(5952.332 -2491.544)" fill="#9b0000"/>
                <path id="Trazado_125" data-name="Trazado 125" d="M-5805.15,2615.594c-1.364-2.268-8.683-4.145-15.427-6.245a72.5,72.5,0,0,1-10.729-4.349l-3.748,1.987a26.76,26.76,0,0,1-26.6-.041l-3.208-1.842s-5.327,2.326-11.278,4.16c-6.75,2.08-14.286,3.819-15.446,6.2-1.175,2.414,10.855,48.785,12.208,52.729s-2.167,31.526,1.26,39.78l29.579.964v0l.058,0h.005l29.581-.876c2.716-9.456-.018-36.355,1.345-40.3S-5802.874,2619.381-5805.15,2615.594Z" transform="translate(5948.084 -2544.315)" fill="#efefef"/>
                <path id="Trazado_126" data-name="Trazado 126" d="M-5841.2,2654.9s6.715,21.264,8.642,33.009,3.64,64.014,4.215,69.7,2.8,23.121,4.232,40.287,3.344,51.356,3.344,51.356l-21.98,1.758s-10.428-72.419-11.623-83.8-16.306-71.391-16.306-71.391l.145-39.342Z" transform="translate(5970.144 -2491.86)" fill="#9b0000"/>
                <path id="Trazado_127" data-name="Trazado 127" d="M-5878.063,2750.41s-7.536,8.8-7.138,11.125c.225,1.322,3.4,6.117,9.172,6.474,4.39.269,11.55-3.733,12.663-3.846,2.585-.264,2.577-14.157,2.577-14.157Z" transform="translate(5954.861 -2391.891)" fill="#191919"/>
                <path id="Trazado_128" data-name="Trazado 128" d="M-5839.023,2749.785s8.4,7.977,8.248,10.332c-.088,1.338-2.752,6.435-8.458,7.382-4.338.72-11.873-2.524-12.993-2.524-2.6,0-4.021-13.814-4.021-13.814Z" transform="translate(5985.315 -2392.122)" fill="#191919"/>
                <path id="Trazado_129" data-name="Trazado 129" d="M-5849.934,2699.438c1.242,7.784,4.72,60.1,4.929,63.071.208,2.9,10.506,83.6,10.851,87.327l7.234-.578s-1.911-34.189-3.345-51.356-3.652-34.6-4.232-40.287-2.29-57.956-4.214-69.7-8.64-33.009-8.64-33.009l-17.477,1.228S-5851.174,2691.652-5849.934,2699.438Z" transform="translate(5976.294 -2491.86)" fill="#ad0b0b"/>
                <path id="Trazado_130" data-name="Trazado 130" d="M-5863.921,2669.061a8.438,8.438,0,0,0-15.737,3.479c-.732,8.486-.914,14.359-.175,18.27,1.867,9.837,4.537,57.925,4.179,59.184s-.109,89.572-.109,89.572l.391.234,11.879-.276s.14-72.813.157-84.257,2.862-71.719,2.862-71.719l.005-3.274.23-4.722Z" transform="translate(5960.027 -2481.465)" fill="#ad0b0b"/>
                <path id="Trazado_131" data-name="Trazado 131" d="M-5833.729,2637.649c4.952-.741,9.42,1.247,12.22,14.991s5.159,46.443,5.159,46.443l-8.009,1.2s-11.921-25.956-13.774-33.35S-5846.688,2639.586-5833.729,2637.649Z" transform="translate(6000.799 -2510.137)" fill="#ffbd95"/>
                <path id="Trazado_132" data-name="Trazado 132" d="M-5830.36,2664.464s-3.037,7.367-3.314,9.7,1.045,10.764,1.052,12.645c.011,3.13-6.032,10.188-3.944,10.469s10.469-6.255,10.469-6.255,6.534-9.011,6.283-12.718-1.5-10.526-1.5-10.526Z" transform="translate(6005.54 -2481.811)" fill="#ffbd95"/>
                <path id="Trazado_133" data-name="Trazado 133" d="M-5843.586,2599.228c-.02,12.814-9.719,25.563-17.941,25.552-7.856-.012-17.886-12.791-17.865-25.6s8.048-23.191,17.937-23.176S-5843.566,2586.414-5843.586,2599.228Z" transform="translate(5960.984 -2574.802)" fill="#ffbd95"/>
                <path id="Trazado_134" data-name="Trazado 134" d="M-5877.88,2602.358c-.792-1.4-3.458-7.329-2.872-10s3.732-8.479,4.782-10.221,10.353-6.377,11.747-6.492a36.342,36.342,0,0,1,8.021.013c2.9.47,8.016,2.453,9.175,4.78s4.037,5,4.977,6.864,2.557,6.63,2.324,7.327-1.521,6.506-1.637,6.97a11.352,11.352,0,0,1-.956,1.786s-4.812-12.245-4.926-13.408-24.522-1.546-26.034-.736S-5877.88,2602.358-5877.88,2602.358Z" transform="translate(5959.468 -2575.415)" fill="#683a03"/>
                <g id="Grupo_149" data-name="Grupo 149" transform="translate(62.305 183.446)">
                  <path id="Trazado_135" data-name="Trazado 135" d="M-5862.5,2701.5h-23.894l-.665-1.139-1.741-.775,2.354-34.162,22.141-.54Z" transform="translate(5888.795 -2664.814)" fill="#d13b3b"/>
                  <path id="Trazado_136" data-name="Trazado 136" d="M-5864.9,2699.622H-5888.8l1.288-34.771h22.606Z" transform="translate(5888.795 -2664.85)" fill="#ad0b0b"/>
                  <path id="Trazado_137" data-name="Trazado 137" d="M-5887.282,2701.5l-.665-1.139h22.957l-.2-35.476,1.8,36.615Z" transform="translate(5889.688 -2664.814)" fill="#bf2121"/>
                </g>
                <g id="Grupo_150" data-name="Grupo 150" transform="translate(114.23 181.358)">
                  <path id="Trazado_138" data-name="Trazado 138" d="M-5861.71,2702.415l23.781-2.327.551-1.2,1.655-.942-5.67-33.769-22.087,1.619Z" transform="translate(5863.48 -2663.468)" fill="#d13b3b"/>
                  <path id="Trazado_139" data-name="Trazado 139" d="M-5859.8,2700.641l23.781-2.328-4.668-34.481-22.5,2.2Z" transform="translate(5863.782 -2663.832)" fill="#ad0b0b"/>
                  <path id="Trazado_140" data-name="Trazado 140" d="M-5837.929,2699.258l.551-1.2-22.847,2.236-3.256-35.327,1.771,36.616Z" transform="translate(5863.48 -2662.637)" fill="#bf2121"/>
                </g>
                <path id="Trazado_141" data-name="Trazado 141" d="M-5891.583,2640.808c-4.986-.443-9.327,1.81-11.3,15.7s-2.375,46.666-2.375,46.666l8.067.718s10.351-26.623,11.755-34.115S-5878.531,2641.969-5891.583,2640.808Z" transform="translate(5933.795 -2506.729)" fill="#ffbd95"/>
                <path id="Trazado_142" data-name="Trazado 142" d="M-5855.419,2692.33l29.441-.959-.718-6.311-5.23-64.266h-46.96l-5.455,64.266-.719,6.311,29.443.959v.007l.1,0,.1,0Z" transform="translate(5955.028 -2527.714)" fill="#ad0b0b"/>
                <path id="Trazado_143" data-name="Trazado 143" d="M-5870.473,2620.794s4.342,50.554,9.632,60.173,34.659,8.033,34.659,8.033l.272,3.34s-14.37,3.417-27.835,3.417-31.378-3.417-31.378-3.417l6.3-71.545Z" transform="translate(5954.961 -2527.714)" fill="#9b0000"/>
                <path id="Trazado_144" data-name="Trazado 144" d="M-5856.151,2640.448l4.435-32.205-6.687-2.638-5.011,34.843,3.205,5.379Z" transform="translate(5977.779 -2543.68)" fill="#bf2121"/>
                <path id="Trazado_145" data-name="Trazado 145" d="M-5878.99,2640.448l-4.436-32.205,6.687-2.638,5.014,34.843-3.208,5.379Z" transform="translate(5956.744 -2543.68)" fill="#bf2121"/>
                <path id="Trazado_146" data-name="Trazado 146" d="M-5885.295,2659.559l-.122-5.586a224.638,224.638,0,0,0,30.389,2.521,218.12,218.12,0,0,0,30.117-2.521l.331,5.586s-18.772,3.366-30.608,3.366S-5885.295,2659.559-5885.295,2659.559Z" transform="translate(5954.653 -2492.837)" fill="#bf2121"/>
                <path id="Trazado_147" data-name="Trazado 147" d="M-5876.964,2623.207a1.805,1.805,0,0,1-1.805,1.805,1.8,1.8,0,0,1-1.8-1.805,1.8,1.8,0,0,1,1.8-1.8A1.8,1.8,0,0,1-5876.964,2623.207Z" transform="translate(5959.741 -2527.073)" fill="#a5a2a2"/>
                <path id="Trazado_148" data-name="Trazado 148" d="M-5858.715,2623.207a1.8,1.8,0,0,1-1.8,1.805,1.806,1.806,0,0,1-1.807-1.805,1.8,1.8,0,0,1,1.807-1.8A1.8,1.8,0,0,1-5858.715,2623.207Z" transform="translate(5978.927 -2527.073)" fill="#a5a2a2"/>
                <path id="Trazado_149" data-name="Trazado 149" d="M-5878.569,2609.36s-7.63,2.217-13.563,16.327-10.313,42.9-10.313,42.9,4.169,3.253,11.939,5.178,11.041,1.146,11.041,1.146l8.495-29.822S-5869.012,2609.868-5878.569,2609.36Z" transform="translate(5936.751 -2539.732)" fill="#efefef"/>
                <path id="Trazado_150" data-name="Trazado 150" d="M-5849.468,2608.739s7.882,1.011,15.925,14.034,19.258,40.406,19.258,40.406-3.564,3.852-10.943,6.951-10.935,3.021-10.935,3.021l-15.292-27.941S-5858.832,2610.716-5849.468,2608.739Z" transform="translate(5987.449 -2540.385)" fill="#efefef"/>
                <g id="Grupo_151" data-name="Grupo 151" transform="translate(27.566 204.787)">
                  <path id="Trazado_151" data-name="Trazado 151" d="M-5902.942,2676.191a34.7,34.7,0,0,0,1.671,5.442,23.925,23.925,0,0,0,2.611,3,4.32,4.32,0,0,1,1.044,2.99c-.586.86-2.007-.184-2.659-.908a25.566,25.566,0,0,1-2.873-3.551c-.683-1.2-2.5-4.049-2.582-5.077S-5902.942,2676.191-5902.942,2676.191Z" transform="translate(5905.731 -2674.269)" fill="#ffa47c"/>
                  <path id="Trazado_152" data-name="Trazado 152" d="M-5903.672,2675.571a32.46,32.46,0,0,0,2.963,4.391c.813.708,1.55.591,2.815.993,1.051.334,2.361,1.157,2.456,2.129s-1.574.632-2.471.491a9.044,9.044,0,0,1-4.059-1.741c-.931-.88-3.318-2.929-3.671-3.823S-5903.672,2675.571-5903.672,2675.571Z" transform="translate(5905.794 -2674.921)" fill="#ffa47c"/>
                  <path id="Trazado_153" data-name="Trazado 153" d="M-5904.021,2675.254a27.138,27.138,0,0,0,3.1,3.2c.782.462,1.374.254,2.485.394.927.117,2.131.6,2.353,1.4s-1.216.763-1.984.781a7.575,7.575,0,0,1-3.627-.826c-.9-.591-3.183-1.929-3.605-2.617S-5904.021,2675.254-5904.021,2675.254Z" transform="translate(5906.116 -2675.254)" fill="#ffa47c"/>
                </g>
                <g id="Grupo_152" data-name="Grupo 152" transform="translate(0 175.234)">
                  <rect id="Rectángulo_157" data-name="Rectángulo 157" width="64.638" height="3.404" transform="translate(12.158 60.407) rotate(-55.997)" fill="#7f7f7f"/>
                  <rect id="Rectángulo_158" data-name="Rectángulo 158" width="57.458" height="3.404" transform="matrix(0.799, 0.601, -0.601, 0.799, 8.841, 14.002)" fill="#7f7f7f"/>
                  <path id="Trazado_154" data-name="Trazado 154" d="M-5913.28,2674.662l-5.891-4.834,4.119-5.017,5.891,4.834a3.247,3.247,0,0,1,.45,4.568h0A3.246,3.246,0,0,1-5913.28,2674.662Z" transform="translate(5919.17 -2656.679)" fill="#7f7f7f"/>
                  <path id="Trazado_155" data-name="Trazado 155" d="M-5889.458,2684.123l5.89,4.835-4.119,5.019-5.891-4.834a3.247,3.247,0,0,1-.451-4.568h0A3.249,3.249,0,0,1-5889.458,2684.123Z" transform="translate(5944.828 -2637.152)" fill="#7f7f7f"/>
                  <path id="Trazado_156" data-name="Trazado 156" d="M-5906.354,2694.442l-4.052,6.455-5.5-3.45,4.053-6.455a3.243,3.243,0,0,1,4.474-1.023h0A3.244,3.244,0,0,1-5906.354,2694.442Z" transform="translate(5922.606 -2630.757)" fill="#7f7f7f"/>
                  <path id="Trazado_157" data-name="Trazado 157" d="M-5896.038,2667.287l4.076-6.441,5.485,3.471-4.074,6.44a3.243,3.243,0,0,1-4.478,1.007h0A3.244,3.244,0,0,1-5896.038,2667.287Z" transform="translate(5942.961 -2660.846)" fill="#7f7f7f"/>
                </g>
                <path id="Trazado_158" data-name="Trazado 158" d="M-5904.47,2675.96s-1.979,6.968-.981,7.823,5.712,6.642,6.225,7.308,1.2,1.565,1.659-1.234-1.969-5.261-1.474-6.108,4.043-3.508,4.377-7.2a5.741,5.741,0,0,0-2.957-5.922C-5898.666,2670.105-5904.983,2673.113-5904.47,2675.96Z" transform="translate(5933.298 -2475.389)" fill="#ffbd95"/>
                <g id="Grupo_154" data-name="Grupo 154" transform="translate(131.596 167.299)">
                  <g id="Grupo_153" data-name="Grupo 153" transform="translate(0 0)">
                    <rect id="Rectángulo_159" data-name="Rectángulo 159" width="38.236" height="117.859" rx="18" transform="matrix(0.992, -0.122, 0.122, 0.992, 0, 4.677)" fill="#191919"/>
                    <rect id="Rectángulo_160" data-name="Rectángulo 160" width="2.741" height="117.859" transform="translate(17.608 2.507) rotate(-7.031)" fill="#333335"/>
                    <rect id="Rectángulo_161" data-name="Rectángulo 161" width="1.16" height="117.859" transform="translate(25.401 1.546) rotate(-7.038)" fill="#333335"/>
                    <rect id="Rectángulo_162" data-name="Rectángulo 162" width="1.16" height="117.859" transform="translate(29.821 1.002) rotate(-7.048)" fill="#333335"/>
                    <rect id="Rectángulo_163" data-name="Rectángulo 163" width="1.16" height="117.859" transform="matrix(0.993, -0.122, 0.122, 0.993, 7.168, 3.793)" fill="#333335"/>
                    <rect id="Rectángulo_164" data-name="Rectángulo 164" width="1.16" height="117.859" transform="translate(11.579 3.25) rotate(-7.038)" fill="#333335"/>
                  </g>
                  <path id="Trazado_159" data-name="Trazado 159" d="M-5831.513,2657.473a10.153,10.153,0,0,1,.291,1.34l12.135,98.455c.626,5.092-2.6,9.72-7.179,10.284l-21.31,2.628a7.95,7.95,0,0,1-.824.008c1.146,4.377,5.01,7.406,9.17,6.894l21.31-2.626c4.576-.564,7.8-5.191,7.177-10.284l-12.133-98.455C-5823.467,2660.934-5827.264,2657.423-5831.513,2657.473Z" transform="translate(5862.965 -2652.457)" fill="#191919"/>
                </g>
              </g>
            </g>
          </g>
        </g>
        <g id="Grupo_505" data-name="Grupo 505" transform="translate(4 4)">
          <path id="Unión_1" data-name="Unión 1" d="M2.714,6.214V5.72L1.28,4.286H.786a.786.786,0,1,1,0-1.571h.435L2.714,1.221V.786a.786.786,0,1,1,1.571,0v.441L5.773,2.714h.441a.786.786,0,1,1,0,1.571h-.5L4.286,5.715v.5a.786.786,0,1,1-1.571,0Z" transform="translate(316 106)" fill="#333335"/>
          <path id="Unión_4" data-name="Unión 4" d="M2.714,6.214V5.72L1.28,4.286H.786a.786.786,0,1,1,0-1.571h.435L2.714,1.221V.786a.786.786,0,1,1,1.571,0v.441L5.773,2.714h.441a.786.786,0,1,1,0,1.571h-.5L4.286,5.715v.5a.786.786,0,1,1-1.571,0Z" transform="translate(217 56)" fill="#333335"/>
          <path id="Unión_2" data-name="Unión 2" d="M2.714,6.214V5.72L1.28,4.286H.786a.786.786,0,1,1,0-1.571h.435L2.714,1.221V.786a.786.786,0,1,1,1.571,0v.441L5.773,2.714h.441a.786.786,0,1,1,0,1.571h-.5L4.286,5.715v.5a.786.786,0,1,1-1.571,0Z" transform="translate(52 175)" fill="#333335"/>
          <path id="Unión_3" data-name="Unión 3" d="M2.714,6.214V5.72L1.28,4.286H.786a.786.786,0,1,1,0-1.571h.435L2.714,1.221V.786a.786.786,0,1,1,1.571,0v.441L5.773,2.714h.441a.786.786,0,1,1,0,1.571h-.5L4.286,5.715v.5a.786.786,0,1,1-1.571,0Z" transform="translate(85 110)" fill="#333335"/>
          <rect id="Rectángulo_275" data-name="Rectángulo 275" width="2" height="2" rx="1" transform="translate(323 113)" fill="#333335"/>
          <rect id="Rectángulo_277" data-name="Rectángulo 277" width="2" height="2" rx="1" transform="translate(225 63)" fill="#333335"/>
          <rect id="Rectángulo_276" data-name="Rectángulo 276" width="2" height="2" rx="1" transform="translate(83 106)" fill="#333335"/>
        </g>
      </g>
    </g>
  </g>
</svg>
