<svg xmlns="http://www.w3.org/2000/svg" xmlns:xlink="http://www.w3.org/1999/xlink" width="355.422" height="302.995" viewBox="0 0 355.422 302.995">
  <defs>
    <clipPath id="clip-path">
      <path id="Trazado_111" data-name="Trazado 111" d="M-6110.274,2805.04a19.943,19.943,0,0,1,19.944,19.942,19.828,19.828,0,0,1-2.773,10.106,9.781,9.781,0,0,1,1.761-.178,9.7,9.7,0,0,1,9.612,8.545,20.272,20.272,0,0,1,13.487-5.132,20.364,20.364,0,0,1,17.949,10.738,22.046,22.046,0,0,1,15.624-6.465,22.1,22.1,0,0,1,20.622,14.179c.183-.006.359-.01.522-.01a12.885,12.885,0,0,1,5.332.993,18.278,18.278,0,0,1,5.114-.738,18.264,18.264,0,0,1,14.414,7.041,23.936,23.936,0,0,1,23.158-17.94,23.935,23.935,0,0,1,20.954,12.364,9.176,9.176,0,0,1,5.929-2.205,9.185,9.185,0,0,1,6.009,2.267,20.66,20.66,0,0,1,20.033-15.657,20.579,20.579,0,0,1,8.861,2.015,7.884,7.884,0,0,1-.111-1.071,8.124,8.124,0,0,1,8.124-8.121,8.028,8.028,0,0,1,3.895,1.039,18.446,18.446,0,0,1-3.979-11.454,18.538,18.538,0,0,1,18.537-18.537,18.476,18.476,0,0,1,4.97.694,137.873,137.873,0,0,0,14.217-61.129c0-55.782-37.128-126.4-84.66-148.322-17.626-8.131-26.579-36.921-47.263-36.921-20.6,0-31.874-.683-49.443,7.385-47.651,21.882-95.541,121.991-95.541,177.859a137.832,137.832,0,0,0,14.448,61.578A19.816,19.816,0,0,1-6110.274,2805.04Z" transform="translate(6134.978 -2561.066)" fill="none"/>
    </clipPath>
  </defs>
  <g id="Grupo_692" data-name="Grupo 692" transform="translate(-9.613 -32.231)">
    <path id="Trazado_56" data-name="Trazado 56" d="M-6149.147,2662.411h-3.238a6.1,6.1,0,0,1-6.084-6.085h0a6.1,6.1,0,0,1,6.084-6.084h3.238a6.1,6.1,0,0,1,6.085,6.084h0A6.1,6.1,0,0,1-6149.147,2662.411Z" transform="translate(6168.083 -2435.097)" fill="#002d56"/>
    <path id="Trazado_57" data-name="Trazado 57" d="M-5828.2,2770.157h-23.28l.007-.019h-12.905a7.035,7.035,0,0,1-7.014-7.014,7.036,7.036,0,0,1,7.014-7.016h17.237l0-.018h27.484a7.035,7.035,0,0,0,7.015-7.015,7.035,7.035,0,0,0-7.015-7.016h-24.718a138.965,138.965,0,0,0,1.4-19.72,137.733,137.733,0,0,0-27.669-82.966h-15.64a6.862,6.862,0,0,1-6.844-6.842,6.862,6.862,0,0,1,6.844-6.844h3.95l-.021-.021h11.68a6.863,6.863,0,0,0,6.843-6.843,6.864,6.864,0,0,0-6.843-6.844h-27.164a137.828,137.828,0,0,0-83.59-28.095,138.487,138.487,0,0,0-135.8,111.458h-17.443a6.1,6.1,0,0,0-6.084,6.085,6.1,6.1,0,0,0,6.084,6.086h26.1a6.1,6.1,0,0,1,6.083,6.083,6.1,6.1,0,0,1-6.083,6.086h-34.686a6.1,6.1,0,0,0-6.084,6.085,6.1,6.1,0,0,0,6.084,6.083h23.717a137.757,137.757,0,0,0,14.111,52.063,19.811,19.811,0,0,1,10.257-2.861A19.942,19.942,0,0,1-6075.229,2801,19.826,19.826,0,0,1-6078,2811.1a9.741,9.741,0,0,1,1.761-.178,9.7,9.7,0,0,1,9.611,8.545,20.27,20.27,0,0,1,13.487-5.132,20.365,20.365,0,0,1,17.95,10.738,22.041,22.041,0,0,1,15.624-6.465,22.1,22.1,0,0,1,20.622,14.18c.184-.006.359-.01.523-.01a12.878,12.878,0,0,1,5.332.993,18.282,18.282,0,0,1,5.114-.738,18.263,18.263,0,0,1,14.414,7.042,23.936,23.936,0,0,1,23.158-17.942,23.937,23.937,0,0,1,20.954,12.364,9.177,9.177,0,0,1,5.93-2.2,9.186,9.186,0,0,1,6.008,2.266,20.661,20.661,0,0,1,20.033-15.657,20.573,20.573,0,0,1,8.859,2.015,8.212,8.212,0,0,1-.109-1.071,8.123,8.123,0,0,1,8.123-8.121,8.023,8.023,0,0,1,3.9,1.039,18.445,18.445,0,0,1-3.98-11.454,18.537,18.537,0,0,1,11.433-17.121h41.059a7.036,7.036,0,0,0,7.014-7.015A7.038,7.038,0,0,0-5828.2,2770.157Z" transform="translate(6177.677 -2504.849)" fill="#333335"/>
    <path id="Trazado_63" data-name="Trazado 63" d="M-6149.147,2662.411h-3.238a6.1,6.1,0,0,1-6.084-6.085h0a6.1,6.1,0,0,1,6.084-6.084h3.238a6.1,6.1,0,0,1,6.085,6.084h0A6.1,6.1,0,0,1-6149.147,2662.411Z" transform="translate(6168.083 -2435.097)" fill="#333335"/>
    <ellipse id="Elipse_34" data-name="Elipse 34" cx="6.154" cy="6.154" rx="6.154" ry="6.154" transform="translate(121.803 77.386)" fill="#333335"/>
    <g id="Grupo_146" data-name="Grupo 146" transform="translate(57.8 32.231)" clip-path="url(#clip-path)">
      <g id="Grupo_145" data-name="Grupo 145" transform="translate(60.226 20.74)">
        <path id="Trazado_69" data-name="Trazado 69" d="M-6096.456,2668.507l-9.159,11.413s1.809,7.893,2.837,9.224,7.408,4.99,8.3,5.568,2.41.714,2.617.216-2.713-3.38-1.076-7.954,3.468-8.122,3.623-11.093C-6088.976,2669.295-6096.456,2668.507-6096.456,2668.507Z" transform="translate(6105.615 -2468.867)" fill="#ffbd95"/>
        <path id="Trazado_70" data-name="Trazado 70" d="M-6015.635,2663.19c5.318-16.267,19.07-44.151,11.051-49.019-10.452-6.344-40.543-10.272-40.543-10.272v.517s-30.359,2.494-40.83,8.808c-8.034,4.844,5.891,34.111,11.163,50.393,1.264,3.908,1.1,21.419.59,36.944-.126,3.832-3.26,21.438-2.741,28.72.151,2.173,24.72,15.661,31.608,16.016v-.515c6.889-.335,31.5-13.751,31.657-15.923.541-7.28-2.542-24.9-2.657-28.727C-6016.8,2684.6-6016.912,2667.094-6015.635,2663.19Z" transform="translate(6123.713 -2536.781)" fill="#ffbd95"/>
        <path id="Trazado_71" data-name="Trazado 71" d="M-6048.856,2608.65c-5.538,2.691-6.374,12.729-.928,22.821s10.259,16.374,11.743,18.963c1.528,2.67,9.232,18.8,11.98,22.772s8.739,7.5,13.043,5.177c3.6-1.94,7.6-3.6,5.129-11.55S-6031.36,2600.148-6048.856,2608.65Z" transform="translate(6160.434 -2532.668)" fill="#ffbd95"/>
        <path id="Trazado_72" data-name="Trazado 72" d="M-6043.637,2611.01c-.684-3.1-2.384-18.432-2.384-18.432l-10.163-.014v.517l-10.161-.016s-1.746,15.326-2.439,18.426-9.064,7.763-9.064,7.763l21.626.033v-.517l21.624.033S-6042.953,2614.112-6043.637,2611.01Z" transform="translate(6134.805 -2548.696)" fill="#ffbd95"/>
        <path id="Trazado_73" data-name="Trazado 73" d="M-6044.317,2606.684c-.638-4.7-1.4-11.382-1.632-13.459l-.654-.646-9.581-.014v.517l-10.161-.016s-1.746,15.326-2.439,18.426-9.064,7.763-9.064,7.763l1.022,0c9.654-2.558,19.254-5.11,20.547-5.477,2.7-.771,11.962-7.1,11.962-7.1Z" transform="translate(6134.805 -2548.696)" fill="#ffa47c"/>
        <path id="Trazado_74" data-name="Trazado 74" d="M-6066.593,2656.7c-12.4-.054-17.233,8.587-16.93,35.111s4.216,55.289,5.933,59.426,19.29,4.249,21.014,1.84,6.114-57.428,6.127-66.039S-6053.083,2656.763-6066.593,2656.7Z" transform="translate(6128.829 -2481.277)" fill="#ffbd95"/>
        <rect id="Rectángulo_153" data-name="Rectángulo 153" width="21.184" height="28.934" rx="1.909" transform="translate(51.513 261.96) rotate(1.463)" fill="#ffbd95"/>
        <path id="Trazado_75" data-name="Trazado 75" d="M-6052.548,2656.88c12.328-1.333,18.027,6.766,20.455,33.18s3.569,55.431,2.287,59.722-18.748,6.21-20.713,3.994-14.065-56.493-14.963-65.059S-6065.979,2658.332-6052.548,2656.88Z" transform="translate(6147.497 -2481.234)" fill="#ffbd95"/>
        <path id="Rectángulo_154" data-name="Rectángulo 154" d="M1.907,0H19.273a1.911,1.911,0,0,1,1.911,1.911V27.027a1.907,1.907,0,0,1-1.907,1.907H1.9a1.9,1.9,0,0,1-1.9-1.9V1.907A1.907,1.907,0,0,1,1.907,0Z" transform="matrix(-0.992, 0.128, -0.128, -0.992, 120.307, 289.314)" fill="#ffbd95"/>
        <path id="Trazado_76" data-name="Trazado 76" d="M-6069.553,2608.42c5.938,1.622,8.613,11.335,5.125,22.258s-7.063,17.989-8.042,20.8c-1.009,2.908-5.6,20.183-7.574,24.593s-7.206,8.982-11.863,7.5c-3.9-1.246-8.131-2.135-7.172-10.406S-6088.317,2603.292-6069.553,2608.42Z" transform="translate(6112.344 -2532.348)" fill="#ffbd95"/>
        <path id="Trazado_77" data-name="Trazado 77" d="M-6079.137,2654.1s-4.49,21.841-5.2,33.723,5.03,63.835,5.043,69.553-.4,23.285-.062,40.506,4.734,51.134,4.734,51.134l22.046-.515s.142-72.812.159-84.256,2.863-71.721,2.863-71.721l.054-37.458Z" transform="translate(6127.928 -2484.01)" fill="#9b0000"/>
        <path id="Trazado_78" data-name="Trazado 78" d="M-6001.921,2614.493c-1.364-2.268-8.681-4.145-15.427-6.245a72.45,72.45,0,0,1-10.729-4.348l-3.747,1.987a26.764,26.764,0,0,1-26.6-.041l-3.208-1.844s-5.326,2.329-11.278,4.162c-6.75,2.08-14.283,3.82-15.442,6.2-1.178,2.414,10.853,48.784,12.205,52.729s-2.167,31.526,1.26,39.78l29.577.964v0l.059,0h.005l29.581-.876c2.719-9.456-.019-36.355,1.346-40.295S-5999.645,2618.28-6001.921,2614.493Z" transform="translate(6123.676 -2536.781)" fill="#efefef"/>
        <path id="Trazado_79" data-name="Trazado 79" d="M-6037.971,2653.8s6.713,21.263,8.639,33.01,3.64,64.015,4.216,69.7,2.8,23.119,4.232,40.288,3.347,51.354,3.347,51.354l-21.982,1.758s-10.427-72.419-11.621-83.8-16.307-71.391-16.307-71.391l.143-39.342Z" transform="translate(6145.735 -2484.324)" fill="#9b0000"/>
        <path id="Trazado_80" data-name="Trazado 80" d="M-6046.7,2698.335c1.239,7.786,4.717,60.1,4.928,63.073.2,2.9,10.5,83.6,10.849,87.324l7.233-.579s-1.908-34.186-3.345-51.352-3.653-34.6-4.23-40.288-2.291-57.955-4.218-69.7-8.639-33.01-8.639-33.01l-17.475,1.227S-6047.944,2690.551-6046.7,2698.335Z" transform="translate(6151.888 -2484.324)" fill="#ad0b0b"/>
        <path id="Trazado_81" data-name="Trazado 81" d="M-6060.688,2667.96a8.438,8.438,0,0,0-15.738,3.479c-.732,8.486-.915,14.356-.172,18.27,1.864,9.835,4.536,57.925,4.177,59.185s-.109,89.572-.109,89.572l.39.234,11.878-.277s.141-72.813.157-84.256,2.864-71.721,2.864-71.721l0-3.272.229-4.721Z" transform="translate(6135.617 -2473.93)" fill="#ad0b0b"/>
        <path id="Trazado_82" data-name="Trazado 82" d="M-6040.354,2598.126c-.02,12.814-9.719,25.564-17.942,25.55-7.855-.01-17.885-12.789-17.865-25.6s8.052-23.191,17.938-23.177S-6040.337,2585.313-6040.354,2598.126Z" transform="translate(6136.575 -2567.267)" fill="#ffbd95"/>
        <path id="Trazado_83" data-name="Trazado 83" d="M-6074.651,2601.255c-.792-1.4-3.457-7.327-2.871-10s3.732-8.479,4.781-10.22,10.354-6.38,11.75-6.492a36.136,36.136,0,0,1,8.02.012c2.9.47,8.016,2.454,9.175,4.779s4.04,5,4.977,6.865,2.558,6.63,2.326,7.327-1.523,6.506-1.64,6.97a11.485,11.485,0,0,1-.954,1.787s-4.812-12.245-4.927-13.408-24.523-1.548-26.035-.736S-6074.651,2601.255-6074.651,2601.255Z" transform="translate(6135.061 -2567.881)" fill="#683a03"/>
        <path id="Trazado_84" data-name="Trazado 84" d="M-6059.266,2700.4h-23.894l-.666-1.139-1.739-.775,2.354-34.162,22.142-.54Z" transform="translate(6126.693 -2473.833)" fill="#d13b3b"/>
        <path id="Trazado_85" data-name="Trazado 85" d="M-6061.671,2698.521h-23.893l1.287-34.772h22.606Z" transform="translate(6126.693 -2473.868)" fill="#ad0b0b"/>
        <path id="Trazado_86" data-name="Trazado 86" d="M-6084.052,2700.4l-.665-1.139h22.956l-.2-35.477,1.8,36.616Z" transform="translate(6127.585 -2473.833)" fill="#bf2121"/>
        <path id="Trazado_87" data-name="Trazado 87" d="M-6058.479,2701.314l23.781-2.328.55-1.2,1.657-.941-5.671-33.769-22.088,1.619Z" transform="translate(6153.303 -2474.575)" fill="#d13b3b"/>
        <path id="Trazado_88" data-name="Trazado 88" d="M-6056.574,2699.54l23.78-2.328-4.669-34.48-22.5,2.2Z" transform="translate(6153.605 -2474.939)" fill="#ad0b0b"/>
        <path id="Trazado_89" data-name="Trazado 89" d="M-6034.7,2698.156l.55-1.2-22.845,2.236-3.257-35.328,1.771,36.616Z" transform="translate(6153.303 -2473.744)" fill="#bf2121"/>
        <path id="Trazado_90" data-name="Trazado 90" d="M-6088.354,2639.707c-4.986-.443-9.325,1.809-11.3,15.7s-2.374,46.667-2.374,46.667l8.066.716s10.352-26.62,11.755-34.113S-6075.3,2640.868-6088.354,2639.707Z" transform="translate(6109.388 -2499.194)" fill="#ffbd95"/>
        <path id="Trazado_91" data-name="Trazado 91" d="M-6052.188,2691.229l29.442-.96-.72-6.31-5.231-64.266h-46.959l-5.454,64.266-.719,6.31,29.442.96v.007l.1,0,.1,0Z" transform="translate(6130.62 -2520.178)" fill="#ad0b0b"/>
        <path id="Trazado_92" data-name="Trazado 92" d="M-6067.241,2619.693s4.343,50.551,9.631,60.173,34.66,8.031,34.66,8.031l.271,3.342s-14.368,3.417-27.835,3.417-31.379-3.417-31.379-3.417l6.3-71.545Z" transform="translate(6130.553 -2520.178)" fill="#9b0000"/>
        <path id="Trazado_93" data-name="Trazado 93" d="M-6052.921,2639.346l4.435-32.2-6.686-2.638-5.013,34.842,3.206,5.38Z" transform="translate(6153.371 -2536.145)" fill="#bf2121"/>
        <path id="Trazado_94" data-name="Trazado 94" d="M-6075.76,2639.346l-4.435-32.2,6.686-2.638,5.014,34.842-3.207,5.38Z" transform="translate(6132.336 -2536.145)" fill="#bf2121"/>
        <path id="Trazado_95" data-name="Trazado 95" d="M-6082.064,2658.457l-.122-5.585a224.736,224.736,0,0,0,30.391,2.521,218.121,218.121,0,0,0,30.114-2.521l.331,5.585s-18.771,3.367-30.608,3.367S-6082.064,2658.457-6082.064,2658.457Z" transform="translate(6130.246 -2485.302)" fill="#bf2121"/>
        <path id="Trazado_96" data-name="Trazado 96" d="M-6073.735,2622.106a1.8,1.8,0,0,1-1.8,1.805,1.805,1.805,0,0,1-1.806-1.805,1.8,1.8,0,0,1,1.806-1.8A1.8,1.8,0,0,1-6073.735,2622.106Z" transform="translate(6135.336 -2519.537)" fill="#a5a2a2"/>
        <path id="Trazado_97" data-name="Trazado 97" d="M-6055.487,2622.106a1.8,1.8,0,0,1-1.8,1.805,1.8,1.8,0,0,1-1.8-1.805,1.8,1.8,0,0,1,1.8-1.8A1.8,1.8,0,0,1-6055.487,2622.106Z" transform="translate(6154.52 -2519.537)" fill="#a5a2a2"/>
        <path id="Trazado_98" data-name="Trazado 98" d="M-6075.337,2608.259s-7.632,2.217-13.564,16.327-10.315,42.9-10.315,42.9,4.169,3.255,11.94,5.179,11.041,1.145,11.041,1.145l8.5-29.82S-6065.782,2608.768-6075.337,2608.259Z" transform="translate(6112.345 -2532.198)" fill="#efefef"/>
        <g id="Grupo_143" data-name="Grupo 143" transform="translate(6.39 211.219)">
          <path id="Trazado_99" data-name="Trazado 99" d="M-6099.712,2675.091a34.765,34.765,0,0,0,1.671,5.441,24.2,24.2,0,0,0,2.61,3,4.3,4.3,0,0,1,1.044,2.988c-.586.862-2.008-.185-2.659-.906a25.6,25.6,0,0,1-2.873-3.552c-.681-1.2-2.5-4.049-2.579-5.075S-6099.712,2675.091-6099.712,2675.091Z" transform="translate(6102.5 -2673.167)" fill="#ffa47c"/>
          <path id="Trazado_100" data-name="Trazado 100" d="M-6100.44,2674.469a32.238,32.238,0,0,0,2.963,4.394c.816.708,1.549.591,2.813.993,1.054.334,2.363,1.156,2.459,2.129s-1.575.629-2.473.488a9,9,0,0,1-4.056-1.74c-.932-.88-3.32-2.931-3.671-3.823S-6100.44,2674.469-6100.44,2674.469Z" transform="translate(6102.562 -2673.819)" fill="#ffa47c"/>
          <path id="Trazado_101" data-name="Trazado 101" d="M-6100.791,2674.152a27.219,27.219,0,0,0,3.1,3.2c.782.463,1.376.256,2.488.4.923.117,2.128.6,2.35,1.393s-1.216.765-1.981.784a7.581,7.581,0,0,1-3.629-.827c-.9-.593-3.182-1.928-3.6-2.617S-6100.791,2674.152-6100.791,2674.152Z" transform="translate(6102.882 -2674.152)" fill="#ffa47c"/>
        </g>
        <path id="Trazado_102" data-name="Trazado 102" d="M-6101.237,2674.86s-1.982,6.968-.983,7.822,5.71,6.642,6.225,7.307,1.2,1.568,1.656-1.234-1.968-5.259-1.471-6.108,4.042-3.505,4.375-7.193a5.741,5.741,0,0,0-2.957-5.924C-6095.435,2669.005-6101.75,2672.013-6101.237,2674.86Z" transform="translate(6108.892 -2467.855)" fill="#ffbd95"/>
        <path id="Trazado_103" data-name="Trazado 103" d="M-6025.637,2664.374l9.161,11.411s-1.812,7.895-2.84,9.224-7.406,4.991-8.295,5.571-2.412.714-2.616.216,2.711-3.382,1.077-7.954-3.47-8.123-3.626-11.1C-6033.118,2665.162-6025.637,2664.374-6025.637,2664.374Z" transform="translate(6182.172 -2473.211)" fill="#ffbd95"/>
        <path id="Trazado_104" data-name="Trazado 104" d="M-6030.735,2635.574c4.986-.443,9.327,1.807,11.3,15.7s2.376,46.666,2.376,46.666l-8.066.718s-10.35-26.621-11.756-34.113S-6043.789,2636.735-6030.735,2635.574Z" transform="translate(6175.394 -2503.538)" fill="#ffbd95"/>
        <g id="Grupo_144" data-name="Grupo 144" transform="translate(148.944 202.742)">
          <path id="Trazado_105" data-name="Trazado 105" d="M-6026.557,2670.956a34.58,34.58,0,0,1-1.671,5.441,24.11,24.11,0,0,1-2.61,3,4.326,4.326,0,0,0-1.047,2.988c.589.862,2.011-.184,2.662-.909a25.272,25.272,0,0,0,2.872-3.551c.683-1.2,2.5-4.048,2.583-5.076S-6026.557,2670.956-6026.557,2670.956Z" transform="translate(6034.128 -2669.034)" fill="#ffa47c"/>
          <path id="Trazado_106" data-name="Trazado 106" d="M-6024.765,2670.336a32.287,32.287,0,0,1-2.962,4.394c-.814.705-1.551.591-2.814.99-1.052.334-2.363,1.157-2.458,2.131s1.574.629,2.47.489a9.054,9.054,0,0,0,4.06-1.74c.931-.882,3.318-2.932,3.672-3.824S-6024.765,2670.336-6024.765,2670.336Z" transform="translate(6033.002 -2669.686)" fill="#ffa47c"/>
          <path id="Trazado_107" data-name="Trazado 107" d="M-6024.893,2670.02a27.05,27.05,0,0,1-3.1,3.2c-.783.462-1.372.256-2.483.394-.926.118-2.131.605-2.351,1.395s1.213.763,1.981.782a7.557,7.557,0,0,0,3.625-.827c.9-.591,3.184-1.928,3.606-2.617S-6024.893,2670.02-6024.893,2670.02Z" transform="translate(6033.159 -2670.02)" fill="#ffa47c"/>
        </g>
        <path id="Trazado_108" data-name="Trazado 108" d="M-6023.524,2670.728s1.98,6.965.979,7.821-5.708,6.643-6.224,7.308-1.2,1.565-1.659-1.235,1.969-5.259,1.475-6.109-4.045-3.505-4.378-7.194a5.743,5.743,0,0,1,2.96-5.923C-6029.328,2664.871-6023.012,2667.878-6023.524,2670.728Z" transform="translate(6181.566 -2472.201)" fill="#ffbd95"/>
        <path id="Trazado_109" data-name="Trazado 109" d="M-6046.24,2607.638s7.881,1.009,15.924,14.033,19.258,40.408,19.258,40.408-3.562,3.852-10.942,6.951-10.932,3.022-10.932,3.022l-15.294-27.944S-6055.6,2609.616-6046.24,2607.638Z" transform="translate(6163.042 -2532.851)" fill="#efefef"/>
        <path id="Trazado_110" data-name="Trazado 110" d="M-6056.494,2591.457a37.988,37.988,0,0,1,20.278,5.353c-.145-14.052-4.2-25.633-20.315-25.633-15.468,0-20.612,10.713-21.023,24.271C-6071.876,2592.472-6064.5,2591.457-6056.494,2591.457Z" transform="translate(6135.115 -2571.177)" fill="#ad0b0b"/>
      </g>
    </g>
    <g id="Grupo_504" data-name="Grupo 504" transform="translate(-3 -16)">
      <path id="Unión_1" data-name="Unión 1" d="M2.714,6.214V5.72L1.28,4.286H.786a.786.786,0,1,1,0-1.571h.435L2.714,1.221V.786a.786.786,0,1,1,1.571,0v.441L5.773,2.714h.441a.786.786,0,1,1,0,1.571h-.5L4.286,5.715v.5a.786.786,0,1,1-1.571,0Z" transform="translate(316 117)" fill="#333335"/>
      <path id="Unión_4" data-name="Unión 4" d="M2.714,6.214V5.72L1.28,4.286H.786a.786.786,0,1,1,0-1.571h.435L2.714,1.221V.786a.786.786,0,1,1,1.571,0v.441L5.773,2.714h.441a.786.786,0,1,1,0,1.571h-.5L4.286,5.715v.5a.786.786,0,1,1-1.571,0Z" transform="translate(216 64)" fill="#333335"/>
      <path id="Unión_2" data-name="Unión 2" d="M2.714,6.214V5.72L1.28,4.286H.786a.786.786,0,1,1,0-1.571h.435L2.714,1.221V.786a.786.786,0,1,1,1.571,0v.441L5.773,2.714h.441a.786.786,0,1,1,0,1.571h-.5L4.286,5.715v.5a.786.786,0,1,1-1.571,0Z" transform="translate(59 137)" fill="#333335"/>
      <path id="Unión_3" data-name="Unión 3" d="M2.714,6.214V5.72L1.28,4.286H.786a.786.786,0,1,1,0-1.571h.435L2.714,1.221V.786a.786.786,0,1,1,1.571,0v.441L5.773,2.714h.441a.786.786,0,1,1,0,1.571h-.5L4.286,5.715v.5a.786.786,0,1,1-1.571,0Z" transform="translate(68 148)" fill="#333335"/>
      <rect id="Rectángulo_275" data-name="Rectángulo 275" width="2" height="2" rx="1" transform="translate(323 128)" fill="#333335"/>
      <rect id="Rectángulo_277" data-name="Rectángulo 277" width="2" height="2" rx="1" transform="translate(226 71)" fill="#333335"/>
      <rect id="Rectángulo_276" data-name="Rectángulo 276" width="2" height="2" rx="1" transform="translate(70 137)" fill="#333335"/>
    </g>
  </g>
</svg>
