<svg xmlns="http://www.w3.org/2000/svg" xmlns:xlink="http://www.w3.org/1999/xlink" width="297.585" height="281.044" viewBox="0 0 297.585 281.044">
  <defs>
    <clipPath id="clip-path">
      <path id="Trazado_211" data-name="Trazado 211" d="M-5459.88,2670.01h-28.745a138.733,138.733,0,0,0-86.86-65.953c-10.723-2.667-11.954-33.221-32.54-32.267-14.771.683-21.446,29.327-31.175,31.5a137.767,137.767,0,0,0-47.479,20.542h-31.2a6.1,6.1,0,0,0-6.084,6.086,6.1,6.1,0,0,0,6.083,6.085h15.747l-.012.01a6.1,6.1,0,0,1,5.987,6.074,6.1,6.1,0,0,1-6.086,6.085h-28.532a6.1,6.1,0,0,0-6.085,6.086,6.1,6.1,0,0,0,6.085,6.084h7.469a137.8,137.8,0,0,0-24.128,78.09,138.09,138.09,0,0,0,9.311,49.909c.144,0,.284-.023.426-.023A17.687,17.687,0,0,1-5720.007,2806c0,.055-.006.109-.009.164a22.256,22.256,0,0,1,7.96-1.484,22.357,22.357,0,0,1,22.357,22.357,22.24,22.24,0,0,1-3.153,11.409,13.949,13.949,0,0,1,4.067-.6,13.985,13.985,0,0,1,13.037,8.937,25.6,25.6,0,0,1,21.895-12.348,25.638,25.638,0,0,1,24.58,18.381,22.063,22.063,0,0,1,17.848-9.1,22.035,22.035,0,0,1,16.311,7.216,25.64,25.64,0,0,1,23.679-15.806,25.615,25.615,0,0,1,22.907,14.17,16.025,16.025,0,0,1,14.683-9.606,15.968,15.968,0,0,1,4.466.644,20.551,20.551,0,0,1-2.255-9.351A20.638,20.638,0,0,1-5511,2810.343a20.538,20.538,0,0,1,6.915,1.212,16.576,16.576,0,0,1-.414-3.628,16.466,16.466,0,0,1,16.465-16.467h20.79a7.037,7.037,0,0,0,7.017-7.016,7.036,7.036,0,0,0-7.017-7.015h-8.887l.006-.018h-10.995a7.035,7.035,0,0,1-7.015-7.017,7.034,7.034,0,0,1,7.015-7.014h14.326a138.045,138.045,0,0,0,2.271-24.951,138.983,138.983,0,0,0-2.651-27h3.721a7.036,7.036,0,0,0,7.017-7.015,7.034,7.034,0,0,0-7.014-7.015h-19.089a6.863,6.863,0,0,1-6.843-6.843,6.865,6.865,0,0,1,6.843-6.844h6.763l-.006-.021h21.9a6.863,6.863,0,0,0,6.843-6.843A6.863,6.863,0,0,0-5459.88,2670.01Z" transform="translate(5747.43 -2571.768)" fill="none"/>
    </clipPath>
  </defs>
  <g id="Grupo_693" data-name="Grupo 693" transform="translate(-50 -54.8)">
    <path id="Trazado_169" data-name="Trazado 169" d="M-5736.247,2609.32h-3.238a6.1,6.1,0,0,1-6.083-6.085h0a6.1,6.1,0,0,1,6.083-6.086h3.238a6.1,6.1,0,0,1,6.085,6.086h0A6.1,6.1,0,0,1-5736.247,2609.32Z" transform="translate(5802.581 -2490.289)" fill="#333335"/>
    <ellipse id="Elipse_37" data-name="Elipse 37" cx="6.154" cy="6.155" rx="6.154" ry="6.155" transform="translate(307.963 127.966)"/>
    <path id="Trazado_170" data-name="Trazado 170" d="M-5725.288,2603.082h-.109c.033,0,.065.008.1.01Z" transform="translate(5823.782 -2484.051)" fill="#333335"/>
    <g id="Grupo_169" data-name="Grupo 169" transform="translate(53.191 54.8)" clip-path="url(#clip-path)">
      <g id="Grupo_168" data-name="Grupo 168" transform="translate(0 7.482)">
        <path id="Trazado_171" data-name="Trazado 171" d="M-5459.88,2655.554h-28.745a138.373,138.373,0,0,0-120.351-70.035,137.8,137.8,0,0,0-77.7,23.853h-31.2a6.1,6.1,0,0,0-6.084,6.086,6.106,6.106,0,0,0,6.083,6.086h15.747l-.012.01a6.1,6.1,0,0,1,5.987,6.073,6.1,6.1,0,0,1-6.086,6.086h-28.532a6.1,6.1,0,0,0-6.085,6.086,6.1,6.1,0,0,0,6.085,6.084h7.469a137.8,137.8,0,0,0-24.128,78.09,138.092,138.092,0,0,0,9.311,49.909c.144,0,.284-.022.426-.022a17.686,17.686,0,0,1,17.686,17.687c0,.055-.006.109-.009.165a22.256,22.256,0,0,1,7.96-1.485,22.357,22.357,0,0,1,22.357,22.357,22.241,22.241,0,0,1-3.153,11.409,13.949,13.949,0,0,1,4.067-.6,13.985,13.985,0,0,1,13.037,8.937,25.6,25.6,0,0,1,21.895-12.348,25.638,25.638,0,0,1,24.58,18.381,22.062,22.062,0,0,1,17.848-9.1,22.037,22.037,0,0,1,16.311,7.215,25.641,25.641,0,0,1,23.679-15.806,25.617,25.617,0,0,1,22.907,14.17,16.026,16.026,0,0,1,14.683-9.606,15.977,15.977,0,0,1,4.466.644,20.551,20.551,0,0,1-2.255-9.351A20.638,20.638,0,0,1-5511,2795.887a20.544,20.544,0,0,1,6.915,1.212,16.582,16.582,0,0,1-.414-3.628A16.466,16.466,0,0,1-5488.032,2777h20.79a7.036,7.036,0,0,0,7.017-7.015,7.036,7.036,0,0,0-7.017-7.015h-8.887l.006-.019h-10.995a7.035,7.035,0,0,1-7.015-7.017,7.035,7.035,0,0,1,7.015-7.015h14.326a138.036,138.036,0,0,0,2.271-24.95,138.981,138.981,0,0,0-2.651-27h3.721a7.036,7.036,0,0,0,7.017-7.015,7.035,7.035,0,0,0-7.014-7.015h-19.089a6.863,6.863,0,0,1-6.843-6.843,6.865,6.865,0,0,1,6.843-6.844h6.763l-.006-.021h21.9a6.863,6.863,0,0,0,6.843-6.843A6.863,6.863,0,0,0-5459.88,2655.554Z" transform="translate(5747.43 -2564.794)" fill="#333335"/>
        <g id="Grupo_167" data-name="Grupo 167" transform="translate(71.417)">
          <path id="Trazado_172" data-name="Trazado 172" d="M-5621.761,2669.341c5.614-17.168,20.124-46.594,11.663-51.731-11.032-6.7-42.789-10.84-42.789-10.84v.544s-32.037,2.634-43.088,9.3c-8.479,5.11,6.218,36,11.782,53.181,1.334,4.122,1.16,22.6.622,38.986-.133,4.043-3.442,22.625-2.895,30.309.165,2.293,26.089,16.528,33.359,16.9v-.546c7.271-.353,33.237-14.51,33.407-16.8.572-7.684-2.682-26.273-2.8-30.316C-5622.99,2691.938-5623.109,2673.459-5621.761,2669.341Z" transform="translate(5727.393 -2542.455)" fill="#ffbd95"/>
          <path id="Trazado_173" data-name="Trazado 173" d="M-5656.82,2611.784c-5.843,2.839-6.727,13.433-.981,24.083s10.828,17.281,12.392,20.011c1.615,2.82,9.745,19.844,12.645,24.033s9.224,7.914,13.763,5.465c3.8-2.049,8.021-3.8,5.415-12.188S-5638.356,2602.81-5656.82,2611.784Z" transform="translate(5766.145 -2538.116)" fill="#ffbd95"/>
          <path id="Trazado_174" data-name="Trazado 174" d="M-5651.312,2614.275c-.723-3.272-2.515-19.452-2.515-19.452l-10.724-.016v.546l-10.724-.017s-1.842,16.176-2.572,19.445-9.567,8.2-9.567,8.2l22.822.034v-.546l22.822.032S-5650.59,2617.549-5651.312,2614.275Z" transform="translate(5739.097 -2555.031)" fill="#ffbd95"/>
          <path id="Trazado_175" data-name="Trazado 175" d="M-5652.03,2609.709c-.674-4.956-1.474-12.01-1.724-14.2l-.688-.684-10.109-.016v.546l-10.724-.017s-1.842,16.176-2.572,19.445-9.567,8.2-9.567,8.2h1.079c10.189-2.7,20.32-5.392,21.685-5.781,2.848-.814,12.622-7.486,12.622-7.486Z" transform="translate(5739.097 -2555.031)" fill="#ffa47c"/>
          <path id="Trazado_176" data-name="Trazado 176" d="M-5675.537,2662.493c-13.086-.059-18.19,9.06-17.868,37.052s4.451,58.348,6.263,62.713,20.355,4.483,22.177,1.942,6.451-60.6,6.464-69.692S-5661.283,2662.559-5675.537,2662.493Z" transform="translate(5732.789 -2483.882)" fill="#ffbd95"/>
          <rect id="Rectángulo_165" data-name="Rectángulo 165" width="22.355" height="30.535" rx="1.909" transform="translate(45.936 269.935) rotate(1.462)" fill="#ffbd95"/>
          <path id="Trazado_177" data-name="Trazado 177" d="M-5678.39,2713.7c-4-.007-13.814,1.3-13.308,27.4s11.54,61.851,11.54,61.851l9.449.014s4.686-48.3,4.723-57.57C-5665.9,2724.312-5665.756,2713.722-5678.39,2713.7Z" transform="translate(5734.576 -2430.05)" fill="#ffbd95"/>
          <path id="Trazado_178" data-name="Trazado 178" d="M-5660.717,2662.682c13.012-1.407,19.025,7.14,21.587,35.016s3.765,58.5,2.413,63.024-19.786,6.556-21.86,4.215-14.841-59.618-15.788-68.656S-5674.889,2664.214-5660.717,2662.682Z" transform="translate(5752.492 -2483.837)" fill="#ffbd95"/>
          <path id="Rectángulo_166" data-name="Rectángulo 166" d="M1.907,0H20.453a1.9,1.9,0,0,1,1.9,1.9V28.619a1.916,1.916,0,0,1-1.916,1.916H1.9a1.9,1.9,0,0,1-1.9-1.9V1.907A1.907,1.907,0,0,1,1.907,0Z" transform="matrix(-0.992, 0.128, -0.128, -0.992, 118.536, 298.801)" fill="#ffbd95"/>
          <path id="Trazado_179" data-name="Trazado 179" d="M-5655.624,2713.532c3.976-.416,13.876-.125,16.058,25.884s-2.1,62.71-2.1,62.71l-9.4.987s-12.646-47.566-13.637-56.781C-5666.951,2725.369-5668.187,2714.851-5655.624,2713.532Z" transform="translate(5761.458 -2430.312)" fill="#ffbd95"/>
          <path id="Trazado_180" data-name="Trazado 180" d="M-5677.677,2612.045c6.172,2.024,8.477,12.4,4.221,23.73s-8.4,18.586-9.577,21.5c-1.219,3.009-6.978,20.975-9.284,25.519s-8.071,9.086-12.9,7.271c-4.039-1.516-8.458-2.679-7.01-11.345S-5697.184,2605.647-5677.677,2612.045Z" transform="translate(5712.72 -2537.381)" fill="#ffbd95"/>
          <path id="Trazado_181" data-name="Trazado 181" d="M-5688.775,2659.749s-4.739,23.049-5.485,35.588,5.31,67.366,5.323,73.4-.423,24.573-.066,42.749,5,53.961,5,53.961l23.264-.543s.15-76.84.168-88.919,3.021-75.686,3.021-75.686l.059-39.532Z" transform="translate(5731.838 -2486.766)" fill="#9b0000"/>
          <path id="Trazado_182" data-name="Trazado 182" d="M-5607.289,2617.949c-1.439-2.393-9.163-4.375-16.281-6.591a76.678,76.678,0,0,1-11.324-4.589l-3.952,2.1a28.245,28.245,0,0,1-28.073-.042l-3.384-1.945s-5.624,2.455-11.9,4.392c-7.123,2.195-15.076,4.03-16.3,6.541-1.241,2.547,11.454,51.481,12.881,55.646s-2.287,33.27,1.331,41.981l31.213,1.018v0l.06,0h.009l31.216-.926c2.867-9.978-.02-38.364,1.418-42.523S-5604.886,2621.946-5607.289,2617.949Z" transform="translate(5727.355 -2542.455)" fill="#efefef"/>
          <path id="Trazado_183" data-name="Trazado 183" d="M-5645.334,2659.433s7.088,22.44,9.119,34.836,3.84,67.556,4.45,73.56,2.949,24.4,4.463,42.515,3.532,54.2,3.532,54.2l-23.2,1.854s-11.007-76.424-12.267-88.436-17.209-75.339-17.209-75.339l.154-41.518Z" transform="translate(5750.633 -2487.098)" fill="#9b0000"/>
          <path id="Trazado_184" data-name="Trazado 184" d="M-5684.232,2760.223s-7.955,9.287-7.535,11.743c.237,1.393,3.589,6.455,9.681,6.83,4.632.285,12.188-3.94,13.364-4.059,2.727-.279,2.72-14.939,2.72-14.939Z" transform="translate(5734.504 -2381.597)" fill="#191919"/>
          <path id="Trazado_185" data-name="Trazado 185" d="M-5643.033,2759.564s8.867,8.42,8.7,10.9c-.092,1.412-2.906,6.79-8.926,7.791-4.577.761-12.528-2.663-13.713-2.663-2.74,0-4.241-14.578-4.241-14.578Z" transform="translate(5766.644 -2381.844)" fill="#191919"/>
          <path id="Trazado_186" data-name="Trazado 186" d="M-5654.549,2706.431c1.312,8.215,4.981,63.429,5.2,66.563.216,3.058,11.086,88.22,11.449,92.155l7.636-.609s-2.016-36.08-3.531-54.2-3.856-36.513-4.463-42.515-2.417-61.163-4.451-73.56-9.118-34.836-9.118-34.836l-18.442,1.3S-5655.858,2698.217-5654.549,2706.431Z" transform="translate(5757.124 -2487.098)" fill="#ad0b0b"/>
          <path id="Trazado_187" data-name="Trazado 187" d="M-5669.31,2674.375c-4.313-7.61-15.857-5.044-16.608,3.671-.773,8.956-.964,15.152-.183,19.281,1.968,10.381,4.786,61.129,4.411,62.459s-.118,94.528-.118,94.528l.413.248,12.535-.293s.151-76.839.168-88.918,3.021-75.686,3.021-75.686l0-3.454.242-4.982Z" transform="translate(5739.957 -2476.128)" fill="#ad0b0b"/>
          <g id="Grupo_164" data-name="Grupo 164" transform="translate(34.977 193.867)">
            <path id="Trazado_188" data-name="Trazado 188" d="M-5667.806,2708.608h-25.215l-.7-1.2-1.837-.818,2.484-36.052,23.366-.569Z" transform="translate(5695.56 -2669.893)" fill="#bf2121"/>
            <path id="Trazado_189" data-name="Trazado 189" d="M-5670.344,2706.626h-25.216l1.359-36.7h23.856Z" transform="translate(5695.56 -2669.93)" fill="#ad0b0b"/>
            <path id="Trazado_190" data-name="Trazado 190" d="M-5693.963,2708.608l-.7-1.2h24.225l-.212-37.439,1.9,38.641Z" transform="translate(5696.502 -2669.893)" fill="#d13b3b"/>
          </g>
          <g id="Grupo_165" data-name="Grupo 165" transform="translate(89.775 191.663)">
            <path id="Trazado_191" data-name="Trazado 191" d="M-5666.975,2709.573l25.1-2.456.583-1.264,1.748-.992-5.985-35.638-23.31,1.709Z" transform="translate(5668.844 -2668.471)" fill="#d13b3b"/>
            <path id="Trazado_192" data-name="Trazado 192" d="M-5664.966,2707.7l25.1-2.456-4.927-36.389-23.744,2.324Z" transform="translate(5669.165 -2668.856)" fill="#ad0b0b"/>
            <path id="Trazado_193" data-name="Trazado 193" d="M-5641.879,2706.241l.583-1.264-24.11,2.36-3.437-37.282,1.87,38.642Z" transform="translate(5668.844 -2667.595)" fill="#bf2121"/>
          </g>
          <path id="Trazado_194" data-name="Trazado 194" d="M-5660.336,2698.931l31.069-1.013-.758-6.66-5.52-67.821H-5685.1l-5.756,67.821-.758,6.66,31.069,1.013v.007l.106,0,.105,0Z" transform="translate(5734.681 -2524.936)" fill="#ad0b0b"/>
          <path id="Trazado_195" data-name="Trazado 195" d="M-5676.225,2623.437s4.583,53.349,10.166,63.5,36.577,8.476,36.577,8.476l.284,3.526s-15.161,3.605-29.375,3.605-33.112-3.605-33.112-3.605l6.651-75.5Z" transform="translate(5734.612 -2524.936)" fill="#9b0000"/>
          <path id="Trazado_196" data-name="Trazado 196" d="M-5661.11,2644.178l4.681-33.986-7.057-2.784-5.29,36.77,3.385,5.677Z" transform="translate(5758.691 -2541.786)" fill="#bf2121"/>
          <path id="Trazado_197" data-name="Trazado 197" d="M-5685.212,2644.178l-4.681-33.986,7.058-2.784,5.289,36.77-3.383,5.677Z" transform="translate(5736.494 -2541.786)" fill="#bf2121"/>
          <path id="Trazado_198" data-name="Trazado 198" d="M-5691.865,2664.348l-.128-5.9a237.125,237.125,0,0,0,32.072,2.66,230.209,230.209,0,0,0,31.781-2.66l.349,5.9s-19.81,3.55-32.3,3.55S-5691.865,2664.348-5691.865,2664.348Z" transform="translate(5734.284 -2488.129)" fill="#bf2121"/>
          <path id="Trazado_199" data-name="Trazado 199" d="M-5683.076,2625.985a1.9,1.9,0,0,1-1.9,1.9,1.9,1.9,0,0,1-1.9-1.9,1.9,1.9,0,0,1,1.9-1.9A1.9,1.9,0,0,1-5683.076,2625.985Z" transform="translate(5739.657 -2524.259)" fill="#a5a2a2"/>
          <path id="Trazado_200" data-name="Trazado 200" d="M-5663.817,2625.985a1.9,1.9,0,0,1-1.9,1.9,1.9,1.9,0,0,1-1.9-1.9,1.9,1.9,0,0,1,1.9-1.9A1.9,1.9,0,0,1-5663.817,2625.985Z" transform="translate(5759.906 -2524.259)" fill="#a5a2a2"/>
          <path id="Trazado_201" data-name="Trazado 201" d="M-5684,2611.661s-8.158,1.934-15.16,16.49-13.143,44.668-13.143,44.668,4.223,3.651,12.311,6.09,11.574,1.792,11.574,1.792l10.536-30.982S-5673.951,2612.7-5684,2611.661Z" transform="translate(5712.939 -2537.315)" fill="#efefef"/>
          <path id="Trazado_202" data-name="Trazado 202" d="M-5654.059,2610.715s8.321,1.067,16.806,14.81,20.325,42.644,20.325,42.644-3.762,4.063-11.548,7.336-11.539,3.187-11.539,3.187l-16.14-29.487S-5663.939,2612.8-5654.059,2610.715Z" transform="translate(5768.896 -2538.308)" fill="#efefef"/>
          <path id="Trazado_203" data-name="Trazado 203" d="M-5711.625,2649.175c1.6-5.031,4.1-8.722,10.543-7.048s20.146,9.817,20.146,9.817l-2.6,8.136s-14.72,3.266-18.322,2.7S-5715.833,2662.342-5711.625,2649.175Z" transform="translate(5712.613 -2505.72)" fill="#ffa47c"/>
          <path id="Trazado_204" data-name="Trazado 204" d="M-5603.991,2652.454c.622-5.247-1.617-9.893-16.207-12.406s-49.153-3.952-49.153-3.952l-1.007,8.487s27.761,11.743,35.621,13.458S-5605.619,2666.189-5603.991,2652.454Z" transform="translate(5757.028 -2511.63)" fill="#ffbd95"/>
          <path id="Trazado_205" data-name="Trazado 205" d="M-5704.149,2646.958s8.2-1.862,10.68-1.737,11.014,2.984,12.972,3.32c3.255.563,13.744-.5,13.667,1.719s-11.615,6.375-11.615,6.375a48.226,48.226,0,0,1-12.874,1.323c-3.915-.255-10.975-1.005-10.975-1.005Z" transform="translate(5721.507 -2502.044)" fill="#ffa47c"/>
          <g id="Grupo_166" data-name="Grupo 166" transform="translate(49.193 1.272)">
            <path id="Trazado_206" data-name="Trazado 206" d="M-5688.182,2603.522c2.473,13.542,10.593,26.22,19.384,25.363,8.4-.816,21.9-15.211,20.563-28.913s-10.612-24-23.216-23.123C-5682.048,2577.587-5690.727,2589.574-5688.182,2603.522Z" transform="translate(5688.629 -2575.236)" fill="#ffbd95"/>
            <path id="Trazado_207" data-name="Trazado 207" d="M-5688.508,2594.3s10.334-8.771,24.517-.718c3.052,1.733,2.079,12.577,2.915,13.31.9.786,2.076-8.709,2.768-7.71,4.991,7.22,4.534,17.821,5.574,17.642,3.155-.544,8.867-19.162,1.018-31.172s-21.869-9.977-24.985-8.469S-5688.566,2582.6-5688.508,2594.3Z" transform="translate(5688.758 -2576.035)" fill="#683a03"/>
            <path id="Trazado_208" data-name="Trazado 208" d="M-5674.492,2592.084c-.222,3.94.44,9.019,2.51,9.136s3.932-2.981,4.156-6.921-1.274-7.231-3.345-7.35S-5674.266,2588.144-5674.492,2592.084Z" transform="translate(5703.447 -2564.568)" fill="#ffbd95"/>
          </g>
          <path id="Trazado_209" data-name="Trazado 209" d="M-5648.941,2589.156s-6.093-17.9-25.535-12.838c-17.514,4.562-14.175,22.033-14.175,22.033a53.228,53.228,0,0,0,24.139-1.265C-5651.616,2593.3-5648.941,2589.156-5648.941,2589.156Z" transform="translate(5737.533 -2575.415)" fill="#ad0b0b"/>
          <path id="Trazado_210" data-name="Trazado 210" d="M-5651.781,2584.574s-16.451,13.587-17.011,13.445-5.288-3.118-15.836-3.118c-6,0-7.837,4.29-8.328,3.8s8.363-11.216,8.363-11.216,1.552,1.518,10.593.685C-5657.676,2586.664-5652.2,2583.542-5651.781,2584.574Z" transform="translate(5733.254 -2566.003)" fill="#9b0000"/>
        </g>
      </g>
    </g>
    <g id="Grupo_177" data-name="Grupo 177" transform="translate(112.746 203.712)">
      <path id="Trazado_216" data-name="Trazado 216" d="M-5624.919,2644.366l-58.415.175-34.233,3.584h66.435Z" transform="translate(5719.268 -2644.366)" fill="#fff"/>
      <path id="Trazado_217" data-name="Trazado 217" d="M-5685.178,2652.06l26.213-3.76v-3.935l-26.213,3.76Z" transform="translate(5753.312 -2644.366)" fill="#8e3900"/>
      <rect id="Rectángulo_167" data-name="Rectángulo 167" width="68.135" height="3.934" transform="translate(0 3.759)" fill="#4f2200"/>
    </g>
    <rect id="Rectángulo_168" data-name="Rectángulo 168" width="2.593" height="28.813" transform="translate(196.561 176.548) rotate(21.864)" fill="#00754b"/>
    <path id="Trazado_218" data-name="Trazado 218" d="M-5682.728,2644.146l2.322.99-2.019,1.517Z" transform="translate(5868.635 -2440.884)"/>
    <path id="Trazado_219" data-name="Trazado 219" d="M-5692.5,2655.408s7.359-2.076,7.575-3.448,7.9-5.4,8.21-6.236-3.446-1.56-6.219-.426a12.417,12.417,0,0,1-5.573.923c-1.035.024-5.387-1.694-8.883.049a6.055,6.055,0,0,0-3.686,5.938C-5700.976,2653.435-5694.778,2657.445-5692.5,2655.408Z" transform="translate(5849.326 -2440.288)" fill="#ffa47c"/>
    <path id="Trazado_220" data-name="Trazado 220" d="M-5650.343,2646.059s-7.676,3.442-10.128,3.807-11.391-.756-13.372-.7c-3.3.091-10.554,6.689-10.917,4.5s6.263-11.244,6.263-11.244,9.294-7.179,13.213-7.034,11.152,1.245,11.152,1.245Z" transform="translate(5866.481 -2450.102)" fill="#ffbd95"/>
    <g id="Grupo_503" data-name="Grupo 503">
      <path id="Unión_1" data-name="Unión 1" d="M2.714,6.214V5.72L1.28,4.286H.786a.786.786,0,1,1,0-1.571h.435L2.714,1.221V.786a.786.786,0,1,1,1.571,0v.441L5.773,2.714h.441a.786.786,0,1,1,0,1.571h-.5L4.286,5.715v.5a.786.786,0,1,1-1.571,0Z" transform="translate(316 117)" fill="#333335"/>
      <path id="Unión_4" data-name="Unión 4" d="M2.714,6.214V5.72L1.28,4.286H.786a.786.786,0,1,1,0-1.571h.435L2.714,1.221V.786a.786.786,0,1,1,1.571,0v.441L5.773,2.714h.441a.786.786,0,1,1,0,1.571h-.5L4.286,5.715v.5a.786.786,0,1,1-1.571,0Z" transform="translate(216 64)" fill="#333335"/>
      <path id="Unión_2" data-name="Unión 2" d="M2.714,6.214V5.72L1.28,4.286H.786a.786.786,0,1,1,0-1.571h.435L2.714,1.221V.786a.786.786,0,1,1,1.571,0v.441L5.773,2.714h.441a.786.786,0,1,1,0,1.571h-.5L4.286,5.715v.5a.786.786,0,1,1-1.571,0Z" transform="translate(55 95)" fill="#333335"/>
      <path id="Unión_3" data-name="Unión 3" d="M2.714,6.214V5.72L1.28,4.286H.786a.786.786,0,1,1,0-1.571h.435L2.714,1.221V.786a.786.786,0,1,1,1.571,0v.441L5.773,2.714h.441a.786.786,0,1,1,0,1.571h-.5L4.286,5.715v.5a.786.786,0,1,1-1.571,0Z" transform="translate(55 148)" fill="#333335"/>
      <rect id="Rectángulo_275" data-name="Rectángulo 275" width="2" height="2" rx="1" transform="translate(323 128)" fill="#333335"/>
      <rect id="Rectángulo_277" data-name="Rectángulo 277" width="2" height="2" rx="1" transform="translate(226 71)" fill="#333335"/>
      <rect id="Rectángulo_276" data-name="Rectángulo 276" width="2" height="2" rx="1" transform="translate(50 105)" fill="#333335"/>
    </g>
  </g>
</svg>
