<svg id="Grupo_439" data-name="Grupo 439" xmlns="http://www.w3.org/2000/svg" xmlns:xlink="http://www.w3.org/1999/xlink" width="274.488" height="172.382" viewBox="0 0 274.488 172.382">
  <defs>
    <clipPath id="clip-path">
      <path id="Trazado_471" data-name="Trazado 471" d="M2253.712-516.353a2.7,2.7,0,0,1-1.912-4.668c9.995-9.459,22.6-20.132,30.971-23.254,3.472-.676,34.5-6.523,66.354-6.523,17.921,0,32.813,1.815,44.366,5.4a2.694,2.694,0,0,1,1.879,2.549c.112,9.975-.57,19.421-1.7,24.164a2.677,2.677,0,0,1-2.632,2.037c-7.787-.034-33.741-.137-62-.137C2289.9-516.784,2267.106-516.607,2253.712-516.353Z" transform="translate(-2250.948 550.798)" fill="none"/>
    </clipPath>
    <clipPath id="clip-path-2">
      <path id="Trazado_472" data-name="Trazado 472" d="M2636.632-532.031s-2.239-13.246,2.8-14.552c0,0,3.99-.766,4.665.186a107.245,107.245,0,0,1,16.231,36.753s-10.634,6.716-15.3,3.172S2636.632-532.031,2636.632-532.031Z" transform="translate(-2636.136 546.874)" fill="none"/>
    </clipPath>
    <clipPath id="clip-path-3">
      <path id="Trazado_473" data-name="Trazado 473" d="M2667.846-538.717a47.455,47.455,0,0,1,21.144,29.974s-8.209,3.109-9.08,2.363-6.965-22.263-12.687-30.471C2667.224-536.852,2665.732-539.091,2667.846-538.717Z" transform="translate(-2666.713 538.759)" fill="none"/>
    </clipPath>
    <clipPath id="clip-path-4">
      <path id="Trazado_489" data-name="Trazado 489" d="M2297.393-294.761c-44.432,1.15-122.638,2.463-156.13-1.253l-.328-.687a6.944,6.944,0,0,1,.374-5.1c1.224-2.447,2.283-5.88,3.178-6.447l.178-.075c.925-.194,2.806-32.476,18.477-36.014,0,0,30.836-12.254,35-10.328s42.536.254,42.536.254,36.327,4.97,44.775,19.4c0,0,9.387,17.91,9.955,27.432Z" transform="translate(-2140.615 354.874)" fill="none"/>
    </clipPath>
  </defs>
  <g id="Grupo_382" data-name="Grupo 382" transform="translate(0.774 87.704)">
    <g id="Grupo_378" data-name="Grupo 378" transform="translate(95.173 21.511)">
      <ellipse id="Elipse_54" data-name="Elipse 54" cx="19.108" cy="26.222" rx="19.108" ry="26.222" fill="#3d4039"/>
      <path id="Trazado_451" data-name="Trazado 451" d="M2410.9-271.33c0,11.636-4.386,21.069-9.8,21.069s-9.8-9.433-9.8-21.069,4.387-21.07,9.8-21.07S2410.9-282.967,2410.9-271.33Z" transform="translate(-2373.262 297.463)" fill="#d6e3dd"/>
    </g>
    <g id="Grupo_379" data-name="Grupo 379" transform="translate(240.396)">
      <path id="Trazado_452" data-name="Trazado 452" d="M2734.164-318.641c0,21.633-6.674,39.171-14.906,39.171s-14.908-17.537-14.908-39.171,6.674-39.171,14.908-39.171S2734.164-340.275,2734.164-318.641Z" transform="translate(-2704.35 357.812)" fill="#3d4039"/>
      <path id="Trazado_453" data-name="Trazado 453" d="M2753.706-297.642c0,14.473-2.627,26.206-5.869,26.206s-5.87-11.733-5.87-26.206,2.626-26.206,5.87-26.206S2753.706-312.115,2753.706-297.642Z" transform="translate(-2726.684 337.646)" fill="#d6e3dd"/>
      <path id="Trazado_454" data-name="Trazado 454" d="M2758.444-282.888c0,9.7-1.762,17.569-3.935,17.569s-3.936-7.866-3.936-17.569,1.761-17.569,3.936-17.569S2758.444-292.591,2758.444-282.888Z" transform="translate(-2731.794 323.758)" fill="#3d4039"/>
      <path id="Trazado_455" data-name="Trazado 455" d="M2760-268.234c0,5.305-.963,9.606-2.152,9.606s-2.153-4.3-2.153-9.606.964-9.606,2.153-9.606S2760-273.539,2760-268.234Z" transform="translate(-2734.837 310.329)" fill="#3d4039"/>
      <path id="Trazado_456" data-name="Trazado 456" d="M2757.653-280.978c0,6.4-1.854,11.587-4.144,11.587s-4.143-5.188-4.143-11.587,1.856-11.587,4.143-11.587S2757.653-287.378,2757.653-280.978Z" transform="translate(-2731.078 319.072)" fill="#3d4039"/>
    </g>
    <g id="Grupo_380" data-name="Grupo 380" transform="translate(0 10.042)">
      <ellipse id="Elipse_55" data-name="Elipse 55" cx="27.194" cy="37.318" rx="27.194" ry="37.318" fill="#3d4039"/>
      <path id="Trazado_457" data-name="Trazado 457" d="M2188.021-283.61c0,17.459-7.322,31.612-16.354,31.612s-16.354-14.154-16.354-31.612,7.323-31.613,16.354-31.613S2188.021-301.07,2188.021-283.61Z" transform="translate(-2137.968 322.483)" fill="#d6e3dd"/>
      <ellipse id="Elipse_56" data-name="Elipse 56" cx="9.499" cy="21.418" rx="9.499" ry="21.418" transform="translate(27.185 19.342)" fill="#3d4039"/>
    </g>
    <g id="Grupo_381" data-name="Grupo 381" transform="translate(179.026 9.545)">
      <ellipse id="Elipse_57" data-name="Elipse 57" cx="24.779" cy="37.318" rx="24.779" ry="37.318" fill="#3d4039"/>
      <path id="Trazado_458" data-name="Trazado 458" d="M2630.842-281.688c0,14.65-5.377,26.526-12.012,26.526s-12.011-11.876-12.011-26.526,5.378-26.527,12.011-26.527S2630.842-296.338,2630.842-281.688Z" transform="translate(-2585.072 318.82)" fill="#d6e3dd"/>
      <path id="Trazado_459" data-name="Trazado 459" d="M2634.209-273.934c0,11.662-4.281,21.116-9.562,21.116s-9.562-9.454-9.562-21.116,4.281-21.116,9.562-21.116S2634.209-285.6,2634.209-273.934Z" transform="translate(-2589.979 311.003)" fill="#3d4039"/>
      <path id="Trazado_460" data-name="Trazado 460" d="M2627.605-277.471l4.543,1.4-.114-7.1-3.713-.607,3.14-4.091-1.376-6.531-3.216,4.775a10.458,10.458,0,0,0-2.692-4.668l-.623-9.617-5.729.115,1.707,9.734a11.924,11.924,0,0,0-2.688,5.281l-5.206-5.5-1.375,7.334,5.726,4.881c0,.028,0,.054,0,.081q0,.625.028,1.234l-5.982-.467v6.073l6.7-.459c.031.128.067.247.1.372l-6.341,5.472,2.291,5.844,5.908-7.012a7.053,7.053,0,0,0,.834,1.008l-1.839,12.691,6.937.273-.209-12.941a7.689,7.689,0,0,0,1.163-1.52l4.624,5.553,1.6-7.219-4.408-3.261C2627.472-276.721,2627.542-277.092,2627.605-277.471Z" transform="translate(-2586.981 316.27)" fill="#d6e3dd"/>
      <path id="Trazado_461" data-name="Trazado 461" d="M2752.619-288.527l1.863,1.32.214-8.3-1.806,1.47,1.644-7.069-.682-7.895-1.6,5.772c-.332-2.518-1.142-15.474-1.142-15.474l-3.021.164s-.5,13.532-.814,16.33l-2.583-6.653-.683,8.864s3.725,7.613,3.733,8.1l-3.846-1.18v7.341l3.324-.555c.767-.951-2.6,7.155-2.6,7.155l1.715,6.248,3.063-11.168c.13.464-1.185,13.17-1.185,13.17l2.9-.694.307-11.924c.206-.494,1.256,7.412,1.256,7.412l1.378-7.5S2752.589-288.068,2752.619-288.527Z" transform="translate(-2666.461 325.046)" fill="#d6e3dd"/>
    </g>
  </g>
  <path id="Trazado_462" data-name="Trazado 462" d="M2381.615-442.564s2.009-38.6-3.4-34.684c0,0-6.723,6.292-6.35,23.884,0,0,.382,21.081-8.39,22.757l-24.551,2.46a53.875,53.875,0,0,0-3.852-33.538s-.627-30.862-9.566-18.356a17.347,17.347,0,0,0-1.558,3.508,102.131,102.131,0,0,0-7.232,41.192l-.05.167a28.41,28.41,0,0,1-.832,2.744l-.02.059a18.674,18.674,0,0,1-3.831,6.733s-12.957.461-32.342.96c-44.427,1.147-122.636,2.46-156.125-1.254-3.195-.343-5.979-.754-8.292-1.2a36.881,36.881,0,0,1-3.949-9.124,14.39,14.39,0,0,1-.52-4.8s.118-33.959,8.693-47.759c0,0-.745-20.15,17.916-25.747,0,0,4.205-3.989,10.429-9.713,15.289-14.094,42.75-38.693,49.64-40.291,0,0,54.855-16.044,119.031-5.6,0,0,19.895-1.744,36.075,19.405a75.886,75.886,0,0,1,6.8,11.242,56.251,56.251,0,0,1,5.626,17.494,1.754,1.754,0,0,0,.128.137c1.018,1.1,8.065,8.792,9.319,11.682,1.451,3.342,4.979,20.375,6.6,27.726C2381.007-482.473,2390.023-453.943,2381.615-442.564Z" transform="translate(-2110.713 573.693)" fill="#004877"/>
  <path id="Trazado_463" data-name="Trazado 463" d="M2419.557-521.939c-1.912.887-19.953,9.1-37.355,11.23a.245.245,0,0,0-.084.027c-.458.239-15,1.675-23.516-4.271a.256.256,0,0,1,.005-.425c1.684-1.027,9.245-5.9,8.433-10.278a.265.265,0,0,0-.261-.21L2203.2-524.277a.246.246,0,0,1-.178-.425c15.37-14.154,42.346-38.27,49.172-39.851,0,0,54.833-16.04,119-5.6.019,0,20.077-1.753,36.1,19.407,0,0,10.479,13.692,12.409,28.546A.253.253,0,0,1,2419.557-521.939Z" transform="translate(-2165.472 573.688)" fill="#004877"/>
  <path id="Trazado_464" data-name="Trazado 464" d="M2190.035-463.543l-4.613,4.119-2.985-1,.747-3.97c5.9-9.769,14.671-6.477,14.671-6.477Z" transform="translate(-2153.299 512.961)" fill="#111"/>
  <path id="Trazado_465" data-name="Trazado 465" d="M2189.821-453.667l-4.4,3.968s-3-.213-2.985-1a8.39,8.39,0,0,1,.765-3.934C2184.539-455.908,2189.821-453.667,2189.821-453.667Z" transform="translate(-2153.299 503.235)"/>
  <path id="Trazado_466" data-name="Trazado 466" d="M2647.84-551.869s-19.587-14.489-19.215,1.555c0,0,3.451,41.705,10.292,48.421,0,0,29.027-5.7,33.286-10.414C2673.738-514.009,2660.349-544.72,2647.84-551.869Z" transform="translate(-2418.215 564.299)" fill="#434443"/>
  <path id="Trazado_467" data-name="Trazado 467" d="M2636.632-532.031s-2.239-13.246,2.8-14.552c0,0,3.99-.766,4.665.186a107.245,107.245,0,0,1,16.231,36.753s-10.634,6.716-15.3,3.172S2636.632-532.031,2636.632-532.031Z" transform="translate(-2422.678 557.77)" fill="#d6e3dd"/>
  <path id="Trazado_468" data-name="Trazado 468" d="M2667.846-538.717a47.455,47.455,0,0,1,21.144,29.974s-8.209,3.109-9.08,2.363-6.965-22.263-12.687-30.471C2667.224-536.852,2665.732-539.091,2667.846-538.717Z" transform="translate(-2440.833 552.952)" fill="#d6e3dd"/>
  <path id="Trazado_469" data-name="Trazado 469" d="M2266.393-555.2c4.91-.964,75.177-14.36,115.867-.065a3.132,3.132,0,0,1,2.077,2.9c.176,8.118.307,36.217-6.4,33.66,0,0-117.314-.571-149.723.534a3.161,3.161,0,0,1-2.356-5.38c9.3-9.391,27.828-27.018,40.011-31.5A3.326,3.326,0,0,1,2266.393-555.2Z" transform="translate(-2178.531 566.643)" fill="#434443"/>
  <path id="Trazado_470" data-name="Trazado 470" d="M2253.712-516.353a2.7,2.7,0,0,1-1.912-4.668c9.995-9.459,22.6-20.132,30.971-23.254,3.472-.676,34.5-6.523,66.354-6.523,17.921,0,32.813,1.815,44.366,5.4a2.694,2.694,0,0,1,1.879,2.549c.112,9.975-.57,19.421-1.7,24.164a2.677,2.677,0,0,1-2.632,2.037c-7.787-.034-33.741-.137-62-.137C2289.9-516.784,2267.106-516.607,2253.712-516.353Z" transform="translate(-2193.977 560.099)" fill="#d6e3dd"/>
  <g id="Grupo_385" data-name="Grupo 385" transform="translate(56.972 9.301)">
    <g id="Grupo_384" data-name="Grupo 384" clip-path="url(#clip-path)">
      <g id="Grupo_383" data-name="Grupo 383" transform="translate(47.523 -14.609)" opacity="0.47">
        <rect id="Rectángulo_222" data-name="Rectángulo 222" width="7.654" height="87.266" transform="translate(57.622 0) rotate(41.323)" fill="#fff"/>
        <rect id="Rectángulo_223" data-name="Rectángulo 223" width="19.925" height="87.266" transform="translate(75.583 0.934) rotate(41.323)" fill="#fff"/>
      </g>
    </g>
  </g>
  <g id="Grupo_388" data-name="Grupo 388" transform="translate(213.458 10.896)">
    <g id="Grupo_387" data-name="Grupo 387" clip-path="url(#clip-path-2)">
      <g id="Grupo_386" data-name="Grupo 386" transform="translate(-8.67 -2.446)" opacity="0.44">
        <rect id="Rectángulo_224" data-name="Rectángulo 224" width="7.432" height="45.247" transform="translate(16.9 0) rotate(21.932)" fill="#fff"/>
        <rect id="Rectángulo_225" data-name="Rectángulo 225" width="4.146" height="45.247" transform="translate(28.527 0.743) rotate(21.932)" fill="#fff"/>
      </g>
    </g>
  </g>
  <g id="Grupo_390" data-name="Grupo 390" transform="translate(225.88 14.192)">
    <g id="Grupo_389" data-name="Grupo 389" clip-path="url(#clip-path-3)">
      <rect id="Rectángulo_226" data-name="Rectángulo 226" width="3.529" height="25.47" transform="translate(12.252 1.487) rotate(20.062)" fill="#fff" opacity="0.47"/>
      <rect id="Rectángulo_227" data-name="Rectángulo 227" width="7.485" height="28.386" transform="translate(16.738 4.37) rotate(17.382)" fill="#fff" opacity="0.47"/>
    </g>
  </g>
  <path id="Trazado_474" data-name="Trazado 474" d="M2644.82-461.947l1.571,4.477s25.558,2.923,32.212-5.224c0,0,1.741-18.532-25.87-12.313-3.033.683-.124,12.437-.124,12.437S2647.556-461.076,2644.82-461.947Z" transform="translate(-2427.834 515.856)" fill="#111"/>
  <path id="Trazado_475" data-name="Trazado 475" d="M2765.356-336.181s2.723-8.785,4.794,3.874.46,25.624-.23,25.624S2770.3-320.569,2765.356-336.181Z" transform="translate(-2499.401 434.435)" fill="#111"/>
  <path id="Trazado_476" data-name="Trazado 476" d="M2632.081-342.415s6.271,1.573,12.544,12.716c0,0,1.054-21.692-5.16-21.692C2639.465-351.391,2634.612-351.7,2632.081-342.415Z" transform="translate(-2420.271 441.704)" fill="#111"/>
  <path id="Trazado_477" data-name="Trazado 477" d="M2764.258-307.022s1.918-36.9-3.245-34.759c0,0-2.739,1.923-5.424,11.667,0,0-1.382-9.676,4.044-14.607a3.213,3.213,0,0,1,5.245,1.642C2766.948-334.845,2770.744-315.8,2764.258-307.022Z" transform="translate(-2493.509 438.226)" fill="#002d56"/>
  <path id="Trazado_478" data-name="Trazado 478" d="M2663.947-296.72" transform="translate(-2439.19 409.243)" fill="none" stroke="#e59c0a" stroke-miterlimit="10" stroke-width="1"/>
  <path id="Trazado_479" data-name="Trazado 479" d="M2650.215-418.035" transform="translate(-2431.037 481.273)" fill="none" stroke="#e59c0a" stroke-miterlimit="10" stroke-width="1"/>
  <path id="Trazado_480" data-name="Trazado 480" d="M2297.393-294.761c-44.432,1.15-122.638,2.463-156.13-1.253l-.328-.687a6.944,6.944,0,0,1,.374-5.1c1.224-2.447,2.283-5.88,3.178-6.447l.178-.075c.925-.194,2.806-32.476,18.477-36.014,0,0,30.836-12.254,35-10.328s42.536.254,42.536.254,36.327,4.97,44.775,19.4c0,0,9.387,17.91,9.955,27.432Z" transform="translate(-2128.467 443.772)" fill="#434443"/>
  <path id="Trazado_481" data-name="Trazado 481" d="M2553.768-323.9s10.633,27.8,0,34.327c0,0-16.978,7.463-17.91-12.686C2535.532-309.27,2544.065-314.194,2553.768-323.9Z" transform="translate(-2363.134 425.379)" fill="#3d4039"/>
  <path id="Trazado_482" data-name="Trazado 482" d="M2554.047-324.814s11.381,26.772-.28,34.7c0,0-16.978,7.463-17.91-12.686C2535.533-309.815,2544.345-315.113,2554.047-324.814Z" transform="translate(-2363.134 425.923)" fill="#002d56"/>
  <path id="Trazado_483" data-name="Trazado 483" d="M2556.135-324.814s11.1,26.678.467,33.208c0,0-16.294,8.4-17.225-11.753C2539.051-310.375,2546.559-312.625,2556.135-324.814Z" transform="translate(-2365.222 425.923)" fill="#3d4039"/>
  <path id="Trazado_484" data-name="Trazado 484" d="M2117.94-321.355c-.531,4.289-3.531,29.032-2.254,30.991,0,0,7,5.69,11.287-.746,4.206-6.309-1.177-22.655-8.507-30.416A.306.306,0,0,0,2117.94-321.355Z" transform="translate(-2113.479 424.029)" fill="#002d56"/>
  <path id="Trazado_485" data-name="Trazado 485" d="M2119.712-310.825c-.785,6.723-2.468,22.152-1.8,25.568a1.345,1.345,0,0,0,.569.83c1.523,1.071,7.212,4.5,10.9-1.033,3.875-5.811-.667-18.214-7.148-26.129A1.437,1.437,0,0,0,2119.712-310.825Z" transform="translate(-2114.897 418.377)" fill="#3d4039"/>
  <path id="Trazado_486" data-name="Trazado 486" d="M2179.035-440.07s160.94-11.981,166.662-7.255c0,0,7.135-5.063,5.477-8.66l-164.117,1.425s-10.945,9.142-10.759,9.888S2177.667-440.132,2179.035-440.07Z" transform="translate(-2149.652 503.805)" fill="#006693"/>
  <path id="Trazado_487" data-name="Trazado 487" d="M2705.384-286.611s.387,21.089-8.389,22.761l-24.549,2.464,1.15-9.513,23.772-2.832s3.537-.388,7.836-16.985a11.388,11.388,0,0,1,.731-2.119A38.123,38.123,0,0,0,2705.384-286.611Z" transform="translate(-2444.238 406.936)" fill="#002d56"/>
  <path id="Trazado_488" data-name="Trazado 488" d="M2624.763-334.518s2.022-27.873,13.042-22.363c2.3,1.15,4.834,6.521,2.532,23.208,0,0-1.075-22.671-6.367-20.944C2633.969-354.618,2630.9-355.385,2624.763-334.518Z" transform="translate(-2415.926 445.391)" fill="#002d56"/>
  <g id="Grupo_393" data-name="Grupo 393" transform="translate(12.148 88.897)">
    <g id="Grupo_392" data-name="Grupo 392" clip-path="url(#clip-path-4)">
      <g id="Grupo_391" data-name="Grupo 391" transform="translate(-10.598 1.289)">
        <line id="Línea_161" data-name="Línea 161" x2="193.069" y2="1.821" fill="none" stroke="#4b4c4b" stroke-miterlimit="10" stroke-width="1"/>
        <line id="Línea_162" data-name="Línea 162" x2="193.069" y2="1.821" transform="translate(0 3.92)" fill="none" stroke="#4b4c4b" stroke-miterlimit="10" stroke-width="1"/>
        <line id="Línea_163" data-name="Línea 163" x2="193.069" y2="1.822" transform="translate(0 7.841)" fill="none" stroke="#4b4c4b" stroke-miterlimit="10" stroke-width="1"/>
        <line id="Línea_164" data-name="Línea 164" x2="193.069" y2="1.821" transform="translate(0 11.761)" fill="none" stroke="#4b4c4b" stroke-miterlimit="10" stroke-width="1"/>
        <line id="Línea_165" data-name="Línea 165" x2="193.069" y2="1.821" transform="translate(0 15.681)" fill="none" stroke="#4b4c4b" stroke-miterlimit="10" stroke-width="1"/>
        <line id="Línea_166" data-name="Línea 166" x2="193.069" y2="1.821" transform="translate(0 19.601)" fill="none" stroke="#4b4c4b" stroke-miterlimit="10" stroke-width="1"/>
        <line id="Línea_167" data-name="Línea 167" x2="193.069" y2="1.822" transform="translate(0 23.521)" fill="none" stroke="#4b4c4b" stroke-miterlimit="10" stroke-width="1"/>
        <line id="Línea_168" data-name="Línea 168" x2="193.069" y2="1.822" transform="translate(0 27.442)" fill="none" stroke="#4b4c4b" stroke-miterlimit="10" stroke-width="1"/>
        <line id="Línea_169" data-name="Línea 169" x2="193.069" y2="1.822" transform="translate(0 31.362)" fill="none" stroke="#4b4c4b" stroke-miterlimit="10" stroke-width="1"/>
        <line id="Línea_170" data-name="Línea 170" x2="193.069" y2="1.822" transform="translate(0 35.282)" fill="none" stroke="#4b4c4b" stroke-miterlimit="10" stroke-width="1"/>
        <line id="Línea_171" data-name="Línea 171" x2="193.069" y2="1.821" transform="translate(0 39.203)" fill="none" stroke="#4b4c4b" stroke-miterlimit="10" stroke-width="1"/>
        <line id="Línea_172" data-name="Línea 172" x2="193.069" y2="1.821" transform="translate(0 43.123)" fill="none" stroke="#4b4c4b" stroke-miterlimit="10" stroke-width="1"/>
        <line id="Línea_173" data-name="Línea 173" x2="193.069" y2="1.822" transform="translate(0 47.043)" fill="none" stroke="#4b4c4b" stroke-miterlimit="10" stroke-width="1"/>
      </g>
    </g>
  </g>
  <path id="Trazado_490" data-name="Trazado 490" d="M2297.393-226.733c-44.432,1.15-122.638,2.463-156.13-1.253l-.328-.687a6.944,6.944,0,0,1,.374-5.1c1.224-2.447,2.283-5.88,3.178-6.447l.178-.075,19.776,5.776s100,2.239,102.608,1.493,28.358-6.522,28.358-6.522l1.118,6.9Z" transform="translate(-2128.467 375.744)" fill="#004877"/>
  <path id="Trazado_491" data-name="Trazado 491" d="M2317.527-238.218l-.046.164-.835,2.746-.015.06a18.766,18.766,0,0,1-3.836,6.731s-12.954.463-32.342.955c-44.432,1.15-122.638,2.463-156.13-1.253-3.194-.343-5.969-.746-8.283-1.194a36.824,36.824,0,0,1-3.955-9.119c4.955,2.03,33.537,12.761,76.834,9.373,0,0,92.54.555,102.982-4.97,3.589-1.9,14.67-6.97,14.67-6.97s1.921,4.167,3.239,4.731C2311.607-236.2,2317.527-238.218,2317.527-238.218Z" transform="translate(-2111.528 376.573)" fill="#002d56"/>
  <path id="Trazado_492" data-name="Trazado 492" d="M2301.345-300.322h-55.472a8.955,8.955,0,0,1-8.954-8.955h0a8.955,8.955,0,0,1,8.954-8.955h55.472a8.956,8.956,0,0,1,8.955,8.955h0A8.956,8.956,0,0,1,2301.345-300.322Z" transform="translate(-2185.647 422.016)" fill="#bfc4c1"/>
  <path id="Trazado_493" data-name="Trazado 493" d="M2665.651-434.476s-9.713,16.71-62.058,4.6c0,0-.892-4.273-2.362-6.233,0,0,19.25,6,54.708-9.869.128-.059.266-.117.394-.176C2657.35-445.06,2664.4-437.367,2665.651-434.476Z" transform="translate(-2401.953 497.97)" fill="#006693"/>
  <path id="Trazado_494" data-name="Trazado 494" d="M2131.98-366.88s-3.233,14.179,19.154,17.661c0,0,32.337-13.184,38.556-13.184C2189.69-362.4,2146.159-371.855,2131.98-366.88Z" transform="translate(-2123.244 451.759)" fill="#002d56"/>
  <path id="Trazado_495" data-name="Trazado 495" d="M2136.786-303.756c1.224-2.448,2.284-5.881,3.18-6.448l.178-.074c.925-.194,2.806-32.477,18.477-36.014,0,0,30.835-12.254,35-10.328s42.536.254,42.536.254,36.327,4.97,44.775,19.4c0,0,9.387,17.91,9.955,27.432l1.985,11.845,2.787.028-1.8-12.209c-.684-10.074-9.889-27.733-10.349-28.6-9.076-15.507-45.4-20.641-46.947-20.852l-.266-.036-.268.012c-.154.006-15.528.67-27.68.67-11.1,0-13.215-.562-13.474-.652a6.041,6.041,0,0,0-2.565-.481c-7.374,0-30.983,9.237-34.581,10.663-14.354,3.473-18.148,25.558-19.774,35.018-.125.722-.259,1.506-.364,2.052a14.677,14.677,0,0,0-2.306,4.344c-.38.914-.774,1.86-1.168,2.649-1.821,3.663-.861,5.773-.861,5.773l3.43.347A5.432,5.432,0,0,1,2136.786-303.756Z" transform="translate(-2123.945 446.702)" fill="#2a2b2a"/>
  <path id="Trazado_496" data-name="Trazado 496" d="M2417.768-358.083s33.581-1.99,48.755-10.448c0,0-34.582-15.671-79.605,2.239Z" transform="translate(-2274.707 455.648)" fill="#002d56"/>
  <path id="Trazado_497" data-name="Trazado 497" d="M2205-398.8s35.352,1.539,38.151.607c0,0,12.314-11.753,29.478-.186,0,0,47.2-.373,51.4-1.12,0,0-10.261,8.613-11.754,14.085,0,0-27.642-.84-33.364,2.145s-24.5,22.605-43.4.466c0,0-22.513-4.7-26.741-4.2C2208.767-387,2207.5-391.337,2205-398.8Z" transform="translate(-2166.698 472.629)" fill="#434443"/>
  <path id="Trazado_498" data-name="Trazado 498" d="M2209.108-379.356l30.16,4.135s16.667,26.119,39.8.249l38.121-3.824,2.456-2.767s-42.257,3.607-44.308,4.727c0,0-17.164,23.009-31.344.186l-36.006-6.561Z" transform="translate(-2168.469 460.596)" fill="#d6e3dd"/>
  <path id="Trazado_499" data-name="Trazado 499" d="M2328.343-372.735c0,4.053-4.566,7.338-10.2,7.338s-10.2-3.285-10.2-7.338,4.566-7.338,10.2-7.338S2328.343-376.788,2328.343-372.735Z" transform="translate(-2227.818 458.733)" fill="#d6e3dd"/>
  <path id="Trazado_500" data-name="Trazado 500" d="M2165.789-398.166s-23.629-4.969-28.608-2.735c0,0-3.98-.255-4.979-1.489,0,0-.381-10.428,6.351-18.367a23.693,23.693,0,0,1,11.565-7.38,72.871,72.871,0,0,0,7.723,11.055h.01c1.6,1.754,3.194,3,4.459,3C2162.31-414.083,2168.279-399.9,2165.789-398.166Z" transform="translate(-2123.469 487.271)" fill="#d6e3dd"/>
  <path id="Trazado_501" data-name="Trazado 501" d="M2523.611-420.1s-3.734,23.875-16.789,18.278c0,0-27.98.372-40.3,1.872,0,0,3.411-11.467,17.151-18.415a45.924,45.924,0,0,1,11.585-3.979s18.15-5.351,19.523-7.341c0,0,7.478,1.538,8.781,6.6A6.491,6.491,0,0,1,2523.611-420.1Z" transform="translate(-2321.971 488.187)" fill="#d6e3dd"/>
  <path id="Trazado_502" data-name="Trazado 502" d="M2167.127-417.082c-.489.029-13.367.863-19.287-3.675a23.694,23.694,0,0,1,11.565-7.38A72.892,72.892,0,0,0,2167.127-417.082Z" transform="translate(-2132.756 487.271)" fill="#fff" opacity="0.62"/>
  <path id="Trazado_503" data-name="Trazado 503" d="M2548.629-423.085l-.107.186s-18.868,11.124-39.782,4.538a45.935,45.935,0,0,1,11.585-3.979s18.151-5.351,19.523-7.341C2539.847-429.681,2547.325-428.143,2548.629-423.085Z" transform="translate(-2347.037 488.187)" fill="#fff" opacity="0.57"/>
  <path id="Trazado_504" data-name="Trazado 504" d="M2709-432.73s14.552,28.917,1.866,78.169" transform="translate(-2465.938 489.998)" fill="none" stroke="#002d56" stroke-miterlimit="10" stroke-width="1"/>
  <path id="Trazado_505" data-name="Trazado 505" d="M2704.846-261.433c-.82,6.075-2.835,13.358-7.851,14.313l-24.549,2.464s1.64-9.782.959-13.579l6.427-6.423s20.716,11.194,23.134,2.985C2703.384-263.09,2704.04-262.836,2704.846-261.433Z" transform="translate(-2444.238 390.206)" fill="#002d56"/>
</svg>
