<svg id="Grupo_437" data-name="Grupo 437" xmlns="http://www.w3.org/2000/svg" xmlns:xlink="http://www.w3.org/1999/xlink" width="288.804" height="180.064" viewBox="0 0 288.804 180.064">
  <defs>
    <clipPath id="clip-path">
      <path id="Trazado_445" data-name="Trazado 445" d="M1324.866,119.273c11.96,7.444,127.191.229,127.191.229a13.263,13.263,0,0,1,3.612-1.039,46.657,46.657,0,0,1,10.981-.042l7.765.875s-5.6-36.551-28.214-36.7c0,0-60.933-2.1-85.8.946a.319.319,0,0,0-.116.016,38.571,38.571,0,0,0-7.985,1.595l-.014.015c-.229.25-3.044,3.192-6.8,7.352C1338.276,100.481,1327.589,112.894,1324.866,119.273Z" transform="translate(-1324.866 -81.887)" fill="none"/>
    </clipPath>
    <clipPath id="clip-path-2">
      <path id="Trazado_449" data-name="Trazado 449" d="M1720.994,139.123s-10.9-34.782-17.61-39.158c0,0-20.7-1.878-23.311,1.545,0,0,14.485,23.668,13.851,29.964,0,0,27.07,7.65,27.078,8.133" transform="translate(-1680.073 -99.45)" fill="none"/>
    </clipPath>
    <clipPath id="clip-path-3">
      <path id="Trazado_450" data-name="Trazado 450" d="M1795.716,147.031s-17.859-6.03-20.615-4.3c0,0-10.987-32.6-19.627-40.641,0,0,12.532,1.331,31.673,20.882C1791.585,127.507,1795.085,145.226,1795.716,147.031Z" transform="translate(-1755.475 -102.093)" fill="none"/>
    </clipPath>
  </defs>
  <path id="Trazado_389" data-name="Trazado 389" d="M1529.216,72.969c.009.639,1.069,1.143,2.366,1.124s2.342-.552,2.334-1.192-1.069-1.143-2.367-1.125S1529.207,72.329,1529.216,72.969Z" transform="translate(-1415.115 -57.049)" fill="#111"/>
  <g id="Grupo_361" data-name="Grupo 361" transform="translate(5.257 107.867)">
    <g id="Grupo_351" data-name="Grupo 351" transform="translate(149.26 0)">
      <ellipse id="Elipse_52" data-name="Elipse 52" cx="22.06" cy="35.784" rx="22.06" ry="35.784" transform="translate(0 0.635) rotate(-0.825)" fill="#3d4039"/>
      <path id="Trazado_390" data-name="Trazado 390" d="M1681.261,357.873c.191,13.257,4.9,23.938,10.525,23.857s10.024-10.893,9.833-24.15-4.9-23.938-10.525-23.857S1681.071,344.617,1681.261,357.873Z" transform="translate(-1659.904 -320.444)" fill="#d6e3dd"/>
      <path id="Trazado_391" data-name="Trazado 391" d="M1683.786,365.237c.15,10.477,3.874,18.919,8.318,18.855s7.922-8.609,7.771-19.086-3.875-18.919-8.318-18.855S1683.635,354.76,1683.786,365.237Z" transform="translate(-1661.404 -327.823)" fill="#3d4039"/>
      <path id="Trazado_392" data-name="Trazado 392" d="M1683.3,369.566l-1.12-8.245,5.627-1.493c.028-.466.078-.915.144-1.353l-5.3-4.782,2.072-6.789,4.382,7.867a5.568,5.568,0,0,1,1.04-1.4l-.615-14.462,4.929.43-1.008,13.769a4.217,4.217,0,0,1,.753.718l3.915-8.149,1.587,5.9-3.919,5.546c.086.313.163.632.229.967l5.593-2.153.307,5.756-5.65.875c-.033.389-.093.756-.153,1.125l5.465,2.578-1.371,5.249-4.943-4.856a6.544,6.544,0,0,1-1.043,1.656l4.619,8.754-3.1,4.718-4.305-12.478a2.907,2.907,0,0,1-.957-.516l-1.3,13.171-4.364-5.556,4.011-10.028a11.533,11.533,0,0,1-.612-1.8Z" transform="translate(-1660.454 -323.522)" fill="#d6e3dd"/>
    </g>
    <g id="Grupo_352" data-name="Grupo 352" transform="translate(115.047 5.876)">
      <path id="Trazado_393" data-name="Trazado 393" d="M1544.488,341.019c.2,13.919,10.11,25.061,22.132,24.888s21.608-11.6,21.407-25.515-10.109-25.061-22.132-24.888S1544.286,327.1,1544.488,341.019Z" transform="translate(-1544.484 -315.502)" fill="#3d4039"/>
      <path id="Trazado_394" data-name="Trazado 394" d="M1590.812,351.1c.151,10.454,4.892,18.862,10.592,18.78s10.2-8.623,10.047-19.077-4.894-18.862-10.592-18.779S1590.661,340.649,1590.812,351.1Z" transform="translate(-1571.989 -325.313)" fill="#d6e3dd"/>
    </g>
    <g id="Grupo_359" data-name="Grupo 359" transform="translate(234.745 2.426)">
      <path id="Trazado_395" data-name="Trazado 395" d="M1839.125,338.061c.224,15.554,9.233,25.617,24.787,25.394s24.231-13.2,24.007-28.756-9.508-27.911-25.062-27.687S1838.9,322.507,1839.125,338.061Z" transform="translate(-1839.12 -307.009)" fill="#3d4039"/>
      <path id="Trazado_396" data-name="Trazado 396" d="M1874.165,351.818c.163,11.343,5.775,18.7,15.438,18.557s15.032-9.59,14.87-20.933-5.95-20.368-15.612-20.229S1874,340.475,1874.165,351.818Z" transform="translate(-1859.926 -320.191)" fill="#d6e3dd"/>
      <path id="Trazado_397" data-name="Trazado 397" d="M1880.133,357.783c.129,9.03,4.648,14.882,12.428,14.77s12.105-7.636,11.975-16.666-4.788-16.214-12.568-16.1S1880,348.753,1880.133,357.783Z" transform="translate(-1863.469 -326.469)" fill="#3d4039"/>
      <path id="Trazado_398" data-name="Trazado 398" d="M1892.673,363.813c.082,5.724,3.64,10.313,7.945,10.251s7.731-4.752,7.647-10.476-3.64-10.313-7.946-10.251S1892.591,358.089,1892.673,363.813Z" transform="translate(-1870.916 -334.515)" fill="#d6e3dd"/>
      <g id="Grupo_353" data-name="Grupo 353" transform="translate(25.271 24.824)">
        <path id="Trazado_399" data-name="Trazado 399" d="M1913.8,369.4a1.269,1.269,0,1,0,1.251-1.287A1.27,1.27,0,0,0,1913.8,369.4Z" transform="translate(-1908.73 -368.114)" fill="#3d4039"/>
        <path id="Trazado_400" data-name="Trazado 400" d="M1901.324,371.143a1.269,1.269,0,1,0,1.251-1.287A1.27,1.27,0,0,0,1901.324,371.143Z" transform="translate(-1901.323 -369.148)" fill="#3d4039"/>
        <path id="Trazado_401" data-name="Trazado 401" d="M1902.875,385.851a1.269,1.269,0,1,0,1.251-1.287A1.269,1.269,0,0,0,1902.875,385.851Z" transform="translate(-1902.245 -377.881)" fill="#3d4039"/>
        <path id="Trazado_402" data-name="Trazado 402" d="M1916.582,384.538a1.269,1.269,0,1,0,1.25-1.288A1.269,1.269,0,0,0,1916.582,384.538Z" transform="translate(-1910.383 -377.101)" fill="#3d4039"/>
      </g>
      <g id="Grupo_358" data-name="Grupo 358" transform="translate(14.308 11.136)">
        <g id="Grupo_354" data-name="Grupo 354" transform="translate(11.607)">
          <path id="Trazado_403" data-name="Trazado 403" d="M1903.383,343.286l3.066-.228.1-8.639-3.645.1Z" transform="translate(-1902.909 -334.419)" fill="#d6e3dd"/>
          <path id="Trazado_404" data-name="Trazado 404" d="M1907.875,399.652l2.95-.3.416,9.14-4.189.316Z" transform="translate(-1905.369 -372.972)" fill="#d6e3dd"/>
        </g>
        <g id="Grupo_355" data-name="Grupo 355" transform="translate(5.984 0.938)">
          <path id="Trazado_405" data-name="Trazado 405" d="M1892.4,395.694l2.719,1.781-2.758,7.927-3.288-1.96Z" transform="translate(-1889.068 -371.738)" fill="#d6e3dd"/>
          <path id="Trazado_406" data-name="Trazado 406" d="M1916.3,345.492l2.589,1.788,3.4-8.116-3.713-2.438Z" transform="translate(-1905.235 -336.727)" fill="#d6e3dd"/>
        </g>
        <g id="Grupo_356" data-name="Grupo 356" transform="translate(0 11.903)">
          <path id="Trazado_407" data-name="Trazado 407" d="M1927.344,365.462l.629,3.7,6.969-1.023-.608-4.427Z" transform="translate(-1905.81 -363.716)" fill="#d6e3dd"/>
          <path id="Trazado_408" data-name="Trazado 408" d="M1881.828,379.948l.67,3.553-7.3,1.725-.862-5.061Z" transform="translate(-1874.339 -373.354)" fill="#d6e3dd"/>
        </g>
        <g id="Grupo_357" data-name="Grupo 357" transform="translate(2.915 3.559)">
          <path id="Trazado_409" data-name="Trazado 409" d="M1889.088,349.295l-1.7,3.061-5.873-5.839,2.419-3.337Z" transform="translate(-1881.513 -343.179)" fill="#d6e3dd"/>
          <path id="Trazado_410" data-name="Trazado 410" d="M1921.176,391.27l-2.1,2.558,5.426,6.3,2.907-3.7Z" transform="translate(-1903.818 -371.733)" fill="#d6e3dd"/>
        </g>
      </g>
    </g>
    <g id="Grupo_360" data-name="Grupo 360" transform="translate(0 6.431)">
      <ellipse id="Elipse_53" data-name="Elipse 53" cx="24.614" cy="30.109" rx="24.614" ry="30.109" transform="translate(0 0.709) rotate(-0.825)" fill="#3d4039"/>
      <path id="Trazado_411" data-name="Trazado 411" d="M1297.188,355.664c.2,14.075,8.01,25.375,17.439,25.239s16.908-11.656,16.7-25.73-8.01-25.374-17.439-25.239S1296.985,341.59,1297.188,355.664Z" transform="translate(-1282.605 -324.625)" fill="#d6e3dd"/>
      <path id="Trazado_412" data-name="Trazado 412" d="M1313.987,363.252c.143,9.9,5.248,17.854,11.4,17.765s11.027-8.186,10.885-18.086-5.247-17.853-11.4-17.765S1313.844,353.352,1313.987,363.252Z" transform="translate(-1292.58 -333.669)" fill="#3d4039"/>
    </g>
  </g>
  <path id="Trazado_413" data-name="Trazado 413" d="M1450.071,396.413s-94.22,4.8-112.011,3.424-15.646-16.1-15.646-16.1l126.832,1.945S1450.031,393.693,1450.071,396.413Z" transform="translate(-1292.28 -242.276)" fill="#2a2b2a"/>
  <path id="Trazado_414" data-name="Trazado 414" d="M1249.515,203.013s4.747.931,5.024-3.7l46.192,1.032,2.467,3.1,35.308.71,2.62-3.433,58.889,1.212.546,1.394a7.791,7.791,0,0,0,6.483,4.919c1.085.109,2.267.216,3.442.3a8.336,8.336,0,0,0,8.813-6.8c1.9-10.235,6.475-29.7,14.661-36.251a9.3,9.3,0,0,1,5.278-2.208s20.734,2.8,7.606,48.212l44.081-1.081s16.6-6.042,18.727-9.22,8.071-49.021,18.276-32.484a15.575,15.575,0,0,1,1.3,6.814l2.58,2.865a68.553,68.553,0,0,0-4.862-22.359c-.226-.548-.466-1.1-.721-1.658a42.962,42.962,0,0,0-13.629-17.532s-32.4-50.788-60.03-55.236c0,0-82.785-14.52-145.692-.557,0,0-23.225,24.272-27.436,34.125-1.067,2.482-6.258,4.66-10.091,6.471-2.248,1.063-4.033,2-4.283,2.8,0,0-4.4,14.15-4.024,20.818a3.644,3.644,0,0,1-.114,1.133,4.118,4.118,0,0,1-1.375,2.268C1255.184,152.446,1244.927,165.534,1249.515,203.013Z" transform="translate(-1248.359 -58.955)" fill="#004877"/>
  <path id="Trazado_415" data-name="Trazado 415" d="M1373.024,377.062l43.051.831-3.546,5.612-35.312-.7Z" transform="translate(-1322.378 -238.31)" fill="none" stroke="#111" stroke-miterlimit="10" stroke-width="1"/>
  <path id="Trazado_416" data-name="Trazado 416" d="M1495.949,78.213a59.142,59.142,0,0,1,14.367,3.372c-1.926-3.846,21.156-2.629,28.925-2.059-22.763-3.11-80.068-9.844-126.391-.452C1412.567,79.572,1471.186,75.326,1495.949,78.213Z" transform="translate(-1346.023 -58.53)" fill="#002d56"/>
  <path id="Trazado_417" data-name="Trazado 417" d="M1873.551,211.243" transform="translate(-1619.561 -139.856)" fill="none" stroke="#111" stroke-miterlimit="10" stroke-width="1"/>
  <path id="Trazado_418" data-name="Trazado 418" d="M1445.252,236.3c-7.849,31.478-4.682,37.89-80.025,37.437,0,0-51.052-.495-60.292-1.592-3.561-.423-3.536-13.2.508-28.758,0,0,9.656,19.233,36.9,21.608S1446.77,230.217,1445.252,236.3Z" transform="translate(-1280.406 -154.335)" fill="#085884"/>
  <path id="Trazado_419" data-name="Trazado 419" d="M1434.6,194.738s-114.288,6.129-122.811,1.653c0,0-2.341,40.463,8.1,41.709,18.976,2.264,73.924,6.543,96.46-2.73C1426.217,231.311,1433.178,196.572,1434.6,194.738Z" transform="translate(-1285.888 -130.057)" fill="#002d56"/>
  <path id="Trazado_420" data-name="Trazado 420" d="M1434.808,221.245s-.646,22.254-10.312,22.635l-47.627.444s-9.151,2.55-7.086-21.9Z" transform="translate(-1320.274 -145.795)" fill="#085884"/>
  <g id="Grupo_365" data-name="Grupo 365" transform="translate(49.387 76.627)">
    <g id="Grupo_364" data-name="Grupo 364">
      <g id="Grupo_362" data-name="Grupo 362">
        <path id="Trazado_421" data-name="Trazado 421" d="M1369.924,225.83c.036-.552.073-1.105.123-1.688l.089,0C1370.056,224.724,1369.987,225.283,1369.924,225.83Z" transform="translate(-1369.924 -224.141)" fill="#eebb2d"/>
      </g>
      <path id="Trazado_422" data-name="Trazado 422" d="M1375.905,260.985l34.8,3.3-33.279.31s-5.509,1.528-7.012-9.212C1371.9,261.662,1375.905,260.985,1375.905,260.985Z" transform="translate(-1370.212 -242.688)" fill="#002d56"/>
      <g id="Grupo_363" data-name="Grupo 363" transform="translate(60.42 13.571)">
        <path id="Trazado_423" data-name="Trazado 423" d="M1520.775,257.547a19.4,19.4,0,0,1-2.129,4.335A27.553,27.553,0,0,0,1520.775,257.547Z" transform="translate(-1518.646 -257.547)" fill="#eebb2d"/>
      </g>
    </g>
  </g>
  <rect id="Rectángulo_214" data-name="Rectángulo 214" width="31.913" height="17.064" rx="1.625" transform="matrix(-1, 0.014, -0.014, -1, 96.237, 95.41)" fill="#d6e3dd"/>
  <path id="Trazado_424" data-name="Trazado 424" d="M1279.291,214.6c.864,1.039,8.768,2.844,13.08,3.778a2.386,2.386,0,0,0,2.88-2.458c-.084-2.01-.363-4.718-.681-7.592-.783-7-1.948-14.842-1.948-14.842.234-1.7-4.756-3.548-4.756-3.548l-.148-.09c-2.254,1.066-4.031,2-4.277,2.793a129.308,129.308,0,0,0-3.314,13.331v.018a33.664,33.664,0,0,0-.722,7.483A3.3,3.3,0,0,1,1279.291,214.6Z" transform="translate(-1266.724 -127.152)" fill="#d6e3dd"/>
  <path id="Trazado_425" data-name="Trazado 425" d="M1700.611,192.073s15.12,34.484,15.908,38.825,1.511,29.356,1.511,29.356l55.6-.322c2.131-3.165,8.071-49.021,18.276-32.485a15.574,15.574,0,0,1,1.3,6.814l2.58,2.865a68.552,68.552,0,0,0-4.862-22.359,2.947,2.947,0,0,0-.721-1.658s-4.7-11.277-23.188-16.48a63.239,63.239,0,0,0-6.491-1.459s-15.883-5.893-32.357-11.488c-.045-.014-.1-.028-.146-.041-15.351-5.2-31.163-10.113-35.059-9.708C1692.965,173.933,1701.481,186.025,1700.611,192.073Z" transform="translate(-1512.34 -117.69)" fill="#002d56"/>
  <path id="Trazado_426" data-name="Trazado 426" d="M1700.611,192.073s15.12,34.484,15.908,38.825,1.511,29.356,1.511,29.356l55.6-.322c2.131-3.165,8.071-49.021,18.276-32.485a15.574,15.574,0,0,1,1.3,6.814l2.58,2.865a68.552,68.552,0,0,0-4.862-22.359,2.947,2.947,0,0,0-.721-1.658s-4.7-11.277-23.188-16.48a63.239,63.239,0,0,0-6.491-1.459s-15.883-5.893-32.357-11.488c-.045-.014-.1-.028-.146-.041-15.351-5.2-31.163-10.113-35.059-9.708C1692.965,173.933,1701.481,186.025,1700.611,192.073Z" transform="translate(-1512.34 -117.69)" fill="#025787"/>
  <g id="Grupo_366" data-name="Grupo 366" transform="translate(180.293 56.238)">
    <path id="Trazado_427" data-name="Trazado 427" d="M1939.866,321.915l-.15-.167c.016-.163.007-.328.013-.491C1939.78,321.47,1939.823,321.688,1939.866,321.915Z" transform="translate(-1839.14 -261.414)" fill="#006693"/>
    <path id="Trazado_428" data-name="Trazado 428" d="M1692.48,173.96c4.382.5,9.473,2.011,15.534,3.766,0,0,8.479,2.518,19.525,5.943.044.014.1.028.146.041,12.576,3.924,28.434,9.006,38.849,12.947,4.828,1.816,9.556,3.094,11.2,4.187,0,0,9.177,8.271,11.991,12.293a2.946,2.946,0,0,1,.72,1.658,69.733,69.733,0,0,1,4.745,20.246c-3.046-37.018-96.766-57.848-100.662-57.444C1694.525,177.6,1691.088,173.8,1692.48,173.96Z" transform="translate(-1692.148 -173.955)" fill="#006693"/>
  </g>
  <path id="Trazado_429" data-name="Trazado 429" d="M1808.437,275.972s-2.6-7.515-30.7-11.143c-8.478-1.094-33.081-7.818-34.048,3.15-.126,1.436-2.092,5.833-3.073,4.88,0,0-11.16-19.424.935-19.115C1741.549,253.744,1819.938,251.869,1808.437,275.972Z" transform="translate(-1537.845 -165.071)" fill="#006693"/>
  <path id="Trazado_430" data-name="Trazado 430" d="M1427.445,198.316s5.958,10.795-20.527,10.088l-53.31.405s-9.423.5-11.372-8.9Z" transform="translate(-1304.098 -132.181)" fill="#002d56"/>
  <rect id="Rectángulo_215" data-name="Rectángulo 215" width="27.199" height="4.17" transform="translate(114.215 23.832) rotate(179.175)" fill="#eebb2d"/>
  <path id="Trazado_431" data-name="Trazado 431" d="M1520.1,50.895l-1.389.416-10.076-15.369,1.389-.416Z" transform="translate(-1402.898 -35.526)" fill="#111"/>
  <path id="Trazado_432" data-name="Trazado 432" d="M1430.206,190.856c.537,2.266,3.955,3.4,7.633,2.523s6.225-3.416,5.688-5.681-3.955-3.4-7.633-2.523S1429.67,188.591,1430.206,190.856Z" transform="translate(-1356.287 -124.204)" fill="#d6e3dd"/>
  <path id="Trazado_433" data-name="Trazado 433" d="M1262.75,373.062l46.193,1.032,2.468,3.1,35.307.71,2.62-3.432,58.888,1.212s-1.122-9.245-19.835-9.26c-28.174-.022-112.69-.8-112.69-.8S1258.833,364.966,1262.75,373.062Z" transform="translate(-1256.554 -231.51)" fill="#3d4039"/>
  <path id="Trazado_434" data-name="Trazado 434" d="M1415.312,366.22l-7.708,12.013-35.966-.783-7.9-11.635S1399.208,365.993,1415.312,366.22Z" transform="translate(-1316.865 -231.632)" fill="#d6e3dd"/>
  <path id="Trazado_435" data-name="Trazado 435" d="M1713.467,338.729s4.994-31.28-16.05-42.611c0,0,7.089-12.63,15.721-3.582C1713.138,292.537,1728.32,298.134,1713.467,338.729Z" transform="translate(-1514.983 -186.185)" fill="#2a2b2a"/>
  <path id="Trazado_436" data-name="Trazado 436" d="M1591.337,217.994l17.419-2.373a5.226,5.226,0,0,0,3.6-2.155c1.013-1.417,2.533-3.505,4.141-5.853,2.077-3.056,4.352-6.539,5.97-9.477a3.947,3.947,0,0,0-3.331-5.838l-17.645-.484a4.4,4.4,0,0,0-4.15,2.661l-6.264,14.74-2.3,5.42A2.434,2.434,0,0,0,1591.337,217.994Z" transform="translate(-1450.365 -128.32)" fill="#d6e3dd"/>
  <path id="Trazado_437" data-name="Trazado 437" d="M1591.337,238.333l17.419-2.373a5.226,5.226,0,0,0,3.6-2.155c1.013-1.417,2.533-3.505,4.141-5.853l-5.046-1.883a79.887,79.887,0,0,1-20.374,3.485l-2.3,5.42A2.434,2.434,0,0,0,1591.337,238.333Z" transform="translate(-1450.365 -148.66)" fill="#fff" opacity="0.57"/>
  <path id="Trazado_438" data-name="Trazado 438" d="M1801.47,206.626a50.615,50.615,0,0,1,7.032,29.144q-.029.488-.069.98c-1.438,17.671-1.321,42.574-1.321,42.574" transform="translate(-1576.764 -137.115)" fill="none" stroke="#002d56" stroke-miterlimit="10" stroke-width="1"/>
  <g id="Grupo_376" data-name="Grupo 376" transform="translate(31.082 16.037)">
    <path id="Trazado_439" data-name="Trazado 439" d="M1324.866,115.184c11.96,7.444,127.191.229,127.191.229,3.2-1.569,8.87-1.608,14.593-1.081a142.35,142.35,0,0,1,17.83,3.022c22.812,5.475,70.228,22.5,74.1,25.046,2.664,1.749,13.76,14.556,13.76,14.556l.03-.914c-2.827-6.893-7.282-14.025-14.349-19.19,0,0-32.4-50.788-60.029-55.236,0,0-3.986-.7-10.89-1.642-.043,0-.073-.013-.1-.013-22.763-3.11-76.857-8.845-123.647-1.034-1,.174-1.968.347-2.952.521a.318.318,0,0,0-.116.016q-4.037.712-7.985,1.595l-.014.015C1351.587,81.809,1329.006,105.491,1324.866,115.184Z" transform="translate(-1324.866 -75)" fill="#434443"/>
    <path id="Trazado_440" data-name="Trazado 440" d="M1324.866,119.273c11.96,7.444,127.191.229,127.191.229a13.263,13.263,0,0,1,3.612-1.039,46.657,46.657,0,0,1,10.981-.042l7.765.875s-5.6-36.551-28.214-36.7c0,0-60.933-2.1-85.8.946a.319.319,0,0,0-.116.016,38.571,38.571,0,0,0-7.985,1.595l-.014.015c-.229.25-3.044,3.192-6.8,7.352C1338.276,100.481,1327.589,112.894,1324.866,119.273Z" transform="translate(-1324.866 -79.089)" fill="#d6e3dd"/>
    <path id="Trazado_441" data-name="Trazado 441" d="M1720.994,139.123s-10.9-34.782-17.61-39.158c0,0-20.7-1.878-23.311,1.545,0,0,14.485,23.668,13.851,29.964,0,0,27.07,7.65,27.078,8.133" transform="translate(-1535.767 -89.517)" fill="#d6e3dd"/>
    <path id="Trazado_442" data-name="Trazado 442" d="M1795.716,147.031s-17.859-6.03-20.615-4.3c0,0-10.987-32.6-19.627-40.641,0,0,12.532,1.331,31.673,20.882C1791.585,127.507,1795.085,145.226,1795.716,147.031Z" transform="translate(-1580.536 -91.086)" fill="#d6e3dd"/>
    <path id="Trazado_443" data-name="Trazado 443" d="M1847.041,169.357c-.325-.539-1.579-2.607-.9.557l4.5,16.8s4.824,1.291,6.136-2.083C1856.781,184.631,1849,172.6,1847.041,169.357Z" transform="translate(-1634.251 -130.334)" fill="#d6e3dd"/>
    <path id="Trazado_444" data-name="Trazado 444" d="M1853.389,194.622s4.244-1.1,5.323,4.509c0,0,1.7,5.68,4.641,3.365,2.244-1.768-.158-10.477-.158-10.477s15.029-5.238,16.039,5.171c.431,4.436-2.937,7.5-15.115,8.2,0,0-6.978.282-8.345-.243C1855.775,205.145,1853.81,196.686,1853.389,194.622Z" transform="translate(-1638.672 -143.697)" fill="#2a2b2a"/>
    <g id="Grupo_369" data-name="Grupo 369" transform="translate(0 2.798)">
      <g id="Grupo_368" data-name="Grupo 368" clip-path="url(#clip-path)">
        <g id="Grupo_367" data-name="Grupo 367" transform="translate(-10.638 -63.02)" opacity="0.51">
          <rect id="Rectángulo_216" data-name="Rectángulo 216" width="31.616" height="183.531" transform="translate(163.713 141.294) rotate(140.341)" fill="#fff"/>
          <rect id="Rectángulo_217" data-name="Rectángulo 217" width="15.808" height="183.531" transform="matrix(-0.77, 0.638, -0.638, -0.77, 129.301, 168.015)" fill="#fff"/>
        </g>
      </g>
    </g>
    <path id="Trazado_446" data-name="Trazado 446" d="M1375.625,91.251a6.385,6.385,0,0,0,1.469-.761c11.5-7.666,68.688-3.559,91.573-4.945,29.248-1.772,16.639,31.2,16.639,31.2l19.389,1.759s-6.264-38.837-28.357-37.174c0,0-57.7-4.093-85.8.946a.317.317,0,0,0-.116.016,38.555,38.555,0,0,0-7.985,1.595l-.014.015C1382.2,84.149,1379.381,87.091,1375.625,91.251Z" transform="translate(-1355.004 -77.826)" fill="#004877"/>
    <path id="Trazado_447" data-name="Trazado 447" d="M1522.528,93.271s18.488.7,19.835,11.139c.6,4.642,4.414,15.532-9.606,16.1,0,0-38.942,4.252-40.9,7.545,0,0,58.015.486,62.583-2.99,3.488-2.654,7.6-29.478-8.851-32.014A64.015,64.015,0,0,0,1522.528,93.271Z" transform="translate(-1424.016 -85.153)" fill="#434443"/>
    <path id="Trazado_448" data-name="Trazado 448" d="M1345.488,95.473c3.755-4.16,6.571-7.1,6.8-7.352l.014-.015a29.927,29.927,0,0,1,5.375-1.236c-1.224,1.307-2.994,3.213-5.075,5.517-7.211,7.967-17.9,20.38-20.621,26.759,11.96,7.444,126.786,1.781,123.688,2.275-1.389.223-2.052,1.6-3.612,1.039,0,0-115.231,7.216-127.191-.229C1327.589,115.853,1338.276,103.44,1345.488,95.473Z" transform="translate(-1324.866 -82.048)" fill="#3d4039"/>
    <g id="Grupo_372" data-name="Grupo 372" transform="translate(144.306 9.933)">
      <g id="Grupo_371" data-name="Grupo 371" clip-path="url(#clip-path-2)">
        <g id="Grupo_370" data-name="Grupo 370" transform="translate(-9.06 -6.781)" opacity="0.51">
          <rect id="Rectángulo_218" data-name="Rectángulo 218" width="10.474" height="60.802" transform="matrix(-0.447, 0.895, -0.895, -0.447, 63.594, 27.159)" fill="#fff"/>
          <rect id="Rectángulo_219" data-name="Rectángulo 219" width="5.237" height="60.802" transform="translate(56.738 39.861) rotate(116.533)" fill="#fff"/>
        </g>
      </g>
    </g>
    <g id="Grupo_375" data-name="Grupo 375" transform="translate(174.939 11.007)">
      <g id="Grupo_374" data-name="Grupo 374" clip-path="url(#clip-path-3)">
        <g id="Grupo_373" data-name="Grupo 373" transform="translate(-9.846 1.535)" opacity="0.51">
          <rect id="Rectángulo_220" data-name="Rectángulo 220" width="10.474" height="60.802" transform="translate(64.084 23.672) rotate(112.913)" fill="#fff"/>
          <rect id="Rectángulo_221" data-name="Rectángulo 221" width="5.237" height="60.802" transform="matrix(-0.389, 0.921, -0.921, -0.389, 58.043, 36.781)" fill="#fff"/>
        </g>
      </g>
    </g>
  </g>
</svg>
