<svg id="Grupo_438" data-name="Grupo 438" xmlns="http://www.w3.org/2000/svg" xmlns:xlink="http://www.w3.org/1999/xlink" width="288.804" height="180.064" viewBox="0 0 288.804 180.064">
  <defs>
    <clipPath id="clip-path">
      <path id="Trazado_383" data-name="Trazado 383" d="M1664.177-504.913c-11.961,7.444-127.19.228-127.19.228a13.289,13.289,0,0,0-3.612-1.038,46.67,46.67,0,0,0-10.981-.042l-7.764.875s5.6-36.551,28.214-36.7c0,0,60.932-2.1,85.8.945a.327.327,0,0,1,.115.016,38.524,38.524,0,0,1,7.985,1.595l.014.015c.229.25,3.044,3.192,6.8,7.352C1650.766-523.7,1661.454-511.292,1664.177-504.913Z" transform="translate(-1514.628 542.298)" fill="none"/>
    </clipPath>
    <clipPath id="clip-path-2">
      <path id="Trazado_387" data-name="Trazado 387" d="M1426.795-485.063s10.9-34.782,17.611-39.158c0,0,20.7-1.878,23.31,1.544,0,0-14.486,23.668-13.851,29.964,0,0-27.07,7.65-27.077,8.133" transform="translate(-1426.788 524.736)" fill="none"/>
    </clipPath>
    <clipPath id="clip-path-3">
      <path id="Trazado_388" data-name="Trazado 388" d="M1353.078-477.154s17.858-6.029,20.614-4.3c0,0,10.988-32.6,19.626-40.64,0,0-12.532,1.331-31.673,20.882C1357.208-496.678,1353.708-478.959,1353.078-477.154Z" transform="translate(-1353.078 522.092)" fill="none"/>
    </clipPath>
  </defs>
  <path id="Trazado_327" data-name="Trazado 327" d="M1671.52-551.217c-.009.639-1.069,1.143-2.366,1.125s-2.342-.552-2.334-1.192,1.069-1.143,2.367-1.124S1671.529-551.856,1671.52-551.217Z" transform="translate(-1496.816 567.136)" fill="#111"/>
  <g id="Grupo_334" data-name="Grupo 334" transform="translate(0 107.867)">
    <g id="Grupo_324" data-name="Grupo 324" transform="translate(89.141 0)">
      <ellipse id="Elipse_50" data-name="Elipse 50" cx="35.784" cy="22.06" rx="35.784" ry="22.06" transform="translate(0 71.561) rotate(-89.175)" fill="#3d4039"/>
      <path id="Trazado_328" data-name="Trazado 328" d="M1496.574-266.313c-.191,13.257-4.9,23.938-10.524,23.857s-10.025-10.893-9.833-24.15,4.9-23.938,10.524-23.857S1496.764-279.569,1496.574-266.313Z" transform="translate(-1472.785 303.741)" fill="#d6e3dd"/>
      <path id="Trazado_329" data-name="Trazado 329" d="M1500.291-258.949c-.151,10.477-3.875,18.919-8.319,18.855s-7.922-8.609-7.771-19.087,3.875-18.919,8.318-18.855S1500.441-269.426,1500.291-258.949Z" transform="translate(-1477.526 296.363)" fill="#3d4039"/>
      <path id="Trazado_330" data-name="Trazado 330" d="M1495.452-254.619l1.12-8.245-5.627-1.493c-.028-.466-.078-.915-.144-1.353l5.3-4.782-2.072-6.789-4.382,7.868a5.589,5.589,0,0,0-1.041-1.4l.615-14.462-4.93.43,1.008,13.768a4.242,4.242,0,0,0-.754.718l-3.914-8.149-1.588,5.9,3.92,5.546c-.086.313-.164.632-.23.967l-5.593-2.153-.307,5.756,5.65.875c.032.39.094.757.153,1.126l-5.465,2.578,1.37,5.249,4.943-4.856a6.54,6.54,0,0,0,1.044,1.657l-4.62,8.754,3.1,4.718,4.3-12.478a2.9,2.9,0,0,0,.957-.516l1.3,13.172,4.364-5.556-4.011-10.028a11.485,11.485,0,0,0,.613-1.8Z" transform="translate(-1473.153 300.663)" fill="#d6e3dd"/>
    </g>
    <g id="Grupo_325" data-name="Grupo 325" transform="translate(124.955 5.876)">
      <path id="Trazado_331" data-name="Trazado 331" d="M1599.475-283.166c-.2,13.919-10.109,25.061-22.132,24.888s-21.608-11.6-21.407-25.515,10.11-25.061,22.133-24.888S1599.676-297.084,1599.475-283.166Z" transform="translate(-1555.932 308.683)" fill="#3d4039"/>
      <path id="Trazado_332" data-name="Trazado 332" d="M1586.619-273.083c-.151,10.454-4.893,18.862-10.593,18.78s-10.2-8.623-10.046-19.077,4.893-18.862,10.592-18.78S1586.77-283.537,1586.619-273.083Z" transform="translate(-1561.896 298.873)" fill="#d6e3dd"/>
    </g>
    <g id="Grupo_332" data-name="Grupo 332" transform="translate(0 2.425)">
      <path id="Trazado_333" data-name="Trazado 333" d="M1297.156-286.125c-.224,15.554-9.233,25.618-24.786,25.394s-24.231-13.2-24.007-28.756,9.508-27.911,25.062-27.687S1297.381-301.679,1297.156-286.125Z" transform="translate(-1248.359 317.177)" fill="#3d4039"/>
      <path id="Trazado_334" data-name="Trazado 334" d="M1289.135-272.368c-.163,11.343-5.776,18.7-15.438,18.557s-15.033-9.59-14.869-20.933,5.95-20.369,15.612-20.23S1289.3-283.711,1289.135-272.368Z" transform="translate(-1254.573 303.995)" fill="#d6e3dd"/>
      <path id="Trazado_335" data-name="Trazado 335" d="M1291.8-266.4c-.13,9.029-4.648,14.882-12.428,14.77s-12.105-7.637-11.975-16.666,4.787-16.214,12.568-16.1S1291.928-275.432,1291.8-266.4Z" transform="translate(-1259.66 297.717)" fill="#3d4039"/>
      <path id="Trazado_336" data-name="Trazado 336" d="M1292.138-260.373c-.082,5.723-3.64,10.313-7.945,10.251s-7.73-4.752-7.648-10.476,3.64-10.313,7.946-10.251S1292.22-266.1,1292.138-260.373Z" transform="translate(-1265.093 289.671)" fill="#d6e3dd"/>
      <g id="Grupo_326" data-name="Grupo 326" transform="translate(14.794 24.824)">
        <path id="Trazado_337" data-name="Trazado 337" d="M1290.1-254.785a1.269,1.269,0,0,1-1.287,1.251,1.269,1.269,0,0,1-1.251-1.287,1.27,1.27,0,0,1,1.288-1.251A1.269,1.269,0,0,1,1290.1-254.785Z" transform="translate(-1286.428 256.072)" fill="#3d4039"/>
        <path id="Trazado_338" data-name="Trazado 338" d="M1302.571-253.042a1.269,1.269,0,0,1-1.288,1.25,1.269,1.269,0,0,1-1.25-1.287,1.269,1.269,0,0,1,1.287-1.251A1.27,1.27,0,0,1,1302.571-253.042Z" transform="translate(-1293.834 255.038)" fill="#3d4039"/>
        <path id="Trazado_339" data-name="Trazado 339" d="M1301.019-238.334a1.27,1.27,0,0,1-1.287,1.251,1.269,1.269,0,0,1-1.251-1.288,1.269,1.269,0,0,1,1.287-1.251A1.269,1.269,0,0,1,1301.019-238.334Z" transform="translate(-1292.913 246.305)" fill="#3d4039"/>
        <path id="Trazado_340" data-name="Trazado 340" d="M1287.313-239.648a1.27,1.27,0,0,1-1.288,1.251,1.269,1.269,0,0,1-1.251-1.288,1.269,1.269,0,0,1,1.287-1.251A1.27,1.27,0,0,1,1287.313-239.648Z" transform="translate(-1284.775 247.085)" fill="#3d4039"/>
      </g>
      <g id="Grupo_331" data-name="Grupo 331" transform="translate(5.362 11.136)">
        <g id="Grupo_327" data-name="Grupo 327" transform="translate(11.653)">
          <path id="Trazado_341" data-name="Trazado 341" d="M1298.9-280.9l-3.066-.228-.1-8.639,3.644.1Z" transform="translate(-1293.498 289.767)" fill="#d6e3dd"/>
          <path id="Trazado_342" data-name="Trazado 342" d="M1293.608-224.534l-2.95-.3-.416,9.14,4.189.316Z" transform="translate(-1290.242 251.214)" fill="#d6e3dd"/>
        </g>
        <g id="Grupo_328" data-name="Grupo 328" transform="translate(6.099 0.938)">
          <path id="Trazado_343" data-name="Trazado 343" d="M1306.373-228.492l-2.719,1.782,2.758,7.927,3.288-1.961Z" transform="translate(-1292.651 252.448)" fill="#d6e3dd"/>
          <path id="Trazado_344" data-name="Trazado 344" d="M1282.557-278.693l-2.588,1.788-3.4-8.116,3.713-2.438Z" transform="translate(-1276.571 287.459)" fill="#d6e3dd"/>
        </g>
        <g id="Grupo_329" data-name="Grupo 329" transform="translate(0 11.903)">
          <path id="Trazado_345" data-name="Trazado 345" d="M1269.156-258.724l-.629,3.7-6.97-1.023.608-4.427Z" transform="translate(-1261.558 260.469)" fill="#d6e3dd"/>
          <path id="Trazado_346" data-name="Trazado 346" d="M1313.851-244.237l-.671,3.553,7.3,1.725.862-5.061Z" transform="translate(-1292.208 250.832)" fill="#d6e3dd"/>
        </g>
        <g id="Grupo_330" data-name="Grupo 330" transform="translate(2.623 3.559)">
          <path id="Trazado_347" data-name="Trazado 347" d="M1307.445-274.891l1.7,3.061,5.873-5.84-2.419-3.337Z" transform="translate(-1291.426 281.006)" fill="#d6e3dd"/>
          <path id="Trazado_348" data-name="Trazado 348" d="M1274.251-232.916l2.1,2.558-5.425,6.3-2.907-3.705Z" transform="translate(-1268.015 252.453)" fill="#d6e3dd"/>
        </g>
      </g>
    </g>
    <g id="Grupo_333" data-name="Grupo 333" transform="translate(233.458 6.431)">
      <ellipse id="Elipse_51" data-name="Elipse 51" cx="30.109" cy="24.614" rx="30.109" ry="24.614" transform="translate(0 60.211) rotate(-89.175)" fill="#3d4039"/>
      <path id="Trazado_349" data-name="Trazado 349" d="M1860.5-268.521c-.2,14.074-8.01,25.374-17.439,25.238s-16.907-11.656-16.7-25.73,8.01-25.374,17.439-25.238S1860.707-282.6,1860.5-268.521Z" transform="translate(-1824.998 299.56)" fill="#d6e3dd"/>
      <path id="Trazado_350" data-name="Trazado 350" d="M1861.038-260.934c-.142,9.9-5.248,17.853-11.4,17.765s-11.026-8.186-10.885-18.086,5.248-17.854,11.4-17.765S1861.181-270.834,1861.038-260.934Z" transform="translate(-1832.355 290.517)" fill="#3d4039"/>
    </g>
  </g>
  <path id="Trazado_351" data-name="Trazado 351" d="M1570.847-227.773s94.219,4.8,112.011,3.424,15.646-16.1,15.646-16.1L1571.673-238.5S1570.887-230.493,1570.847-227.773Z" transform="translate(-1439.833 381.91)" fill="#2a2b2a"/>
  <path id="Trazado_352" data-name="Trazado 352" d="M1543.832-421.172s-4.747.931-5.023-3.7l-46.193,1.032-2.467,3.1-35.307.71-2.62-3.432-58.889,1.212-.546,1.394a7.793,7.793,0,0,1-6.482,4.92c-1.086.109-2.267.216-3.443.3a8.336,8.336,0,0,1-8.812-6.8c-1.9-10.235-6.476-29.7-14.662-36.25a9.3,9.3,0,0,0-5.278-2.208s-20.735,2.8-7.606,48.212l-44.081-1.081s-16.6-6.042-18.727-9.221-8.071-49.021-18.276-32.485a15.574,15.574,0,0,0-1.3,6.814l-2.58,2.864a68.554,68.554,0,0,1,4.862-22.359c.226-.548.466-1.1.721-1.658a42.963,42.963,0,0,1,13.628-17.532s32.4-50.789,60.03-55.236c0,0,82.786-14.519,145.692-.557,0,0,23.225,24.272,27.436,34.125,1.066,2.482,6.257,4.66,10.091,6.471,2.248,1.063,4.033,2,4.283,2.8,0,0,4.395,14.15,4.024,20.818a3.673,3.673,0,0,0,.114,1.134,4.124,4.124,0,0,0,1.375,2.268C1538.162-471.74,1548.42-458.651,1543.832-421.172Z" transform="translate(-1256.184 565.231)" fill="#004877"/>
  <path id="Trazado_353" data-name="Trazado 353" d="M1771.663-247.124l-43.051.831,3.546,5.612,35.312-.7Z" transform="translate(-1533.505 385.876)" fill="none" stroke="#111" stroke-miterlimit="10" stroke-width="1"/>
  <path id="Trazado_354" data-name="Trazado 354" d="M1526.935-545.973a59.142,59.142,0,0,0-14.367,3.373c1.927-3.846-21.156-2.629-28.925-2.059,22.763-3.11,80.067-9.844,126.391-.452C1610.317-544.614,1551.7-548.86,1526.935-545.973Z" transform="translate(-1388.057 565.656)" fill="#002d56"/>
  <path id="Trazado_355" data-name="Trazado 355" d="M1334.054-412.943" transform="translate(-1299.239 484.329)" fill="none" stroke="#111" stroke-miterlimit="10" stroke-width="1"/>
  <path id="Trazado_356" data-name="Trazado 356" d="M1553.448-387.882c7.849,31.478,4.681,37.89,80.024,37.437,0,0,51.052-.494,60.293-1.592,3.561-.423,3.535-13.2-.509-28.758,0,0-9.656,19.234-36.9,21.608S1551.93-393.968,1553.448-387.882Z" transform="translate(-1429.49 469.85)" fill="#085884"/>
  <path id="Trazado_357" data-name="Trazado 357" d="M1593.188-429.447s114.289,6.129,122.811,1.652c0,0,2.342,40.463-8.1,41.708-18.977,2.264-73.924,6.544-96.46-2.73C1601.574-392.875,1594.612-427.613,1593.188-429.447Z" transform="translate(-1453.098 494.129)" fill="#002d56"/>
  <path id="Trazado_358" data-name="Trazado 358" d="M1677.32-402.941s.647,22.254,10.313,22.635l47.627.444s9.151,2.55,7.086-21.9Z" transform="translate(-1503.051 478.391)" fill="#085884"/>
  <g id="Grupo_338" data-name="Grupo 338" transform="translate(176.869 76.626)">
    <g id="Grupo_337" data-name="Grupo 337">
      <g id="Grupo_335" data-name="Grupo 335" transform="translate(62.336)">
        <path id="Trazado_359" data-name="Trazado 359" d="M1837.371-398.356c-.037-.552-.074-1.106-.124-1.688l-.09,0C1837.239-399.461,1837.308-398.9,1837.371-398.356Z" transform="translate(-1837.157 400.045)" fill="#eebb2d"/>
      </g>
      <path id="Trazado_360" data-name="Trazado 360" d="M1772.813-363.2l-34.8,3.3,33.281.31s5.508,1.527,7.012-9.212C1776.823-362.523,1772.813-363.2,1772.813-363.2Z" transform="translate(-1715.958 381.498)" fill="#002d56"/>
      <g id="Grupo_336" data-name="Grupo 336" transform="translate(0 13.572)">
        <path id="Trazado_361" data-name="Trazado 361" d="M1683.719-366.638a19.385,19.385,0,0,0,2.128,4.335A27.626,27.626,0,0,1,1683.719-366.638Z" transform="translate(-1683.719 366.638)" fill="#eebb2d"/>
      </g>
    </g>
  </g>
  <rect id="Rectángulo_206" data-name="Rectángulo 206" width="31.913" height="17.064" rx="1.625" transform="matrix(1, 0.014, -0.014, 1, 192.813, 78.348)" fill="#d6e3dd"/>
  <path id="Trazado_362" data-name="Trazado 362" d="M1904.984-409.588c-.863,1.039-8.768,2.844-13.08,3.779a2.386,2.386,0,0,1-2.879-2.459c.085-2.01.363-4.718.681-7.591.783-7,1.948-14.842,1.948-14.842-.234-1.7,4.756-3.548,4.756-3.548l.149-.09c2.254,1.066,4.031,2,4.276,2.792a129.136,129.136,0,0,1,3.314,13.331v.019a33.6,33.6,0,0,1,.723,7.482A3.315,3.315,0,0,0,1904.984-409.588Z" transform="translate(-1628.747 497.034)" fill="#d6e3dd"/>
  <path id="Trazado_363" data-name="Trazado 363" d="M1356.718-432.113s-15.12,34.484-15.909,38.825-1.511,29.356-1.511,29.356l-55.6-.322c-2.13-3.164-8.071-49.021-18.276-32.485a15.574,15.574,0,0,0-1.3,6.815l-2.58,2.864a68.554,68.554,0,0,1,4.862-22.359,2.938,2.938,0,0,1,.721-1.658s4.7-11.277,23.188-16.48a63.285,63.285,0,0,1,6.492-1.459s15.883-5.893,32.357-11.488c.043-.014.1-.027.146-.041,15.351-5.2,31.163-10.113,35.059-9.708C1364.363-450.253,1355.847-438.16,1356.718-432.113Z" transform="translate(-1256.184 506.496)" fill="#002d56"/>
  <path id="Trazado_364" data-name="Trazado 364" d="M1356.718-432.113s-15.12,34.484-15.909,38.825-1.511,29.356-1.511,29.356l-55.6-.322c-2.13-3.164-8.071-49.021-18.276-32.485a15.574,15.574,0,0,0-1.3,6.815l-2.58,2.864a68.554,68.554,0,0,1,4.862-22.359,2.938,2.938,0,0,1,.721-1.658s4.7-11.277,23.188-16.48a63.285,63.285,0,0,1,6.492-1.459s15.883-5.893,32.357-11.488c.043-.014.1-.027.146-.041,15.351-5.2,31.163-10.113,35.059-9.708C1364.363-450.253,1355.847-438.16,1356.718-432.113Z" transform="translate(-1256.184 506.496)" fill="#025787"/>
  <g id="Grupo_339" data-name="Grupo 339" transform="translate(5.472 56.238)">
    <path id="Trazado_365" data-name="Trazado 365" d="M1267.518-302.271l.15-.167c-.016-.163-.007-.327-.014-.491C1267.6-302.716,1267.561-302.5,1267.518-302.271Z" transform="translate(-1265.206 362.772)" fill="#006693"/>
    <path id="Trazado_366" data-name="Trazado 366" d="M1364.535-450.226c-4.381.5-9.474,2.01-15.534,3.766,0,0-8.48,2.518-19.526,5.942-.044.014-.1.027-.146.041-12.576,3.924-28.433,9.006-38.848,12.947-4.828,1.816-9.556,3.094-11.2,4.188,0,0-9.177,8.271-11.992,12.293a2.941,2.941,0,0,0-.72,1.658,69.7,69.7,0,0,0-4.745,20.245c3.046-37.017,96.766-57.848,100.662-57.444C1362.489-446.589,1365.926-450.383,1364.535-450.226Z" transform="translate(-1261.827 450.231)" fill="#006693"/>
  </g>
  <path id="Trazado_367" data-name="Trazado 367" d="M1291.5-348.214s2.6-7.515,30.7-11.143c8.478-1.094,33.081-7.818,34.047,3.15.126,1.436,2.092,5.833,3.073,4.88,0,0,11.16-19.424-.934-19.115C1358.39-370.442,1280-372.317,1291.5-348.214Z" transform="translate(-1273.29 459.115)" fill="#006693"/>
  <path id="Trazado_368" data-name="Trazado 368" d="M1654.791-425.87s-5.958,10.8,20.527,10.088l53.31.405s9.422.5,11.372-8.9Z" transform="translate(-1489.333 492.005)" fill="#002d56"/>
  <rect id="Rectángulo_207" data-name="Rectángulo 207" width="27.199" height="4.17" transform="translate(174.65 19.662) rotate(0.825)" fill="#eebb2d"/>
  <path id="Trazado_369" data-name="Trazado 369" d="M1670.744-573.291l1.389.416,10.076-15.369-1.39-.416Z" transform="translate(-1499.146 588.66)" fill="#111"/>
  <path id="Trazado_370" data-name="Trazado 370" d="M1757.721-433.329c-.537,2.265-3.955,3.4-7.633,2.523s-6.225-3.416-5.688-5.682,3.955-3.4,7.633-2.523S1758.259-435.595,1757.721-433.329Z" transform="translate(-1542.837 499.982)" fill="#d6e3dd"/>
  <path id="Trazado_371" data-name="Trazado 371" d="M1731.382-251.123l-46.192,1.032-2.467,3.1-35.307.71-2.619-3.432-58.889,1.212s1.122-9.245,19.834-9.26c28.174-.022,112.691-.8,112.691-.8S1735.3-259.22,1731.382-251.123Z" transform="translate(-1448.775 392.676)" fill="#3d4039"/>
  <path id="Trazado_372" data-name="Trazado 372" d="M1716.92-257.965l7.709,12.014,35.966-.784,7.9-11.635S1733.024-258.192,1716.92-257.965Z" transform="translate(-1526.563 392.553)" fill="#d6e3dd"/>
  <path id="Trazado_373" data-name="Trazado 373" d="M1461.156-285.456s-4.994-31.281,16.05-42.611c0,0-7.089-12.631-15.72-3.582C1461.486-331.649,1446.3-326.051,1461.156-285.456Z" transform="translate(-1370.836 438)" fill="#2a2b2a"/>
  <path id="Trazado_374" data-name="Trazado 374" d="M1566.034-406.191l-17.42-2.372a5.228,5.228,0,0,1-3.6-2.155c-1.012-1.417-2.533-3.505-4.141-5.853-2.078-3.056-4.352-6.539-5.971-9.477a3.948,3.948,0,0,1,3.332-5.838l17.644-.484a4.4,4.4,0,0,1,4.15,2.661l6.264,14.739,2.3,5.42A2.434,2.434,0,0,1,1566.034-406.191Z" transform="translate(-1418.202 495.865)" fill="#d6e3dd"/>
  <path id="Trazado_375" data-name="Trazado 375" d="M1575.469-385.852l-17.42-2.373a5.227,5.227,0,0,1-3.6-2.155c-1.012-1.417-2.532-3.505-4.14-5.853l5.045-1.883a79.871,79.871,0,0,0,20.374,3.485l2.3,5.42A2.434,2.434,0,0,1,1575.469-385.852Z" transform="translate(-1427.637 475.526)" fill="#fff" opacity="0.57"/>
  <path id="Trazado_376" data-name="Trazado 376" d="M1395.718-417.559a50.615,50.615,0,0,0-7.033,29.143q.03.488.071.98c1.438,17.671,1.321,42.574,1.321,42.574" transform="translate(-1331.62 487.07)" fill="none" stroke="#002d56" stroke-miterlimit="10" stroke-width="1"/>
  <g id="Grupo_349" data-name="Grupo 349" transform="translate(10.217 16.037)">
    <path id="Trazado_377" data-name="Trazado 377" d="M1521.013-509c-11.961,7.444-127.19.228-127.19.228-3.2-1.569-8.87-1.607-14.594-1.081a142.322,142.322,0,0,0-17.829,3.022c-22.812,5.474-70.228,22.5-74.1,25.046-2.664,1.749-13.759,14.556-13.759,14.556l-.03-.914c2.827-6.894,7.282-14.025,14.349-19.19,0,0,32.4-50.788,60.03-55.236,0,0,3.985-.7,10.889-1.642.044,0,.073-.013.1-.013,22.764-3.11,76.858-8.846,123.648-1.034,1,.174,1.968.347,2.952.521a.326.326,0,0,1,.116.016q4.038.711,7.985,1.6l.014.015C1494.291-542.377,1516.873-518.695,1521.013-509Z" transform="translate(-1273.507 549.186)" fill="#434443"/>
    <path id="Trazado_378" data-name="Trazado 378" d="M1664.177-504.913c-11.961,7.444-127.19.228-127.19.228a13.289,13.289,0,0,0-3.612-1.038,46.67,46.67,0,0,0-10.981-.042l-7.764.875s5.6-36.551,28.214-36.7c0,0,60.932-2.1,85.8.945a.327.327,0,0,1,.115.016,38.524,38.524,0,0,1,7.985,1.595l.014.015c.229.25,3.044,3.192,6.8,7.352C1650.766-523.7,1661.454-511.292,1664.177-504.913Z" transform="translate(-1416.671 545.096)" fill="#d6e3dd"/>
    <path id="Trazado_379" data-name="Trazado 379" d="M1426.795-485.063s10.9-34.782,17.611-39.158c0,0,20.7-1.878,23.31,1.544,0,0-14.486,23.668-13.851,29.964,0,0-27.07,7.65-27.077,8.133" transform="translate(-1364.516 534.669)" fill="#d6e3dd"/>
    <path id="Trazado_380" data-name="Trazado 380" d="M1353.078-477.154s17.858-6.029,20.614-4.3c0,0,10.988-32.6,19.626-40.64,0,0-12.532,1.331-31.673,20.882C1357.208-496.678,1353.708-478.959,1353.078-477.154Z" transform="translate(-1320.751 533.099)" fill="#d6e3dd"/>
    <path id="Trazado_381" data-name="Trazado 381" d="M1344.724-454.829c.325-.539,1.579-2.606.9.557l-4.5,16.8s-4.824,1.29-6.135-2.083C1334.984-439.555,1342.769-451.585,1344.724-454.829Z" transform="translate(-1310.009 493.852)" fill="#d6e3dd"/>
    <path id="Trazado_382" data-name="Trazado 382" d="M1316.392-429.564s-4.245-1.1-5.323,4.51c0,0-1.7,5.68-4.641,3.365-2.244-1.768.157-10.477.157-10.477s-15.029-5.237-16.039,5.171c-.43,4.436,2.937,7.5,15.115,8.2,0,0,6.978.282,8.345-.243C1314.006-419.041,1315.97-427.5,1316.392-429.564Z" transform="translate(-1283.603 480.488)" fill="#2a2b2a"/>
    <g id="Grupo_342" data-name="Grupo 342" transform="translate(97.958 2.798)">
      <g id="Grupo_341" data-name="Grupo 341" clip-path="url(#clip-path)">
        <g id="Grupo_340" data-name="Grupo 340" transform="translate(-3.527 -63.02)" opacity="0.51">
          <rect id="Rectángulo_208" data-name="Rectángulo 208" width="31.616" height="183.531" transform="translate(117.132 0) rotate(39.659)" fill="#fff"/>
          <rect id="Rectángulo_209" data-name="Rectángulo 209" width="15.808" height="183.531" transform="matrix(0.77, 0.638, -0.638, 0.77, 151.543, 26.721)" fill="#fff"/>
        </g>
      </g>
    </g>
    <path id="Trazado_384" data-name="Trazado 384" d="M1643.347-532.935a6.352,6.352,0,0,1-1.469-.761c-11.5-7.666-68.688-3.559-91.573-4.945-29.247-1.771-16.639,31.2-16.639,31.2l-19.389,1.759s6.264-38.837,28.356-37.173c0,0,57.7-4.094,85.8.945a.329.329,0,0,1,.116.016,38.548,38.548,0,0,1,7.986,1.595l.015.015C1636.776-540.037,1639.591-537.094,1643.347-532.935Z" transform="translate(-1416.462 546.36)" fill="#004877"/>
    <path id="Trazado_385" data-name="Trazado 385" d="M1588.993-530.915s-18.487.7-19.834,11.139c-.6,4.642-4.413,15.532,9.6,16.1,0,0,38.942,4.252,40.9,7.545,0,0-58.014.486-62.582-2.989-3.49-2.654-7.6-29.478,8.85-32.014A64.013,64.013,0,0,1,1588.993-530.915Z" transform="translate(-1439.998 539.033)" fill="#434443"/>
    <path id="Trazado_386" data-name="Trazado 386" d="M1670.862-528.713c-3.756-4.16-6.571-7.1-6.8-7.352l-.014-.015a29.972,29.972,0,0,0-5.375-1.237c1.223,1.307,2.994,3.214,5.074,5.518,7.212,7.966,17.9,20.379,20.622,26.758-11.96,7.444-126.785,1.781-123.687,2.276,1.389.222,2.052,1.6,3.612,1.038,0,0,115.23,7.215,127.19-.228C1688.761-508.333,1678.073-520.746,1670.862-528.713Z" transform="translate(-1443.978 542.138)" fill="#3d4039"/>
    <g id="Grupo_345" data-name="Grupo 345" transform="translate(62.272 9.933)">
      <g id="Grupo_344" data-name="Grupo 344" clip-path="url(#clip-path-2)">
        <g id="Grupo_343" data-name="Grupo 343" transform="translate(-13.606 -6.781)" opacity="0.51">
          <rect id="Rectángulo_210" data-name="Rectángulo 210" width="10.474" height="60.802" transform="matrix(0.447, 0.895, -0.895, 0.447, 54.399, 0)" fill="#fff"/>
          <rect id="Rectángulo_211" data-name="Rectángulo 211" width="5.237" height="60.802" transform="translate(61.255 12.701) rotate(63.467)" fill="#fff"/>
        </g>
      </g>
    </g>
    <g id="Grupo_348" data-name="Grupo 348" transform="translate(32.326 11.007)">
      <g id="Grupo_347" data-name="Grupo 347" clip-path="url(#clip-path-3)">
        <g id="Grupo_346" data-name="Grupo 346" transform="translate(-13.998 1.535)" opacity="0.51">
          <rect id="Rectángulo_212" data-name="Rectángulo 212" width="10.474" height="60.802" transform="translate(56.005 0) rotate(67.087)" fill="#fff"/>
          <rect id="Rectángulo_213" data-name="Rectángulo 213" width="5.237" height="60.802" transform="matrix(0.389, 0.921, -0.921, 0.389, 62.045, 13.108)" fill="#fff"/>
        </g>
      </g>
    </g>
  </g>
</svg>
