<svg xmlns="http://www.w3.org/2000/svg" xmlns:xlink="http://www.w3.org/1999/xlink" width="274.487" height="172.382" viewBox="0 0 274.487 172.382">
  <defs>
    <clipPath id="clip-path">
      <path id="Trazado_526" data-name="Trazado 526" d="M2432.274,149.235a2.7,2.7,0,0,0,1.912-4.668c-10-9.459-22.6-20.132-30.971-23.253-3.473-.676-34.5-6.523-66.354-6.523-17.92,0-32.813,1.815-44.365,5.4a2.694,2.694,0,0,0-1.879,2.549c-.112,9.975.569,19.421,1.7,24.164a2.676,2.676,0,0,0,2.632,2.037c7.787-.034,33.74-.137,62-.137C2396.084,148.8,2418.879,148.981,2432.274,149.235Z" transform="translate(-2290.604 -114.79)" fill="none"/>
    </clipPath>
    <clipPath id="clip-path-2">
      <path id="Trazado_527" data-name="Trazado 527" d="M2225.088,133.557s2.239-13.246-2.8-14.552c0,0-3.99-.766-4.665.187a107.238,107.238,0,0,0-16.231,36.753s10.635,6.716,15.3,3.172S2225.088,133.557,2225.088,133.557Z" transform="translate(-2201.394 -118.714)" fill="none"/>
    </clipPath>
    <clipPath id="clip-path-3">
      <path id="Trazado_528" data-name="Trazado 528" d="M2196.669,126.871a47.451,47.451,0,0,0-21.144,29.974s8.209,3.109,9.079,2.363,6.965-22.263,12.687-30.471C2197.291,128.736,2198.783,126.5,2196.669,126.871Z" transform="translate(-2175.525 -126.829)" fill="none"/>
    </clipPath>
    <clipPath id="clip-path-4">
      <path id="Trazado_544" data-name="Trazado 544" d="M2370.552,370.827c44.431,1.15,122.638,2.463,156.13-1.253l.328-.686a6.947,6.947,0,0,0-.373-5.1c-1.223-2.447-2.283-5.88-3.179-6.447l-.178-.075c-.927-.194-2.807-32.476-18.478-36.014,0,0-30.835-12.254-35-10.328s-42.536.253-42.536.253-36.328,4.97-44.776,19.4c0,0-9.387,17.91-9.955,27.432Z" transform="translate(-2370.552 -310.714)" fill="none"/>
    </clipPath>
  </defs>
  <g id="Grupo_436" data-name="Grupo 436" transform="translate(0)">
    <g id="Grupo_399" data-name="Grupo 399" transform="translate(3.503 87.704)">
      <g id="Grupo_395" data-name="Grupo 395" transform="translate(136.822 21.511)">
        <ellipse id="Elipse_58" data-name="Elipse 58" cx="19.108" cy="26.222" rx="19.108" ry="26.222" fill="#3d4039"/>
        <path id="Trazado_506" data-name="Trazado 506" d="M2457.53,394.258c0,11.636,4.386,21.069,9.8,21.069s9.8-9.433,9.8-21.069-4.387-21.07-9.8-21.07S2457.53,382.621,2457.53,394.258Z" transform="translate(-2456.957 -368.125)" fill="#d6e3dd"/>
      </g>
      <g id="Grupo_396" data-name="Grupo 396">
        <path id="Trazado_507" data-name="Trazado 507" d="M2119.335,346.947c0,21.633,6.674,39.171,14.906,39.171s14.909-17.537,14.909-39.171-6.675-39.171-14.909-39.171S2119.335,325.313,2119.335,346.947Z" transform="translate(-2119.335 -307.776)" fill="#3d4039"/>
        <path id="Trazado_508" data-name="Trazado 508" d="M2126.206,367.946c0,14.473,2.628,26.206,5.87,26.206s5.871-11.733,5.871-26.206-2.628-26.206-5.871-26.206S2126.206,353.473,2126.206,367.946Z" transform="translate(-2123.415 -327.942)" fill="#d6e3dd"/>
        <path id="Trazado_509" data-name="Trazado 509" d="M2127.125,382.7c0,9.7,1.762,17.569,3.936,17.569S2135,392.4,2135,382.7s-1.761-17.569-3.936-17.569S2127.125,373,2127.125,382.7Z" transform="translate(-2123.96 -341.83)" fill="#3d4039"/>
        <path id="Trazado_510" data-name="Trazado 510" d="M2130.78,397.354c0,5.305.962,9.606,2.151,9.606s2.151-4.3,2.151-9.606-.962-9.606-2.151-9.606S2130.78,392.049,2130.78,397.354Z" transform="translate(-2126.13 -355.259)" fill="#3d4039"/>
        <path id="Trazado_511" data-name="Trazado 511" d="M2127.307,384.61c0,6.4,1.855,11.587,4.144,11.587s4.143-5.188,4.143-11.587-1.855-11.587-4.143-11.587S2127.307,378.211,2127.307,384.61Z" transform="translate(-2124.068 -346.516)" fill="#3d4039"/>
      </g>
      <g id="Grupo_397" data-name="Grupo 397" transform="translate(215.823 10.042)">
        <ellipse id="Elipse_59" data-name="Elipse 59" cx="27.194" cy="37.318" rx="27.194" ry="37.318" fill="#3d4039"/>
        <path id="Trazado_512" data-name="Trazado 512" d="M2661.251,381.978c0,17.458,7.321,31.612,16.354,31.612s16.354-14.154,16.354-31.612-7.323-31.613-16.354-31.613S2661.251,364.518,2661.251,381.978Z" transform="translate(-2656.916 -343.105)" fill="#d6e3dd"/>
        <ellipse id="Elipse_60" data-name="Elipse 60" cx="9.499" cy="21.418" rx="9.499" ry="21.418" transform="translate(8.204 19.342)" fill="#3d4039"/>
      </g>
      <g id="Grupo_398" data-name="Grupo 398" transform="translate(2.949 9.545)">
        <ellipse id="Elipse_61" data-name="Elipse 61" cx="24.779" cy="37.318" rx="24.779" ry="37.318" transform="translate(38.678)" fill="#3d4039"/>
        <path id="Trazado_513" data-name="Trazado 513" d="M2231.119,383.9c0,14.65,5.377,26.526,12.011,26.526s12.012-11.876,12.012-26.526-5.378-26.527-12.012-26.527S2231.119,369.25,2231.119,383.9Z" transform="translate(-2188.655 -346.768)" fill="#d6e3dd"/>
        <path id="Trazado_514" data-name="Trazado 514" d="M2234.913,391.654c0,11.662,4.282,21.116,9.563,21.116s9.562-9.454,9.562-21.116-4.281-21.116-9.562-21.116S2234.913,379.992,2234.913,391.654Z" transform="translate(-2190.907 -354.585)" fill="#3d4039"/>
        <path id="Trazado_515" data-name="Trazado 515" d="M2237.146,388.117l-4.543,1.4.114-7.1,3.713-.606-3.14-4.092,1.375-6.531,3.217,4.775a10.44,10.44,0,0,1,2.692-4.668l.622-9.617,5.729.115-1.707,9.734a11.936,11.936,0,0,1,2.689,5.281l5.206-5.5,1.375,7.334-5.727,4.881c0,.028,0,.054,0,.081,0,.416-.011.827-.029,1.234l5.983-.467v6.073l-6.7-.459c-.031.128-.068.248-.1.373l6.341,5.472-2.292,5.844-5.908-7.012a7.025,7.025,0,0,1-.834,1.008l1.841,12.691-6.938.273.21-12.941a7.614,7.614,0,0,1-1.162-1.519l-4.624,5.553-1.6-7.219,4.41-3.261Q2237.239,388.686,2237.146,388.117Z" transform="translate(-2189.536 -349.319)" fill="#d6e3dd"/>
        <path id="Trazado_516" data-name="Trazado 516" d="M2128.671,377.061l-1.862,1.32-.214-8.3,1.808,1.47-1.645-7.069.683-7.895,1.6,5.772c.332-2.518,1.142-15.474,1.142-15.474l3.021.164s.5,13.532.814,16.33l2.584-6.653.682,8.865s-3.725,7.613-3.733,8.1l3.846-1.18v7.341l-3.324-.555c-.767-.951,2.6,7.155,2.6,7.155l-1.715,6.248-3.063-11.168c-.131.464,1.184,13.17,1.184,13.17l-2.9-.694-.307-11.924c-.206-.494-1.256,7.412-1.256,7.412l-1.378-7.5S2128.7,377.52,2128.671,377.061Z" transform="translate(-2126.594 -340.542)" fill="#d6e3dd"/>
      </g>
    </g>
    <path id="Trazado_517" data-name="Trazado 517" d="M2114.3,223.024s-2.009-38.6,3.4-34.684c0,0,6.723,6.292,6.351,23.884,0,0-.383,21.081,8.389,22.757l24.55,2.46a53.875,53.875,0,0,1,3.851-33.538s.628-30.862,9.567-18.356a17.383,17.383,0,0,1,1.557,3.508,102.121,102.121,0,0,1,7.234,41.192l.048.167c.089.392.373,1.431.833,2.744l.02.059a18.7,18.7,0,0,0,3.833,6.733s12.957.461,32.342.96c44.426,1.147,122.635,2.46,156.125-1.255,3.2-.343,5.979-.754,8.292-1.2a36.9,36.9,0,0,0,3.949-9.124,14.357,14.357,0,0,0,.519-4.8s-.116-33.959-8.692-47.759c0,0,.745-20.15-17.915-25.747,0,0-4.205-3.989-10.428-9.712-15.29-14.094-42.751-38.693-49.64-40.291,0,0-54.855-16.044-119.03-5.6,0,0-19.9-1.744-36.077,19.405a75.9,75.9,0,0,0-6.8,11.242,56.22,56.22,0,0,0-5.626,17.494,1.819,1.819,0,0,1-.128.137c-1.019,1.1-8.066,8.791-9.321,11.682-1.449,3.342-4.979,20.375-6.6,27.726C2114.907,183.115,2105.89,211.645,2114.3,223.024Z" transform="translate(-2110.713 -91.895)" fill="#004877"/>
    <path id="Trazado_518" data-name="Trazado 518" d="M2160.722,143.649c1.912.888,19.952,9.1,37.354,11.23a.245.245,0,0,1,.084.027c.458.239,15,1.675,23.517-4.271a.256.256,0,0,0-.005-.425c-1.684-1.027-9.245-5.9-8.433-10.278a.264.264,0,0,1,.26-.21l163.581,1.588a.247.247,0,0,0,.179-.425c-15.37-14.154-42.347-38.27-49.172-39.85,0,0-54.833-16.039-119-5.6-.019,0-20.075-1.754-36.1,19.407,0,0-10.479,13.692-12.409,28.546A.253.253,0,0,0,2160.722,143.649Z" transform="translate(-2140.32 -91.901)" fill="#004877"/>
    <path id="Trazado_519" data-name="Trazado 519" d="M2684.506,202.045l4.611,4.119,2.985-1-.746-3.97c-5.9-9.768-14.671-6.477-14.671-6.477Z" transform="translate(-2446.754 -152.628)" fill="#111"/>
    <path id="Trazado_520" data-name="Trazado 520" d="M2696.458,211.921l4.4,3.968s3-.213,2.985-1a8.385,8.385,0,0,0-.765-3.934C2701.741,209.68,2696.458,211.921,2696.458,211.921Z" transform="translate(-2458.494 -162.353)"/>
    <path id="Trazado_521" data-name="Trazado 521" d="M2185.361,113.719s19.589-14.489,19.216,1.555c0,0-3.45,41.705-10.291,48.421,0,0-29.029-5.7-33.287-10.414C2159.463,151.579,2172.852,120.867,2185.361,113.719Z" transform="translate(-2140.499 -101.289)" fill="#434443"/>
    <path id="Trazado_522" data-name="Trazado 522" d="M2225.088,133.557s2.239-13.246-2.8-14.552c0,0-3.99-.766-4.665.187a107.238,107.238,0,0,0-16.231,36.753s10.635,6.716,15.3,3.172S2225.088,133.557,2225.088,133.557Z" transform="translate(-2164.554 -107.818)" fill="#d6e3dd"/>
    <path id="Trazado_523" data-name="Trazado 523" d="M2196.669,126.871a47.451,47.451,0,0,0-21.144,29.974s8.209,3.109,9.079,2.363,6.965-22.263,12.687-30.471C2197.291,128.736,2198.783,126.5,2196.669,126.871Z" transform="translate(-2149.194 -112.636)" fill="#d6e3dd"/>
    <path id="Trazado_524" data-name="Trazado 524" d="M2397.638,110.389c-4.909-.964-75.176-14.36-115.866-.065a3.133,3.133,0,0,0-2.078,2.9c-.175,8.118-.307,36.217,6.4,33.66,0,0,117.314-.571,149.724.534a3.161,3.161,0,0,0,2.355-5.38c-9.3-9.391-27.827-27.018-40.011-31.5A3.323,3.323,0,0,0,2397.638,110.389Z" transform="translate(-2211.012 -98.945)" fill="#434443"/>
    <path id="Trazado_525" data-name="Trazado 525" d="M2432.274,149.235a2.7,2.7,0,0,0,1.912-4.668c-10-9.459-22.6-20.132-30.971-23.253-3.473-.676-34.5-6.523-66.354-6.523-17.92,0-32.813,1.815-44.365,5.4a2.694,2.694,0,0,0-1.879,2.549c-.112,9.975.569,19.421,1.7,24.164a2.676,2.676,0,0,0,2.632,2.037c7.787-.034,33.74-.137,62-.137C2396.084,148.8,2418.879,148.981,2432.274,149.235Z" transform="translate(-2217.522 -105.489)" fill="#d6e3dd"/>
    <g id="Grupo_402" data-name="Grupo 402" transform="translate(73.082 9.301)">
      <g id="Grupo_401" data-name="Grupo 401" clip-path="url(#clip-path)">
        <g id="Grupo_400" data-name="Grupo 400" transform="translate(6.364 -14.609)" opacity="0.47">
          <rect id="Rectángulo_228" data-name="Rectángulo 228" width="7.654" height="87.266" transform="translate(90.546 65.537) rotate(138.677)" fill="#fff"/>
          <rect id="Rectángulo_229" data-name="Rectángulo 229" width="19.925" height="87.266" transform="translate(72.585 66.47) rotate(138.677)" fill="#fff"/>
        </g>
      </g>
    </g>
    <g id="Grupo_405" data-name="Grupo 405" transform="translate(36.84 10.896)">
      <g id="Grupo_404" data-name="Grupo 404" clip-path="url(#clip-path-2)">
        <g id="Grupo_403" data-name="Grupo 403" transform="translate(0.486 -2.446)" opacity="0.44">
          <rect id="Rectángulo_230" data-name="Rectángulo 230" width="7.432" height="45.247" transform="translate(32.373 41.972) rotate(158.068)" fill="#fff"/>
          <rect id="Rectángulo_231" data-name="Rectángulo 231" width="4.146" height="45.247" transform="translate(20.746 42.715) rotate(158.068)" fill="#fff"/>
        </g>
      </g>
    </g>
    <g id="Grupo_407" data-name="Grupo 407" transform="translate(26.33 14.192)">
      <g id="Grupo_406" data-name="Grupo 406" clip-path="url(#clip-path-3)">
        <rect id="Rectángulo_232" data-name="Rectángulo 232" width="3.529" height="25.47" transform="translate(18.762 25.413) rotate(159.938)" fill="#fff" opacity="0.47"/>
        <rect id="Rectángulo_233" data-name="Rectángulo 233" width="7.485" height="28.386" transform="translate(14.018 31.459) rotate(162.618)" fill="#fff" opacity="0.47"/>
      </g>
    </g>
    <path id="Trazado_529" data-name="Trazado 529" d="M2202.847,203.641l-1.57,4.477s-25.559,2.923-32.212-5.224c0,0-1.742-18.532,25.87-12.313,3.033.683.124,12.437.124,12.437S2200.11,204.512,2202.847,203.641Z" transform="translate(-2145.346 -149.732)" fill="#111"/>
    <path id="Trazado_530" data-name="Trazado 530" d="M2123.217,329.407s-2.723-8.785-4.8,3.874-.459,25.624.231,25.624S2118.27,345.019,2123.217,329.407Z" transform="translate(-2114.685 -231.154)" fill="#111"/>
    <path id="Trazado_531" data-name="Trazado 531" d="M2246.561,323.173s-6.271,1.573-12.543,12.716c0,0-1.055-21.692,5.16-21.692C2239.177,314.2,2244.03,313.89,2246.561,323.173Z" transform="translate(-2183.884 -223.884)" fill="#111"/>
    <path id="Trazado_532" data-name="Trazado 532" d="M2114.623,358.566s-1.918-36.9,3.245-34.759c0,0,2.739,1.923,5.424,11.667,0,0,1.383-9.676-4.045-14.607a3.213,3.213,0,0,0-5.244,1.642C2111.934,330.743,2108.137,349.789,2114.623,358.566Z" transform="translate(-2110.885 -227.362)" fill="#002d56"/>
    <path id="Trazado_533" data-name="Trazado 533" d="M2233.125,368.868" transform="translate(-2183.395 -256.345)" fill="none" stroke="#e59c0a" stroke-miterlimit="10" stroke-width="1"/>
    <path id="Trazado_534" data-name="Trazado 534" d="M2246.857,247.553" transform="translate(-2191.547 -184.315)" fill="none" stroke="#e59c0a" stroke-miterlimit="10" stroke-width="1"/>
    <path id="Trazado_535" data-name="Trazado 535" d="M2370.552,370.827c44.431,1.15,122.638,2.463,156.13-1.253l.328-.686a6.947,6.947,0,0,0-.373-5.1c-1.223-2.447-2.283-5.88-3.179-6.447l-.178-.075c-.927-.194-2.807-32.476-18.478-36.014,0,0-30.835-12.254-35-10.328s-42.536.253-42.536.253-36.328,4.97-44.776,19.4c0,0-9.387,17.91-9.955,27.432Z" transform="translate(-2264.99 -221.816)" fill="#434443"/>
    <path id="Trazado_536" data-name="Trazado 536" d="M2310.21,341.692s-10.634,27.8,0,34.327c0,0,16.977,7.463,17.909-12.686C2328.445,356.318,2319.911,351.394,2310.21,341.692Z" transform="translate(-2226.357 -240.21)" fill="#3d4039"/>
    <path id="Trazado_537" data-name="Trazado 537" d="M2309.156,340.774s-11.38,26.772.28,34.7c0,0,16.976,7.463,17.909-12.686C2327.67,355.773,2318.857,350.475,2309.156,340.774Z" transform="translate(-2225.583 -239.665)" fill="#002d56"/>
    <path id="Trazado_538" data-name="Trazado 538" d="M2309.011,340.774s-11.1,26.678-.466,33.208c0,0,16.294,8.4,17.225-11.753C2326.1,355.213,2318.589,352.963,2309.011,340.774Z" transform="translate(-2225.438 -239.665)" fill="#3d4039"/>
    <path id="Trazado_539" data-name="Trazado 539" d="M2760.021,344.233c.53,4.289,3.529,29.032,2.252,30.991,0,0-7,5.69-11.288-.746-4.206-6.309,1.178-22.655,8.509-30.416A.306.306,0,0,1,2760.021,344.233Z" transform="translate(-2489.992 -241.559)" fill="#002d56"/>
    <path id="Trazado_540" data-name="Trazado 540" d="M2758.281,354.763c.785,6.723,2.468,22.152,1.8,25.568a1.339,1.339,0,0,1-.569.83c-1.523,1.071-7.213,4.5-10.9-1.033-3.875-5.812.667-18.214,7.148-26.129A1.438,1.438,0,0,1,2758.281,354.763Z" transform="translate(-2488.608 -247.211)" fill="#3d4039"/>
    <path id="Trazado_541" data-name="Trazado 541" d="M2462.09,225.518s-160.94-11.981-166.661-7.255c0,0-7.135-5.063-5.477-8.66l164.117,1.425s10.944,9.142,10.758,9.888S2463.459,225.456,2462.09,225.518Z" transform="translate(-2216.986 -161.783)" fill="#006693"/>
    <path id="Trazado_542" data-name="Trazado 542" d="M2142.744,378.977s-.388,21.089,8.388,22.761l24.55,2.465-1.151-9.513-23.772-2.832s-3.537-.388-7.835-16.985a11.388,11.388,0,0,0-.732-2.119A38.1,38.1,0,0,1,2142.744,378.977Z" transform="translate(-2129.403 -258.652)" fill="#002d56"/>
    <path id="Trazado_543" data-name="Trazado 543" d="M2248.222,331.07s-2.024-27.873-13.042-22.363c-2.3,1.15-4.833,6.521-2.532,23.208,0,0,1.074-22.671,6.367-20.944C2239.015,310.97,2242.084,310.2,2248.222,331.07Z" transform="translate(-2182.572 -220.197)" fill="#002d56"/>
    <g id="Grupo_410" data-name="Grupo 410" transform="translate(105.562 88.897)">
      <g id="Grupo_409" data-name="Grupo 409" clip-path="url(#clip-path-4)">
        <g id="Grupo_408" data-name="Grupo 408" transform="translate(-25.694 1.289)">
          <line id="Línea_174" data-name="Línea 174" x1="193.069" y2="1.821" fill="none" stroke="#4b4c4b" stroke-miterlimit="10" stroke-width="1"/>
          <line id="Línea_175" data-name="Línea 175" x1="193.069" y2="1.821" transform="translate(0 3.92)" fill="none" stroke="#4b4c4b" stroke-miterlimit="10" stroke-width="1"/>
          <line id="Línea_176" data-name="Línea 176" x1="193.069" y2="1.822" transform="translate(0 7.841)" fill="none" stroke="#4b4c4b" stroke-miterlimit="10" stroke-width="1"/>
          <line id="Línea_177" data-name="Línea 177" x1="193.069" y2="1.821" transform="translate(0 11.761)" fill="none" stroke="#4b4c4b" stroke-miterlimit="10" stroke-width="1"/>
          <line id="Línea_178" data-name="Línea 178" x1="193.069" y2="1.821" transform="translate(0 15.681)" fill="none" stroke="#4b4c4b" stroke-miterlimit="10" stroke-width="1"/>
          <line id="Línea_179" data-name="Línea 179" x1="193.069" y2="1.821" transform="translate(0 19.601)" fill="none" stroke="#4b4c4b" stroke-miterlimit="10" stroke-width="1"/>
          <line id="Línea_180" data-name="Línea 180" x1="193.069" y2="1.822" transform="translate(0 23.521)" fill="none" stroke="#4b4c4b" stroke-miterlimit="10" stroke-width="1"/>
          <line id="Línea_181" data-name="Línea 181" x1="193.069" y2="1.822" transform="translate(0 27.442)" fill="none" stroke="#4b4c4b" stroke-miterlimit="10" stroke-width="1"/>
          <line id="Línea_182" data-name="Línea 182" x1="193.069" y2="1.822" transform="translate(0 31.362)" fill="none" stroke="#4b4c4b" stroke-miterlimit="10" stroke-width="1"/>
          <line id="Línea_183" data-name="Línea 183" x1="193.069" y2="1.822" transform="translate(0 35.282)" fill="none" stroke="#4b4c4b" stroke-miterlimit="10" stroke-width="1"/>
          <line id="Línea_184" data-name="Línea 184" x1="193.069" y2="1.821" transform="translate(0 39.203)" fill="none" stroke="#4b4c4b" stroke-miterlimit="10" stroke-width="1"/>
          <line id="Línea_185" data-name="Línea 185" x1="193.069" y2="1.821" transform="translate(0 43.123)" fill="none" stroke="#4b4c4b" stroke-miterlimit="10" stroke-width="1"/>
          <line id="Línea_186" data-name="Línea 186" x1="193.069" y2="1.822" transform="translate(0 47.043)" fill="none" stroke="#4b4c4b" stroke-miterlimit="10" stroke-width="1"/>
        </g>
      </g>
    </g>
    <path id="Trazado_545" data-name="Trazado 545" d="M2370.552,438.855c44.431,1.15,122.638,2.463,156.13-1.253l.328-.687a6.947,6.947,0,0,0-.373-5.1c-1.223-2.447-2.283-5.88-3.179-6.447l-.178-.075-19.776,5.776s-100,2.239-102.609,1.493-28.358-6.522-28.358-6.522l-1.119,6.9Z" transform="translate(-2264.99 -289.844)" fill="#004877"/>
    <path id="Trazado_546" data-name="Trazado 546" d="M2279.3,427.37l.045.164.836,2.746.015.06a18.755,18.755,0,0,0,3.835,6.731s12.955.463,32.343.955c44.431,1.15,122.637,2.463,156.13-1.253,3.194-.343,5.97-.746,8.283-1.194a36.79,36.79,0,0,0,3.956-9.119c-4.955,2.03-33.536,12.761-76.834,9.373,0,0-92.54.555-102.981-4.97-3.589-1.9-14.671-6.97-14.671-6.97s-1.921,4.167-3.239,4.731C2285.216,429.393,2279.3,427.37,2279.3,427.37Z" transform="translate(-2210.808 -289.015)" fill="#002d56"/>
    <path id="Trazado_547" data-name="Trazado 547" d="M2488.482,365.266h55.471a8.955,8.955,0,0,0,8.955-8.955h0a8.955,8.955,0,0,0-8.955-8.955h-55.471a8.955,8.955,0,0,0-8.955,8.955h0A8.955,8.955,0,0,0,2488.482,365.266Z" transform="translate(-2329.693 -243.573)" fill="#bfc4c1"/>
    <path id="Trazado_548" data-name="Trazado 548" d="M2137.272,231.112s9.713,16.71,62.058,4.6c0,0,.892-4.273,2.362-6.233,0,0-19.249,6-54.708-9.869-.128-.059-.265-.117-.393-.176C2145.573,220.528,2138.526,228.221,2137.272,231.112Z" transform="translate(-2126.482 -167.618)" fill="#006693"/>
    <path id="Trazado_549" data-name="Trazado 549" d="M2680.512,298.708s3.234,14.179-19.153,17.661c0,0-32.337-13.184-38.556-13.184C2622.8,303.185,2666.335,293.733,2680.512,298.708Z" transform="translate(-2414.762 -213.829)" fill="#002d56"/>
    <path id="Trazado_550" data-name="Trazado 550" d="M2522.562,361.832c-1.224-2.448-2.284-5.881-3.18-6.448l-.179-.074c-.925-.194-2.8-32.477-18.477-36.014,0,0-30.834-12.254-35-10.328s-42.536.254-42.536.254-36.328,4.97-44.775,19.4c0,0-9.388,17.91-9.955,27.432l-1.985,11.845-2.788.028,1.8-12.209c.684-10.074,9.888-27.733,10.347-28.6,9.077-15.507,45.4-20.641,46.947-20.852l.267-.036.267.012c.154.006,15.528.67,27.68.67,11.1,0,13.216-.562,13.475-.652a6.03,6.03,0,0,1,2.564-.481c7.374,0,30.983,9.237,34.582,10.663,14.353,3.473,18.147,25.558,19.773,35.018.125.722.26,1.506.365,2.052a14.666,14.666,0,0,1,2.306,4.344c.379.914.774,1.86,1.169,2.649,1.821,3.663.861,5.772.861,5.772l-3.431.347A5.43,5.43,0,0,0,2522.562,361.832Z" transform="translate(-2260.916 -218.886)" fill="#2a2b2a"/>
    <path id="Trazado_551" data-name="Trazado 551" d="M2362.964,307.505s-33.582-1.99-48.755-10.448c0,0,34.581-15.671,79.6,2.239Z" transform="translate(-2231.537 -209.94)" fill="#002d56"/>
    <path id="Trazado_552" data-name="Trazado 552" d="M2518.113,266.784s-35.354,1.539-38.151.607c0,0-12.314-11.754-29.478-.186,0,0-47.2-.373-51.4-1.12,0,0,10.26,8.613,11.753,14.085,0,0,27.643-.84,33.364,2.145s24.5,22.605,43.407.466c0,0,22.512-4.7,26.742-4.2C2514.352,278.584,2515.62,274.251,2518.113,266.784Z" transform="translate(-2281.932 -192.959)" fill="#434443"/>
    <path id="Trazado_553" data-name="Trazado 553" d="M2524.78,286.232l-30.161,4.135s-16.666,26.119-39.8.249l-38.121-3.825-2.456-2.767s42.256,3.607,44.308,4.726c0,0,17.164,23.009,31.343.186l36.006-6.561Z" transform="translate(-2290.931 -204.992)" fill="#d6e3dd"/>
    <path id="Trazado_554" data-name="Trazado 554" d="M2538.919,292.853c0,4.053,4.567,7.338,10.2,7.338s10.2-3.285,10.2-7.338-4.566-7.338-10.2-7.338S2538.919,288.8,2538.919,292.853Z" transform="translate(-2364.957 -206.855)" fill="#d6e3dd"/>
    <path id="Trazado_555" data-name="Trazado 555" d="M2681.3,267.422s23.629-4.969,28.608-2.735c0,0,3.98-.255,4.979-1.489,0,0,.382-10.428-6.351-18.367a23.691,23.691,0,0,0-11.565-7.38,72.85,72.85,0,0,1-7.723,11.055h-.009c-1.6,1.754-3.2,3-4.459,3C2684.782,251.505,2678.814,265.687,2681.3,267.422Z" transform="translate(-2449.136 -178.317)" fill="#d6e3dd"/>
    <path id="Trazado_556" data-name="Trazado 556" d="M2289.807,245.492s3.734,23.875,16.789,18.278c0,0,27.982.373,40.3,1.872,0,0-3.411-11.467-17.15-18.415a45.944,45.944,0,0,0-11.585-3.979s-18.15-5.351-19.523-7.341c0,0-7.478,1.538-8.781,6.6A6.5,6.5,0,0,0,2289.807,245.492Z" transform="translate(-2216.96 -177.401)" fill="#d6e3dd"/>
    <path id="Trazado_557" data-name="Trazado 557" d="M2701.755,248.506c.491.029,13.368.862,19.289-3.675a23.7,23.7,0,0,0-11.565-7.38A72.85,72.85,0,0,1,2701.755,248.506Z" transform="translate(-2461.639 -178.317)" fill="#fff" opacity="0.62"/>
    <path id="Trazado_558" data-name="Trazado 558" d="M2290.147,242.5l.107.186s18.867,11.124,39.782,4.538a45.939,45.939,0,0,0-11.584-3.979s-18.151-5.351-19.523-7.341C2298.928,235.907,2291.45,237.445,2290.147,242.5Z" transform="translate(-2217.25 -177.401)" fill="#fff" opacity="0.57"/>
    <path id="Trazado_559" data-name="Trazado 559" d="M2177.762,232.858s-14.552,28.917-1.866,78.169" transform="translate(-2146.333 -175.59)" fill="none" stroke="#002d56" stroke-miterlimit="10" stroke-width="1"/>
    <path id="Trazado_560" data-name="Trazado 560" d="M2144.874,404.155c.821,6.075,2.836,13.358,7.851,14.313l24.549,2.464s-1.64-9.781-.959-13.579l-6.427-6.423s-20.716,11.194-23.134,2.985C2146.336,402.5,2145.679,402.752,2144.874,404.155Z" transform="translate(-2130.996 -275.382)" fill="#002d56"/>
  </g>
</svg>
