<svg xmlns="http://www.w3.org/2000/svg" xmlns:xlink="http://www.w3.org/1999/xlink" width="332.421" height="137.869" viewBox="0 0 332.421 137.869">
  <defs>
    <clipPath id="clip-path">
      <path id="Trazado_607" data-name="Trazado 607" d="M2496.726-935.581c-1.449,7.444-5.827,30.083-5.79,31.6l55.057-1.245s10.955-13.974,8.625-23.683c-.285-1.186-36.382-8.545-54.971-9.008A2.892,2.892,0,0,0,2496.726-935.581Z" fill="none"/>
    </clipPath>
    <clipPath id="clip-path-2">
      <path id="Trazado_609" data-name="Trazado 609" d="M2415.6-928.077c8.052-2.809,42.2-14.019,64.7-10.467a1.271,1.271,0,0,1,1.027,1.555c-1.2,5.059-5.591,23.291-8.093,31.046a3.531,3.531,0,0,1-3.173,2.44l-57.809,3.127-3.379-9.15,4.365-16.2A3.863,3.863,0,0,1,2415.6-928.077Z" fill="none"/>
    </clipPath>
  </defs>
  <g id="Grupo_435" data-name="Grupo 435" transform="translate(-2285.01 949.069)">
    <path id="Trazado_561" data-name="Trazado 561" d="M2617.042-854.273s-.1,1.667-.385,4.04c-.675,5.583-2.361,15.062-6.17,15.974,0,0-7.862,1.71-9.376.778,0,0,.621-26.516-21.1-33.327-12.867-4.023-37.859-4.178-41.551,34.388,0,0-146.932-3.543-156.865-1.93,0,0-3.859-.7-3.061-6.711a30.712,30.712,0,0,0-.07-3.386c-.5-8.055-3.949-28.005-25.415-32.562,0,0-30.771-7.077-37.3,27.508-.3,1.625-.56,3.336-.738,5.144-.208,1.8-.337,3.689-.409,5.678,0,0-11.8,2.741-16.67-1.242,0,0-12.207.075-12.426-.578l-.495-3.406s.12-.14.319-.39c1.089-1.329,4.372-5.66,1.534-6a65.907,65.907,0,0,1-.771-20.894c1.636-11.754,7.722-24.349,26.032-25.8,0,0,44.134-8.917,56.22-15.11,21.974-11.265,59.211-34.781,113.808-31.723,23.578,1.325,62.484.83,94,9.3a13.391,13.391,0,0,1,2.125,4.509s21.819,23.077,23.083,24.246c1.055.973,2.079,1.933,3.04,2.9a37.219,37.219,0,0,1,4.02,4.6c3.647,5.047,5.015,10.88,1.191,19.7C2609.611-878.569,2619.486-862.2,2617.042-854.273Z" fill="#025787"/>
    <g id="Grupo_426" data-name="Grupo 426">
      <g id="Grupo_420" data-name="Grupo 420">
        <g id="Grupo_419" data-name="Grupo 419">
          <path id="Trazado_562" data-name="Trazado 562" d="M2322.146-837.287l-7.545-1.392s-2.878-38.526,31.742-39.164c13.171-.243,35.4,8.564,32.309,41.627,0,0-2.942,5.614-8.95,6.5,0,0,17.117-29.644-15.906-41.038C2342.145-874.772,2319.164-866.136,2322.146-837.287Z" fill="#2a2b2a"/>
          <path id="Trazado_563" data-name="Trazado 563" d="M2543.144-832.8l-4.854.25s-2.632-34.486,30.432-37.024c13.135-1.008,35.029,10.018,32.389,36.1,0,0-.48-2.616-4.429-1.373,0,0,.2-18.281-19.363-26.2C2565.893-865.671,2543.645-861.231,2543.144-832.8Z" fill="#2a2b2a"/>
        </g>
      </g>
      <g id="Grupo_425" data-name="Grupo 425">
        <g id="Grupo_422" data-name="Grupo 422">
          <ellipse id="Elipse_62" data-name="Elipse 62" cx="26.637" cy="27.498" rx="26.637" ry="27.498" transform="translate(2319.078 -820.257) rotate(-87.336)" fill="#3d4039"/>
          <ellipse id="Elipse_63" data-name="Elipse 63" cx="19.598" cy="19.852" rx="19.598" ry="19.852" transform="translate(2326.094 -826.408) rotate(-87.34)" fill="#d6e3dd"/>
          <path id="Trazado_564" data-name="Trazado 564" d="M2360.772-844.95a13.709,13.709,0,0,1-14.275,13.119,13.709,13.709,0,0,1-13-14.387,13.71,13.71,0,0,1,14.275-13.119A13.71,13.71,0,0,1,2360.772-844.95Z" fill="#3d4039"/>
          <path id="Trazado_565" data-name="Trazado 565" d="M2363.874-841.662l.562-5.2-10.715-.56q-.087-.293-.2-.575l8.4-6.242-3.257-4.1-7.953,7.077c-.176-.1-.357-.2-.542-.288l1.673-10.58-5.208-.53-.727,10.533a6.886,6.886,0,0,0-.793.19l-6.558-8.5-3.96,3.423,6.975,7.559a6.576,6.576,0,0,0-.81,1.465l-10.555-.92-.166,5.231,10.578-.009c.053.167.11.331.175.492l-8.366,6.937,3.559,3.838,7.615-7.536a7,7,0,0,0,.894.439l-2.229,10.467,5.152.924,1.438-11.06c.2-.05.4-.11.595-.177l-.123.092,6.174,8.939,4.208-3.112-6.942-8.374a6.473,6.473,0,0,0,.73-1.309Z" fill="#d6e3dd"/>
          <g id="Grupo_421" data-name="Grupo 421">
            <path id="Trazado_566" data-name="Trazado 566" d="M2345.893-849.111a1.489,1.489,0,0,1-1.557,1.419,1.489,1.489,0,0,1-1.42-1.557,1.492,1.492,0,0,1,1.558-1.42A1.49,1.49,0,0,1,2345.893-849.111Z" fill="#c6c6c6" stroke="#3d4039" stroke-miterlimit="10" stroke-width="0.1"/>
            <path id="Trazado_567" data-name="Trazado 567" d="M2352.267-848.1a1.489,1.489,0,0,1-1.557,1.419,1.49,1.49,0,0,1-1.42-1.558,1.49,1.49,0,0,1,1.558-1.419A1.491,1.491,0,0,1,2352.267-848.1Z" fill="#c6c6c6" stroke="#3d4039" stroke-miterlimit="10" stroke-width="0.1"/>
            <path id="Trazado_568" data-name="Trazado 568" d="M2351.131-841.8a1.49,1.49,0,0,1-1.558,1.419,1.489,1.489,0,0,1-1.419-1.557,1.491,1.491,0,0,1,1.558-1.42A1.491,1.491,0,0,1,2351.131-841.8Z" fill="#c6c6c6" stroke="#3d4039" stroke-miterlimit="10" stroke-width="0.1"/>
            <path id="Trazado_569" data-name="Trazado 569" d="M2344.692-842.811a1.49,1.49,0,0,1-1.557,1.42,1.492,1.492,0,0,1-1.42-1.558,1.49,1.49,0,0,1,1.558-1.419A1.489,1.489,0,0,1,2344.692-842.811Z" fill="#c6c6c6" stroke="#3d4039" stroke-miterlimit="10" stroke-width="0.1"/>
          </g>
        </g>
        <g id="Grupo_424" data-name="Grupo 424">
          <path id="Trazado_570" data-name="Trazado 570" d="M2597.654-836.562c-.683,14.7-13.535,26.036-28.705,25.331s-26.914-13.191-26.231-27.886,13.535-26.037,28.705-25.331S2598.337-851.258,2597.654-836.562Z" fill="#3d4039"/>
          <path id="Trazado_571" data-name="Trazado 571" d="M2589.068-836.394a19.727,19.727,0,0,1-20.741,18.655,19.726,19.726,0,0,1-18.921-20.5,19.727,19.727,0,0,1,20.741-18.655A19.728,19.728,0,0,1,2589.068-836.394Z" fill="#d6e3dd"/>
          <path id="Trazado_572" data-name="Trazado 572" d="M2583.175-837.2a13.709,13.709,0,0,1-14.275,13.119,13.708,13.708,0,0,1-13-14.387,13.71,13.71,0,0,1,14.275-13.119A13.71,13.71,0,0,1,2583.175-837.2Z" fill="#3d4039"/>
          <path id="Trazado_573" data-name="Trazado 573" d="M2586.277-833.914l.562-5.2-10.715-.56q-.087-.293-.2-.575l8.4-6.242-3.257-4.1-7.954,7.077c-.175-.1-.356-.2-.542-.288l1.673-10.58-5.207-.53-.728,10.533a7,7,0,0,0-.793.19l-6.557-8.5-3.96,3.423,6.975,7.559a6.531,6.531,0,0,0-.81,1.466l-10.555-.921-.166,5.231,10.578-.009c.053.167.11.331.175.492l-8.366,6.937,3.558,3.838,7.616-7.536a6.977,6.977,0,0,0,.894.439l-2.23,10.467,5.152.924,1.439-11.06c.2-.049.4-.11.595-.176l-.123.091,6.174,8.94,4.208-3.113-6.942-8.373a6.592,6.592,0,0,0,.73-1.31Z" fill="#d6e3dd"/>
          <g id="Grupo_423" data-name="Grupo 423">
            <path id="Trazado_574" data-name="Trazado 574" d="M2568.3-841.363a1.489,1.489,0,0,1-1.558,1.419,1.489,1.489,0,0,1-1.419-1.557,1.491,1.491,0,0,1,1.558-1.42A1.491,1.491,0,0,1,2568.3-841.363Z" fill="#c6c6c6" stroke="#3d4039" stroke-miterlimit="10" stroke-width="0.1"/>
            <path id="Trazado_575" data-name="Trazado 575" d="M2574.67-840.353a1.49,1.49,0,0,1-1.558,1.419,1.489,1.489,0,0,1-1.419-1.558,1.49,1.49,0,0,1,1.558-1.419A1.491,1.491,0,0,1,2574.67-840.353Z" fill="#c6c6c6" stroke="#3d4039" stroke-miterlimit="10" stroke-width="0.1"/>
            <path id="Trazado_576" data-name="Trazado 576" d="M2573.534-834.05a1.489,1.489,0,0,1-1.558,1.419,1.49,1.49,0,0,1-1.419-1.557,1.49,1.49,0,0,1,1.557-1.42A1.491,1.491,0,0,1,2573.534-834.05Z" fill="#c6c6c6" stroke="#3d4039" stroke-miterlimit="10" stroke-width="0.1"/>
            <path id="Trazado_577" data-name="Trazado 577" d="M2567.095-835.063a1.491,1.491,0,0,1-1.558,1.42,1.491,1.491,0,0,1-1.419-1.558,1.49,1.49,0,0,1,1.558-1.419A1.489,1.489,0,0,1,2567.095-835.063Z" fill="#c6c6c6" stroke="#3d4039" stroke-miterlimit="10" stroke-width="0.1"/>
          </g>
        </g>
      </g>
    </g>
    <g id="Grupo_427" data-name="Grupo 427">
      <path id="Trazado_578" data-name="Trazado 578" d="M2604.4-902.865c-.021,0-.042.008-.062.007-3.3.366-15.268-2.609-15.268-2.609-6.715-.208-14.724-.259-23.683-.188-50.079.421-130.008,4.767-181.863,7.887-29.981,1.823-50.583,3.22-50.583,3.22-15.026,10.716-46.748,23.416-46.748,23.416l-.1-.056c1.636-11.754,7.722-24.349,26.032-25.8,0,0,7.679-1.553,17.518-3.814,13.73-3.149,31.655-7.691,38.7-11.3,21.974-11.265,59.211-34.781,113.808-31.723,23.578,1.325,62.484.83,94,9.3a13.391,13.391,0,0,1,2.125,4.509l.01.011c.544.575,19.119,20.222,22.577,23.735.247.26.416.424.5.5C2602.415-904.794,2603.439-903.834,2604.4-902.865Z" fill="#004877"/>
      <path id="Trazado_579" data-name="Trazado 579" d="M2475.856-892.1c-.1,2.216-4.823,3.8-10.542,3.531s-10.271-2.278-10.168-4.494,4.823-3.8,10.541-3.531S2475.959-894.315,2475.856-892.1Z" fill="#065784"/>
      <path id="Trazado_580" data-name="Trazado 580" d="M2558.012-895.889c-.1,2.216-4.823,3.8-10.542,3.531s-10.271-2.278-10.168-4.494,4.823-3.8,10.541-3.531S2558.115-898.1,2558.012-895.889Z" fill="#065784"/>
      <path id="Trazado_581" data-name="Trazado 581" d="M2589.138-884.626a6.651,6.651,0,0,1-6.953,6.335,6.651,6.651,0,0,1-6.335-6.953,6.651,6.651,0,0,1,6.953-6.336A6.652,6.652,0,0,1,2589.138-884.626Z" fill="#065784"/>
      <path id="Trazado_582" data-name="Trazado 582" d="M2385.615-915.277s-31.891,16.331-18.6,16.949l16.512.56S2382.837-907.624,2385.615-915.277Z" fill="#025787"/>
      <path id="Trazado_583" data-name="Trazado 583" d="M2609.611-878.569c-5.552.437-22.768-16.282-22.768-16.282-6.511-8.6,20.918-3.52,20.918-3.52l.659.1C2612.067-893.221,2613.435-887.388,2609.611-878.569Z" fill="#d6e3dd"/>
      <path id="Trazado_584" data-name="Trazado 584" d="M2415.6-928.077c8.052-2.809,42.2-14.019,64.7-10.467a1.271,1.271,0,0,1,1.027,1.555c-1.2,5.059-5.591,23.291-8.093,31.046a3.531,3.531,0,0,1-3.173,2.44l-57.809,3.127-3.379-9.15,4.365-16.2A3.863,3.863,0,0,1,2415.6-928.077Z" fill="#d6e3dd"/>
      <path id="Trazado_585" data-name="Trazado 585" d="M2415.6-928.077c8.052-2.809,42.2-14.019,64.7-10.467a1.271,1.271,0,0,1,1.027,1.555c-1.2,5.059-5.591,23.291-8.093,31.046a3.531,3.531,0,0,1-3.173,2.44l-57.809,3.127-3.379-9.15,4.365-16.2A3.863,3.863,0,0,1,2415.6-928.077Z" fill="#d6e3dd"/>
      <path id="Trazado_586" data-name="Trazado 586" d="M2415.6-928.077c8.052-2.809,42.2-14.019,64.7-10.467a1.271,1.271,0,0,1,1.027,1.555c-1.2,5.059-5.591,23.291-8.093,31.046a3.531,3.531,0,0,1-3.173,2.44l-57.809,3.127-3.379-9.15,4.365-16.2A3.863,3.863,0,0,1,2415.6-928.077Z" fill="#d6e3dd"/>
      <path id="Trazado_587" data-name="Trazado 587" d="M2415.6-928.077c8.052-2.809,42.2-14.019,64.7-10.467a1.271,1.271,0,0,1,1.027,1.555c-1.2,5.059-5.591,23.291-8.093,31.046a3.531,3.531,0,0,1-3.173,2.44l-57.809,3.127-3.379-9.15,4.365-16.2A3.863,3.863,0,0,1,2415.6-928.077Z" fill="#d6e3dd"/>
      <path id="Trazado_588" data-name="Trazado 588" d="M2315.01-844.357c-.208,1.8-.337,3.689-.409,5.678,0,0-11.8,2.741-16.67-1.242,0,0-12.207.075-12.426-.578l-.495-3.406s25.27.407,29.46-.436A1.378,1.378,0,0,1,2315.01-844.357Z" fill="#002d56"/>
      <path id="Trazado_589" data-name="Trazado 589" d="M2297.092-847.1s-8.128,3.41-11.763,2.8c1.089-1.329,4.372-5.66,1.534-6,0,0,3.462-18.653,11.3-19.845C2298.163-870.139,2303.412-847.325,2297.092-847.1Z" fill="#002d56"/>
      <path id="Trazado_590" data-name="Trazado 590" d="M2297.092-847.1c-1.5-5,1.071-23.039,1.071-23.039S2303.412-847.325,2297.092-847.1Z" fill="#002d56"/>
      <path id="Trazado_591" data-name="Trazado 591" d="M2541.017-861.357c-3.459-.161-5.193-7.505-5.193-7.505.689-7.233-6.6-5.912-9.372-6.663-44.751-12.108-124.362-.753-141.21-.485-1.386.022-13.212,4.536-13.2,4.789-7.525-8.979-19.616-11.522-27.217-11.017-32.549,2.163-29.365,32.537-29.365,32.537s.1.067.292.2c6.527-34.585,37.3-27.508,37.3-27.508,17.643,3.757,26.023,18.8,25.415,32.562.065-.526,15.335,2.508,16.989,2.181l81.86,2.125,44.848,1.173s7.266,1.52,11.315-8.357c.2-.458.377-.948.557-1.469a93.042,93.042,0,0,1,7.44-11.162C2541.491-860.847,2541.348-861.342,2541.017-861.357Z" fill="#004877"/>
      <path id="Trazado_592" data-name="Trazado 592" d="M2396.161-846.384s64.958-13.324,116.16-4.2Z" fill="#006693"/>
      <path id="Trazado_593" data-name="Trazado 593" d="M2306.5-880s23.853,13.086,61.026-20.121l-34.587,5.572S2318.169-885.423,2306.5-880Z" fill="#025787"/>
      <path id="Trazado_594" data-name="Trazado 594" d="M2600.864-906.267c-.306-.118-.631-.268-.966-.429A42.39,42.39,0,0,1,2578.287-930C2578.831-929.427,2597.406-909.78,2600.864-906.267Z" fill="#065784"/>
      <path id="Trazado_595" data-name="Trazado 595" d="M2547.339-939.753s4.762-3.843,5.573,1.037Z" fill="#111"/>
      <rect id="Rectángulo_235" data-name="Rectángulo 235" width="0.485" height="10.798" transform="translate(2558.051 -949.069) rotate(37.172)" fill="#111"/>
      <path id="Trazado_596" data-name="Trazado 596" d="M2616.657-850.233c-.675,5.583-2.361,15.062-6.17,15.974,0,0-7.862,1.71-9.376.778,0,0,.621-26.516-21.1-33.327-12.867-4.023-37.859-4.178-41.551,34.388,0,0-146.932-3.543-156.865-1.93,0,0-3.859-.7-3.061-6.711,0,0,.06-1.72-.082-3.812,0,0,132.374-12.99,155.024-2.452,0,0,12.846-31.427,44.672-24.063a35.123,35.123,0,0,1,20.885,13.943s10.957,9.849,17.3,7.29A1.008,1.008,0,0,1,2616.657-850.233Z" fill="#002d56"/>
      <path id="Trazado_597" data-name="Trazado 597" d="M2335.2-897.883s33.313-6.645,42.169-12.979c0,0-21.336,12.533-10.432,11.79,60.735-4.141,198.728-7.031,198.743-6.71.34,7.22-233.282,11.3-233.282,11.3S2336.02-895.533,2335.2-897.883Z" fill="#006693"/>
      <path id="Trazado_598" data-name="Trazado 598" d="M2576.152-934.522s-8.937,1.417-11.213,3.146a2.323,2.323,0,0,1-2.079.37,230.037,230.037,0,0,0-37.7-7.876S2553.163-938.531,2576.152-934.522Z" fill="#065784"/>
      <path id="Trazado_599" data-name="Trazado 599" d="M2332.935-894.554l-.326.327a5.215,5.215,0,0,1-.381.38c-14.35,14.092-35.359,12.625-35.359,12.625a15.725,15.725,0,0,1,6.088-11.823,21.7,21.7,0,0,1,7.093-3.724c.544-.19,1.115-.353,1.7-.5,0,0,8.059-1.264,17.9-3.534l.123.055S2340.028-898.019,2332.935-894.554Z" fill="#e0e9ef"/>
      <path id="Trazado_600" data-name="Trazado 600" d="M2533.473-847.325c-4.049,9.877-11.315,8.357-11.315,8.357l-44.848-1.173-81.86-2.125a15.39,15.39,0,0,1-4.217.312l-4.449-3.634s117.39-12.507,145.974-1.968C2533-847.467,2533.249-847.4,2533.473-847.325Z" fill="#002d56"/>
      <path id="Trazado_601" data-name="Trazado 601" d="M2551.042-868.757c-3.3,1.621-6.694,5.147-9.572,8.8a93.042,93.042,0,0,0-7.44,11.162c-.18.521-.359,1.011-.557,1.469-4.049,9.877-11.315,8.357-11.315,8.357l-44.848-1.173-81.86-2.125a15.387,15.387,0,0,1-4.217.312c-7.1-.569-5.812-7.783-5.812-7.783-3.213-7.684-4.255-16.511-4.309-24.494a113.091,113.091,0,0,1,2.394-23.59c10.13-1.843,55.1-3.872,97.777-5.436,43.264-1.589,84.2-2.7,84.2-2.7C2570.048-881.363,2551.042-868.757,2551.042-868.757Z" fill="none" stroke="#002d56" stroke-miterlimit="10" stroke-width="1"/>
      <path id="Trazado_602" data-name="Trazado 602" d="M2481.027-902.885s-8.35,51.238-3.925,62.081" fill="none" stroke="#002d56" stroke-miterlimit="10" stroke-width="1"/>
    </g>
    <g id="Grupo_434" data-name="Grupo 434">
      <path id="Trazado_603" data-name="Trazado 603" d="M2565.485-905.962a.641.641,0,0,1-.1.307c-23.368.2-53.241,1.25-83.731,2.623-34.837,1.587-70.472,3.6-98.132,5.264l-.018-.053s-.558-18.57,6.06-21.645c0,0,45.244-25.645,100.515-21.912,18.145,1.228,69.907,2.991,71.5,13.36C2561.581-928.018,2565.582-909.849,2565.485-905.962Z" fill="#434443"/>
      <path id="Trazado_604" data-name="Trazado 604" d="M2496.726-935.581c-1.449,7.444-5.827,30.083-5.79,31.6l55.057-1.245s10.955-13.974,8.625-23.683c-.285-1.186-36.382-8.545-54.971-9.008A2.892,2.892,0,0,0,2496.726-935.581Z" fill="#d6e3dd"/>
      <path id="Trazado_605" data-name="Trazado 605" d="M2392.261-916.871c3.508-2.869,11.977-6.229,16.357-7.814a.929.929,0,0,1,1.234,1.044c-.721,3.846-2.774,14.363-3.793,15.022,0,0-11.033,2.946-15.235.329C2390.824-908.29,2389.773-914.836,2392.261-916.871Z" fill="#d6e3dd"/>
      <path id="Trazado_606" data-name="Trazado 606" d="M2407.015-914.282s4.282,8.328.144,11.767c0,0-12,1.517-12.145-6.618C2395.014-909.133,2395.869-916.357,2407.015-914.282Z" fill="#2a2b2a"/>
      <g id="Grupo_430" data-name="Grupo 430">
        <g id="Grupo_429" data-name="Grupo 429" clip-path="url(#clip-path)">
          <g id="Grupo_428" data-name="Grupo 428" opacity="0.57">
            <rect id="Rectángulo_236" data-name="Rectángulo 236" width="5.325" height="57.227" transform="translate(2534.651 -945.489) rotate(41.773)" fill="#fff"/>
            <rect id="Rectángulo_237" data-name="Rectángulo 237" width="11.877" height="57.227" transform="matrix(0.746, 0.666, -0.666, 0.746, 2545.333, -942.142)" fill="#fff"/>
          </g>
        </g>
      </g>
      <path id="Trazado_608" data-name="Trazado 608" d="M2415.6-928.077c8.052-2.809,42.2-14.019,64.7-10.467a1.271,1.271,0,0,1,1.027,1.555c-1.2,5.059-5.591,23.291-8.093,31.046a3.531,3.531,0,0,1-3.173,2.44l-57.809,3.127-3.379-9.15,4.365-16.2A3.863,3.863,0,0,1,2415.6-928.077Z" fill="#d6e3dd"/>
      <g id="Grupo_433" data-name="Grupo 433">
        <g id="Grupo_432" data-name="Grupo 432" clip-path="url(#clip-path-2)">
          <g id="Grupo_431" data-name="Grupo 431" opacity="0.56">
            <rect id="Rectángulo_238" data-name="Rectángulo 238" width="4.781" height="69.517" transform="matrix(0.78, 0.626, -0.626, 0.78, 2459.407, -947.959)" fill="#fff"/>
            <rect id="Rectángulo_239" data-name="Rectángulo 239" width="18.626" height="69.517" transform="matrix(0.78, 0.626, -0.626, 0.78, 2471.611, -948.377)" fill="#fff"/>
          </g>
        </g>
      </g>
    </g>
  </g>
</svg>
