<svg xmlns="http://www.w3.org/2000/svg" width="37.864" height="34.286" viewBox="0 0 37.864 34.286">
  <g id="Grupo_697" data-name="Grupo 697" transform="translate(-252.734 -265.689)">
    <g id="Grupo_681" data-name="Grupo 681" transform="translate(252.941 266.128)">
      <g id="Grupo_678" data-name="Grupo 678" transform="translate(0 0)">
        <g id="Grupo_658" data-name="Grupo 658" transform="translate(7.9)">
          <g id="Grupo_657" data-name="Grupo 657">
            <path id="Trazado_940" data-name="Trazado 940" d="M660.606,345.442c5.2,0,10.485,5.023,11.146,5.671H660.606v-.81l-.585-4.051-.006-.8C660.208,345.442,660.407,345.442,660.606,345.442Z" transform="translate(-652.414 -345.442)" fill="#90adf4"/>
            <path id="Trazado_941" data-name="Trazado 941" d="M652.983,350.311v.81h-4.1c-2.926,0-4.1-3.24-4.1-3.24v-1.061a22.6,22.6,0,0,1,7.6-1.361l.006.8Z" transform="translate(-644.791 -345.45)" fill="#90adf4"/>
          </g>
        </g>
        <path id="Trazado_942" data-name="Trazado 942" d="M633.653,359.233l-2.926,1.62v-2.43Z" transform="translate(-629.849 -351.942)" fill="#ed5565"/>
        <g id="Grupo_659" data-name="Grupo 659" transform="translate(0.878 6.481)" opacity="0.3">
          <path id="Trazado_943" data-name="Trazado 943" d="M631.312,358.585l-.585-.162v2.43l.585-.324Z" transform="translate(-630.727 -358.423)" fill="#fff"/>
        </g>
        <path id="Trazado_944" data-name="Trazado 944" d="M694.014,363.291h3.9l.778,1.62-3.511-.81Z" transform="translate(-661.538 -354.379)" fill="#e6e9ed"/>
        <g id="Grupo_660" data-name="Grupo 660" transform="translate(35.793 8.912)" opacity="0.2">
          <path id="Trazado_945" data-name="Trazado 945" d="M702.022,364.911l-.778-1.62h-.585l.705,1.468Z" transform="translate(-700.659 -363.291)"/>
        </g>
        <path id="Trazado_946" data-name="Trazado 946" d="M637.162,348.685s1.17,3.24,4.1,3.24H656.5l.071.073,8.678,2.358.392.81h-3.9l1.17.81,3.511.81v4.456a.857.857,0,0,1-.585.81c-.585.161-3.511.4-3.511.4l-.632-.122a24.511,24.511,0,0,0-5.758,0l-.632.122H640.088l-.632-.122a24.511,24.511,0,0,0-5.758,0l-.632.122a12.8,12.8,0,0,1-2.926-.81c-.585-.405-.585-.81-.585-.81v-4.051l.585-1.62,2.926-1.62-2.926-.81a15.8,15.8,0,0,1,4.681-4.051v-1.621l1.755.81s.2-.1.585-.251" transform="translate(-629.262 -346.254)" fill="#59c3d1" stroke="#39adbc" stroke-linecap="round" stroke-linejoin="round" stroke-width="1"/>
        <g id="Grupo_661" data-name="Grupo 661" transform="translate(0.547 1.279)" opacity="0.3">
          <path id="Trazado_947" data-name="Trazado 947" d="M636.873,349.737v-1.464l-.585-.27v1.279a13.742,13.742,0,0,0-4.389,3.757l.6.167S634.944,350.275,636.873,349.737Z" transform="translate(-630.983 -348.003)" fill="#fff"/>
          <path id="Trazado_948" data-name="Trazado 948" d="M630.4,368.962v-4.051l.585-1.62-.39.248-.488,1.431v1.561l-.036,2.452s-.068.166.517.571a14.143,14.143,0,0,0,2.373.66l-.018-.2a6.854,6.854,0,0,1-2.123-.569A1.6,1.6,0,0,1,630.4,368.962Z" transform="translate(-630.064 -355.658)" fill="#fff"/>
        </g>
        <g id="Grupo_662" data-name="Grupo 662" transform="translate(26.371 5.961)" opacity="0.05">
          <path id="Trazado_949" data-name="Trazado 949" d="M689.911,360.046l1.432,0-.133-.269-8.528-2.324a.244.244,0,0,1-.126-.06c-.1,0-.165-.008-.446-.008l-.322.01Z" transform="translate(-681.788 -357.382)"/>
          <path id="Trazado_950" data-name="Trazado 950" d="M698.119,366.755l-.008,4.1a.856.856,0,0,1-.585.81c-.451.125-2.287.3-3.107.37l.17-.015s2.937-.194,3.522-.355a.564.564,0,0,0,.5-.579l0-4.219-.489-.117Z" transform="translate(-688.112 -362.073)"/>
        </g>
        <g id="Grupo_663" data-name="Grupo 663" transform="translate(18.387 0.58)" opacity="0.3">
          <path id="Trazado_951" data-name="Trazado 951" d="M665.8,351.405h1.212l.845-4.37c-.37-.159-.745-.3-1.128-.432Z" transform="translate(-665.796 -346.603)" fill="#fff"/>
        </g>
        <g id="Grupo_664" data-name="Grupo 664" transform="translate(19.91 1.132)" opacity="0.3">
          <path id="Trazado_952" data-name="Trazado 952" d="M668.846,351.959h.3l.788-4.121c-.091-.044-.184-.087-.278-.129Z" transform="translate(-668.846 -347.709)" fill="#fff"/>
        </g>
        <g id="Grupo_665" data-name="Grupo 665" transform="translate(11.253 0.127)" opacity="0.3">
          <path id="Trazado_953" data-name="Trazado 953" d="M652.472,345.848l-.964,4.987a3.7,3.7,0,0,0,.8.094h.389l1.01-5.233Q653.06,345.761,652.472,345.848Z" transform="translate(-651.508 -345.697)" fill="#fff"/>
        </g>
        <g id="Grupo_666" data-name="Grupo 666" transform="translate(12.722 0.075)" opacity="0.3">
          <path id="Trazado_954" data-name="Trazado 954" d="M654.449,350.9h.3l1.049-5.307c-.1.008-.205.017-.308.026Z" transform="translate(-654.449 -345.592)" fill="#fff"/>
        </g>
        <g id="Grupo_667" data-name="Grupo 667" transform="translate(0 0.404)">
          <path id="Trazado_955" data-name="Trazado 955" d="M665.591,361.667h-1.17c-.162,0-.293-.181-.293-.4s.131-.4.293-.4h1.17c.162,0,.293.181.293.4S665.753,361.667,665.591,361.667Z" transform="translate(-646.574 -353.565)" fill="#575756"/>
          <path id="Trazado_956" data-name="Trazado 956" d="M652.7,361.667h-1.17c-.161,0-.293-.181-.293-.4s.131-.4.293-.4h1.17c.162,0,.293.181.293.4S652.861,361.667,652.7,361.667Z" transform="translate(-640.119 -353.565)" fill="#575756"/>
          <path id="Trazado_957" data-name="Trazado 957" d="M631.017,369.78h-1.755c-.162,0-.293-.181-.293-.405s.131-.4.293-.4h1.755c.161,0,.293.181.293.4S631.178,369.78,631.017,369.78Z" transform="translate(-628.969 -357.627)" fill="#3c94a0"/>
          <path id="Trazado_958" data-name="Trazado 958" d="M660.318,351.113c-.137,0-.259-.133-.287-.326l-.585-4.051a.42.42,0,0,1,.229-.477c.161-.047.313.1.345.318l.585,4.051a.421.421,0,0,1-.23.477A.211.211,0,0,1,660.318,351.113Z" transform="translate(-644.227 -346.251)" fill="#39adbc"/>
        </g>
        <g id="Grupo_672" data-name="Grupo 672" transform="translate(3.698 12.127)">
          <path id="Trazado_959" data-name="Trazado 959" d="M644.528,373.807a4.076,4.076,0,1,1-4.076-4.076A4.077,4.077,0,0,1,644.528,373.807Z" transform="translate(-636.376 -369.731)" fill="#656d78" stroke="#333" stroke-miterlimit="10" stroke-width="1"/>
          <g id="Grupo_668" data-name="Grupo 668" opacity="0.2">
            <path id="Trazado_960" data-name="Trazado 960" d="M637.282,373.807a4.063,4.063,0,0,1,3.623-4.03,3.856,3.856,0,0,0-.453-.046,4.076,4.076,0,1,0,0,8.152,3.856,3.856,0,0,0,.453-.046A4.064,4.064,0,0,1,637.282,373.807Z" transform="translate(-636.376 -369.731)" fill="#fff"/>
          </g>
          <g id="Grupo_669" data-name="Grupo 669" transform="translate(3.623)" opacity="0.2">
            <path id="Trazado_961" data-name="Trazado 961" d="M647.256,373.807a4.064,4.064,0,0,1-3.623,4.03,3.858,3.858,0,0,0,.453.046,4.076,4.076,0,0,0,0-8.152,3.858,3.858,0,0,0-.453.046A4.063,4.063,0,0,1,647.256,373.807Z" transform="translate(-643.633 -369.731)"/>
          </g>
          <path id="Trazado_962" data-name="Trazado 962" d="M644.533,375.623a2.264,2.264,0,1,1-2.264-2.264A2.266,2.266,0,0,1,644.533,375.623Z" transform="translate(-638.193 -371.548)" fill="#ccd1d9"/>
          <g id="Grupo_670" data-name="Grupo 670" transform="translate(1.812 1.811)" opacity="0.5">
            <path id="Trazado_963" data-name="Trazado 963" d="M640.911,375.623a2.268,2.268,0,0,1,1.811-2.218,2.264,2.264,0,1,0,0,4.437A2.267,2.267,0,0,1,640.911,375.623Z" transform="translate(-640.005 -373.359)" fill="#fff"/>
          </g>
          <g id="Grupo_671" data-name="Grupo 671" transform="translate(3.623 1.811)" opacity="0.2">
            <path id="Trazado_964" data-name="Trazado 964" d="M645.444,375.623a2.267,2.267,0,0,1-1.811,2.218,2.218,2.218,0,0,0,.453.046,2.264,2.264,0,1,0-.453-4.483A2.267,2.267,0,0,1,645.444,375.623Z" transform="translate(-643.633 -373.359)"/>
          </g>
          <path id="Trazado_965" data-name="Trazado 965" d="M644.135,375.172a.457.457,0,0,1-.457-.453.449.449,0,0,1,.448-.453h.009a.453.453,0,0,1,0,.906Z" transform="translate(-640.032 -372.002)" fill="#575756"/>
          <path id="Trazado_966" data-name="Trazado 966" d="M644.135,380.614a.456.456,0,0,1-.457-.453.449.449,0,0,1,.448-.453h.009a.453.453,0,0,1,0,.906Z" transform="translate(-640.032 -374.727)" fill="#575756"/>
          <path id="Trazado_967" data-name="Trazado 967" d="M641.779,376.533a.457.457,0,0,1-.457-.453.449.449,0,0,1,.448-.453h.009a.453.453,0,1,1,0,.906Z" transform="translate(-638.853 -372.683)" fill="#575756"/>
          <path id="Trazado_968" data-name="Trazado 968" d="M646.491,379.254a.457.457,0,0,1-.457-.453.449.449,0,0,1,.448-.453h.009a.453.453,0,1,1,0,.906Z" transform="translate(-641.212 -374.046)" fill="#575756"/>
          <path id="Trazado_969" data-name="Trazado 969" d="M641.779,379.254a.457.457,0,0,1-.457-.453.449.449,0,0,1,.448-.453h.009a.453.453,0,1,1,0,.906Z" transform="translate(-638.853 -374.046)" fill="#575756"/>
          <path id="Trazado_970" data-name="Trazado 970" d="M646.491,376.533a.457.457,0,0,1-.457-.453.449.449,0,0,1,.448-.453h.009a.453.453,0,1,1,0,.906Z" transform="translate(-641.212 -372.683)" fill="#575756"/>
          <path id="Trazado_971" data-name="Trazado 971" d="M644.135,377.893a.456.456,0,0,1-.457-.453.449.449,0,0,1,.448-.453h.009a.453.453,0,0,1,0,.906Z" transform="translate(-640.032 -373.364)" fill="#575756"/>
        </g>
        <g id="Grupo_677" data-name="Grupo 677" transform="translate(25.453 12.127)">
          <path id="Trazado_972" data-name="Trazado 972" d="M688.1,373.807a4.076,4.076,0,1,1-4.076-4.076A4.077,4.077,0,0,1,688.1,373.807Z" transform="translate(-679.949 -369.731)" fill="#656d78" stroke="#333" stroke-miterlimit="10" stroke-width="1"/>
          <g id="Grupo_673" data-name="Grupo 673" opacity="0.2">
            <path id="Trazado_973" data-name="Trazado 973" d="M680.855,373.807a4.063,4.063,0,0,1,3.623-4.03,3.857,3.857,0,0,0-.453-.046,4.076,4.076,0,1,0,0,8.152,3.857,3.857,0,0,0,.453-.046A4.064,4.064,0,0,1,680.855,373.807Z" transform="translate(-679.949 -369.731)" fill="#fff"/>
          </g>
          <g id="Grupo_674" data-name="Grupo 674" transform="translate(3.623)" opacity="0.2">
            <path id="Trazado_974" data-name="Trazado 974" d="M690.829,373.807a4.064,4.064,0,0,1-3.623,4.03,3.858,3.858,0,0,0,.453.046,4.076,4.076,0,0,0,0-8.152,3.858,3.858,0,0,0-.453.046A4.063,4.063,0,0,1,690.829,373.807Z" transform="translate(-687.206 -369.731)"/>
          </g>
          <path id="Trazado_975" data-name="Trazado 975" d="M688.106,375.623a2.264,2.264,0,1,1-2.264-2.264A2.266,2.266,0,0,1,688.106,375.623Z" transform="translate(-681.766 -371.548)" fill="#ccd1d9"/>
          <g id="Grupo_675" data-name="Grupo 675" transform="translate(1.812 1.811)" opacity="0.5">
            <path id="Trazado_976" data-name="Trazado 976" d="M684.484,375.623A2.268,2.268,0,0,1,686.3,373.4a2.264,2.264,0,1,0,0,4.437A2.267,2.267,0,0,1,684.484,375.623Z" transform="translate(-683.578 -373.359)" fill="#fff"/>
          </g>
          <g id="Grupo_676" data-name="Grupo 676" transform="translate(3.623 1.811)" opacity="0.2">
            <path id="Trazado_977" data-name="Trazado 977" d="M689.017,375.623a2.267,2.267,0,0,1-1.811,2.218,2.218,2.218,0,0,0,.453.046,2.264,2.264,0,1,0-.453-4.483A2.267,2.267,0,0,1,689.017,375.623Z" transform="translate(-687.206 -373.359)"/>
          </g>
          <path id="Trazado_978" data-name="Trazado 978" d="M687.708,375.172a.457.457,0,0,1-.457-.453.449.449,0,0,1,.448-.453h.009a.453.453,0,0,1,0,.906Z" transform="translate(-683.605 -372.002)" fill="#575756"/>
          <path id="Trazado_979" data-name="Trazado 979" d="M687.708,380.614a.456.456,0,0,1-.457-.453.449.449,0,0,1,.448-.453h.009a.453.453,0,0,1,0,.906Z" transform="translate(-683.605 -374.727)" fill="#575756"/>
          <path id="Trazado_980" data-name="Trazado 980" d="M685.352,376.533a.457.457,0,0,1-.457-.453.449.449,0,0,1,.448-.453h.009a.453.453,0,1,1,0,.906Z" transform="translate(-682.426 -372.683)" fill="#575756"/>
          <path id="Trazado_981" data-name="Trazado 981" d="M690.064,379.254a.457.457,0,0,1-.457-.453.449.449,0,0,1,.448-.453h.009a.453.453,0,1,1,0,.906Z" transform="translate(-684.785 -374.046)" fill="#575756"/>
          <path id="Trazado_982" data-name="Trazado 982" d="M685.352,379.254a.457.457,0,0,1-.457-.453.449.449,0,0,1,.448-.453h.009a.453.453,0,1,1,0,.906Z" transform="translate(-682.426 -374.046)" fill="#575756"/>
          <path id="Trazado_983" data-name="Trazado 983" d="M690.064,376.533a.457.457,0,0,1-.457-.453.449.449,0,0,1,.448-.453h.009a.453.453,0,1,1,0,.906Z" transform="translate(-684.785 -372.683)" fill="#575756"/>
          <path id="Trazado_984" data-name="Trazado 984" d="M687.708,377.893a.456.456,0,0,1-.457-.453.449.449,0,0,1,.448-.453h.009a.453.453,0,0,1,0,.906Z" transform="translate(-683.605 -373.364)" fill="#575756"/>
        </g>
        <path id="Trazado_985" data-name="Trazado 985" d="M644.858,347.928s7.534-3.4,14.1-.608c0,0-4.117-3.6-14.17-.44" transform="translate(-636.891 -345.511)" fill="#67cbdf" stroke="#39adbc" stroke-linecap="round" stroke-linejoin="round" stroke-width="1"/>
      </g>
      <g id="Grupo_680" data-name="Grupo 680" transform="translate(12.919 23.701)">
        <g id="Grupo_679" data-name="Grupo 679">
          <path id="Trazado_986" data-name="Trazado 986" d="M666.163,392.913,660.5,403.058l-5.659-10.145Z" transform="translate(-654.845 -392.913)" fill="#d5b42a"/>
        </g>
      </g>
    </g>
  </g>
</svg>
