<svg xmlns="http://www.w3.org/2000/svg" xmlns:xlink="http://www.w3.org/1999/xlink" width="58.281" height="45.307" viewBox="0 0 58.281 45.307">
  <defs>
    <clipPath id="clip-path">
      <path id="Trazado_858" data-name="Trazado 858" d="M1144.494,359.489v-9.513h9.6c4.266,0,3.2,5.332,7.466,5.332h1.962a17.442,17.442,0,0,1,.171,2.133l-1.066,1.066v6.4h-6.4s0-5.333-4.266-5.333h-7.466v-.085Z" transform="translate(-1144.494 -349.976)" fill="none"/>
    </clipPath>
  </defs>
  <g id="En_servicio_Cargado" data-name="En servicio Cargado" transform="translate(0.244 0.447)">
    <g id="Grupo_653" data-name="Grupo 653" transform="translate(0 0)">
      <path id="Trazado_842" data-name="Trazado 842" d="M1138.1,353.371V337.78l2.055-1.92v17.51Z" transform="translate(-1104.583 -333.585)" fill="#d64556" stroke="#b23446" stroke-linecap="round" stroke-linejoin="round" stroke-width="1"/>
      <path id="Trazado_843" data-name="Trazado 843" d="M1114.452,372.212h-27.179l-2.489-3.388h31.875Z" transform="translate(-1077.889 -350.091)" fill="#d64556" stroke="#b23446" stroke-linecap="round" stroke-linejoin="round" stroke-width="1"/>
      <g id="Grupo_614" data-name="Grupo 614" transform="translate(10.953 22.121)">
        <path id="Trazado_844" data-name="Trazado 844" d="M1118.529,375.61v3.2h-22.418l-3.2-3.2" transform="translate(-1092.912 -375.61)" fill="#aab2bd" stroke="#666" stroke-linecap="round" stroke-linejoin="round" stroke-width="1"/>
        <line id="Línea_202" data-name="Línea 202" x2="25.618" stroke-width="1" stroke="#b23446" stroke-linecap="round" stroke-linejoin="round" fill="#d64556"/>
      </g>
      <g id="Grupo_615" data-name="Grupo 615" transform="translate(10.953 22.121)" opacity="0.2">
        <path id="Trazado_845" data-name="Trazado 845" d="M1118.529,375.61h-25.618l1.067,1.066h24.551Z" transform="translate(-1092.912 -375.61)" stroke="#333" stroke-linecap="round" stroke-linejoin="round" stroke-width="1"/>
      </g>
      <path id="Trazado_846" data-name="Trazado 846" d="M1154.047,369.2h-7.214l-2.159,3.292v5.24l2.181,0v-3.2h11.458S1158.313,369.2,1154.047,369.2Z" transform="translate(-1107.877 -350.28)" fill="#656d78"/>
      <path id="Trazado_847" data-name="Trazado 847" d="M1150.893,335.023c9.8,0,12.094,8.724,12.628,12.8h-1.962c-4.266,0-3.2-5.333-7.466-5.333h-9.6v-7.466Z" transform="translate(-1107.787 -333.166)" fill="#90adf4"/>
      <path id="Trazado_848" data-name="Trazado 848" d="M1182.941,368.128v1.067h-2.133V366l1.066-1.067,1.067,1.067Z" transform="translate(-1125.97 -348.141)" fill="#d5b42a"/>
      <path id="Trazado_849" data-name="Trazado 849" d="M1184.008,373.474v3.2h-3.2v-3.2h3.2Z" transform="translate(-1125.97 -352.419)" fill="#656d78"/>
      <path id="Trazado_850" data-name="Trazado 850" d="M1144.494,352V335.023h6.651a13.016,13.016,0,0,1,5.614,1.321l-10.622.007v6.138h7.957c4.266,0,3.2,5.332,7.466,5.332h1.962a17.442,17.442,0,0,1,.171,2.133l-1.066,1.066v6.4h-6.4s0-5.333-4.266-5.333h-7.466V352Z" transform="translate(-1107.787 -333.166)" fill="#d64556"/>
      <g id="Grupo_618" data-name="Grupo 618" transform="translate(36.707 9.323)">
        <g id="Grupo_617" data-name="Grupo 617" clip-path="url(#clip-path)">
          <path id="Trazado_851" data-name="Trazado 851" d="M1155.485,362.3H1145l7.323-19.971h10.485Z" transform="translate(-1144.747 -346.149)" fill="#aab2bd"/>
          <path id="Trazado_852" data-name="Trazado 852" d="M1155.488,362.3H1147l7.323-19.971h8.488Z" transform="translate(-1145.749 -346.149)" fill="#f2f2f2"/>
          <g id="Grupo_616" data-name="Grupo 616" transform="translate(5.55 4.266)">
            <path id="Trazado_853" data-name="Trazado 853" d="M1157.56,359.6l.036-.655a1.415,1.415,0,0,0-1.151-.3.855.855,0,0,0-.739.7.978.978,0,0,0,.093.6,1.127,1.127,0,0,0,.361.285c.307.188.454.274.454.274s.217.115.117.245a.169.169,0,0,1-.11.055,1.087,1.087,0,0,1-.571-.1.9.9,0,0,1-.392-.274,5.251,5.251,0,0,0-.046.81,1.613,1.613,0,0,0,1.015.361s.706.023.925-.443a.973.973,0,0,0-.122-1.067,1.341,1.341,0,0,0-.406-.279c-.289-.141-.362-.225-.374-.329,0,0,0-.181.331-.166a.946.946,0,0,1,.58.286" transform="translate(-1155.609 -358.575)" fill="#bd2a2a"/>
            <path id="Trazado_854" data-name="Trazado 854" d="M1168.255,359.6l.037-.655a1.415,1.415,0,0,0-1.151-.3.856.856,0,0,0-.739.7.973.973,0,0,0,.093.6,1.116,1.116,0,0,0,.361.285c.307.188.454.274.454.274s.217.115.117.245a.169.169,0,0,1-.11.055,1.087,1.087,0,0,1-.571-.1.9.9,0,0,1-.393-.274,5.325,5.325,0,0,0-.045.81,1.615,1.615,0,0,0,1.015.361s.705.023.925-.443a.973.973,0,0,0-.122-1.067,1.327,1.327,0,0,0-.405-.279c-.29-.141-.362-.225-.375-.329,0,0,0-.181.332-.166a.943.943,0,0,1,.579.286" transform="translate(-1160.965 -358.575)" fill="#bd2a2a"/>
            <path id="Trazado_855" data-name="Trazado 855" d="M1160.059,363.786a.23.23,0,1,1-.231-.231.23.23,0,0,1,.231.231" transform="translate(-1157.606 -361.041)" fill="#bd2a2a"/>
            <path id="Trazado_856" data-name="Trazado 856" d="M1165.583,363.786a.231.231,0,1,1-.231-.231.231.231,0,0,1,.231.231" transform="translate(-1160.372 -361.041)" fill="#bd2a2a"/>
            <path id="Trazado_857" data-name="Trazado 857" d="M1161.439,358.52a1.508,1.508,0,1,0,1.508,1.508A1.508,1.508,0,0,0,1161.439,358.52Zm-.82,1.508a.812.812,0,0,1,.172-.5l.886,1.277a.8.8,0,0,1-.238.039A.82.82,0,0,1,1160.619,360.028Zm1.467.5-.894-1.275a.809.809,0,0,1,.247-.042.82.82,0,0,1,.82.819A.81.81,0,0,1,1162.086,360.526Z" transform="translate(-1157.773 -358.52)" fill="#bd2a2a"/>
          </g>
        </g>
      </g>
      <g id="Grupo_619" data-name="Grupo 619" transform="translate(53.771 14.655)" opacity="0.2">
        <path id="Trazado_859" data-name="Trazado 859" d="M1180.634,360.656h-1.067a14.953,14.953,0,0,1,.171,1.684l-1.067,1.066v6.849h1.067v-6.4l1.066-1.066A17.43,17.43,0,0,0,1180.634,360.656Z" transform="translate(-1178.672 -360.656)"/>
      </g>
      <g id="Grupo_620" data-name="Grupo 620" transform="translate(41.596 3.18)" opacity="0.3">
        <path id="Trazado_860" data-name="Trazado 860" d="M1156.494,343.816l1.646-6.143c-.734,0-1.431,0-2.208,0l-1.646,6.141Z" transform="translate(-1154.286 -337.673)" fill="#fff"/>
      </g>
      <g id="Grupo_621" data-name="Grupo 621" transform="translate(44.356 3.159)" opacity="0.3">
        <path id="Trazado_861" data-name="Trazado 861" d="M1160.366,343.794l1.647-6.144a2.35,2.35,0,0,0-.553,0l-1.646,6.143Z" transform="translate(-1159.814 -337.631)" fill="#fff"/>
      </g>
      <g id="Grupo_622" data-name="Grupo 622" transform="translate(36.707 1.857)" opacity="0.3">
        <rect id="Rectángulo_306" data-name="Rectángulo 306" width="1.067" height="17.065" fill="#fff"/>
      </g>
      <path id="Trazado_862" data-name="Trazado 862" d="M1156.091,378.828a5.242,5.242,0,1,1-5.242-5.242A5.244,5.244,0,0,1,1156.091,378.828Z" transform="translate(-1108.344 -352.475)" fill="#656d78" stroke="#333" stroke-miterlimit="10" stroke-width="1"/>
      <g id="Grupo_623" data-name="Grupo 623" transform="translate(37.262 21.111)" opacity="0.2">
        <path id="Trazado_863" data-name="Trazado 863" d="M1146.771,378.828a5.226,5.226,0,0,1,4.66-5.184,4.958,4.958,0,0,0-.583-.059,5.242,5.242,0,0,0,0,10.485,4.958,4.958,0,0,0,.583-.059A5.226,5.226,0,0,1,1146.771,378.828Z" transform="translate(-1145.606 -373.586)" fill="#fff"/>
      </g>
      <g id="Grupo_624" data-name="Grupo 624" transform="translate(41.922 21.111)" opacity="0.2">
        <path id="Trazado_864" data-name="Trazado 864" d="M1159.6,378.828a5.226,5.226,0,0,1-4.66,5.184,4.947,4.947,0,0,0,.582.059,5.242,5.242,0,0,0,0-10.485,4.947,4.947,0,0,0-.582.059A5.226,5.226,0,0,1,1159.6,378.828Z" transform="translate(-1154.94 -373.586)"/>
      </g>
      <path id="Trazado_865" data-name="Trazado 865" d="M1156.1,381.165a2.913,2.913,0,1,1-2.913-2.912A2.916,2.916,0,0,1,1156.1,381.165Z" transform="translate(-1110.681 -354.812)" fill="#ccd1d9"/>
      <g id="Grupo_625" data-name="Grupo 625" transform="translate(39.592 23.441)" opacity="0.5">
        <path id="Trazado_866" data-name="Trazado 866" d="M1151.438,381.165a2.916,2.916,0,0,1,2.33-2.853,2.913,2.913,0,1,0,0,5.707A2.916,2.916,0,0,1,1151.438,381.165Z" transform="translate(-1150.273 -378.253)" fill="#fff"/>
      </g>
      <g id="Grupo_626" data-name="Grupo 626" transform="translate(41.922 23.441)" opacity="0.2">
        <path id="Trazado_867" data-name="Trazado 867" d="M1157.27,381.165a2.916,2.916,0,0,1-2.33,2.853,2.867,2.867,0,0,0,.582.059,2.913,2.913,0,1,0-.582-5.766A2.916,2.916,0,0,1,1157.27,381.165Z" transform="translate(-1154.94 -378.253)"/>
      </g>
      <path id="Trazado_868" data-name="Trazado 868" d="M1155.587,380.585A.587.587,0,0,1,1155,380a.577.577,0,0,1,.576-.582h.012a.582.582,0,1,1,0,1.165Z" transform="translate(-1113.047 -355.397)" fill="#575756"/>
      <path id="Trazado_869" data-name="Trazado 869" d="M1155.587,387.585A.587.587,0,0,1,1155,387a.577.577,0,0,1,.576-.582h.012a.582.582,0,1,1,0,1.165Z" transform="translate(-1113.047 -358.902)" fill="#575756"/>
      <path id="Trazado_870" data-name="Trazado 870" d="M1152.556,382.334a.587.587,0,0,1-.588-.583.577.577,0,0,1,.576-.583h.012a.583.583,0,1,1,0,1.165Z" transform="translate(-1111.529 -356.272)" fill="#575756"/>
      <path id="Trazado_871" data-name="Trazado 871" d="M1158.618,385.835a.587.587,0,0,1-.588-.583.577.577,0,0,1,.576-.582h.012a.582.582,0,0,1,0,1.165Z" transform="translate(-1114.565 -358.025)" fill="#575756"/>
      <path id="Trazado_872" data-name="Trazado 872" d="M1152.556,385.835a.587.587,0,0,1-.588-.583.577.577,0,0,1,.576-.582h.012a.582.582,0,1,1,0,1.165Z" transform="translate(-1111.529 -358.025)" fill="#575756"/>
      <path id="Trazado_873" data-name="Trazado 873" d="M1158.618,382.334a.587.587,0,0,1-.588-.583.577.577,0,0,1,.576-.583h.012a.583.583,0,0,1,0,1.165Z" transform="translate(-1114.565 -356.272)" fill="#575756"/>
      <path id="Trazado_874" data-name="Trazado 874" d="M1155.587,384.085a.587.587,0,0,1-.588-.583.577.577,0,0,1,.576-.582h.012a.582.582,0,1,1,0,1.165Z" transform="translate(-1113.047 -357.149)" fill="#575756"/>
      <path id="Trazado_875" data-name="Trazado 875" d="M1150.364,358.518h-2.133a.533.533,0,0,1,0-1.066h2.133a.533.533,0,0,1,0,1.066Z" transform="translate(-1109.391 -344.397)" fill="#575756"/>
      <path id="Trazado_876" data-name="Trazado 876" d="M1144.494,352V335.023h6.651a13.016,13.016,0,0,1,5.614,1.321l-10.622.007v6.138h7.957c4.266,0,3.2,5.332,7.466,5.332h1.962a17.442,17.442,0,0,1,.171,2.133l-1.066,1.066v6.4h-6.4s0-5.333-4.266-5.333h-7.466V352Z" transform="translate(-1107.787 -333.166)" fill="none" stroke="#b23446" stroke-linecap="round" stroke-linejoin="round" stroke-width="1"/>
      <g id="Grupo_631" data-name="Grupo 631" transform="translate(13.778 21.111)">
        <path id="Trazado_877" data-name="Trazado 877" d="M1109.054,378.828a5.242,5.242,0,1,1-5.242-5.242A5.244,5.244,0,0,1,1109.054,378.828Z" transform="translate(-1098.569 -373.586)" fill="#656d78" stroke="#333" stroke-miterlimit="10" stroke-width="1"/>
        <g id="Grupo_627" data-name="Grupo 627" opacity="0.2">
          <path id="Trazado_878" data-name="Trazado 878" d="M1099.734,378.828a5.227,5.227,0,0,1,4.66-5.184,4.966,4.966,0,0,0-.583-.059,5.242,5.242,0,0,0,0,10.485,4.966,4.966,0,0,0,.583-.059A5.227,5.227,0,0,1,1099.734,378.828Z" transform="translate(-1098.569 -373.586)" fill="#fff"/>
        </g>
        <g id="Grupo_628" data-name="Grupo 628" transform="translate(4.66)" opacity="0.2">
          <path id="Trazado_879" data-name="Trazado 879" d="M1112.562,378.828a5.226,5.226,0,0,1-4.66,5.184,4.968,4.968,0,0,0,.583.059,5.242,5.242,0,0,0,0-10.485,4.968,4.968,0,0,0-.583.059A5.226,5.226,0,0,1,1112.562,378.828Z" transform="translate(-1107.902 -373.586)"/>
        </g>
        <path id="Trazado_880" data-name="Trazado 880" d="M1109.061,381.165a2.912,2.912,0,1,1-2.912-2.912A2.915,2.915,0,0,1,1109.061,381.165Z" transform="translate(-1100.906 -375.923)" fill="#ccd1d9"/>
        <g id="Grupo_629" data-name="Grupo 629" transform="translate(2.33 2.33)" opacity="0.5">
          <path id="Trazado_881" data-name="Trazado 881" d="M1104.4,381.165a2.917,2.917,0,0,1,2.33-2.853,2.912,2.912,0,1,0,0,5.707A2.916,2.916,0,0,1,1104.4,381.165Z" transform="translate(-1103.236 -378.253)" fill="#fff"/>
        </g>
        <g id="Grupo_630" data-name="Grupo 630" transform="translate(4.66 2.33)" opacity="0.2">
          <path id="Trazado_882" data-name="Trazado 882" d="M1110.232,381.165a2.916,2.916,0,0,1-2.33,2.853,2.872,2.872,0,0,0,.583.059,2.912,2.912,0,1,0-.583-5.766A2.916,2.916,0,0,1,1110.232,381.165Z" transform="translate(-1107.902 -378.253)"/>
        </g>
        <path id="Trazado_883" data-name="Trazado 883" d="M1108.548,380.585a.587.587,0,0,1-.588-.583.577.577,0,0,1,.577-.582h.011a.582.582,0,1,1,0,1.165Z" transform="translate(-1103.271 -376.507)" fill="#575756"/>
        <path id="Trazado_884" data-name="Trazado 884" d="M1108.548,387.584a.587.587,0,0,1-.588-.583.578.578,0,0,1,.577-.583h.011a.583.583,0,1,1,0,1.165Z" transform="translate(-1103.271 -380.012)" fill="#575756"/>
        <path id="Trazado_885" data-name="Trazado 885" d="M1105.518,382.334a.587.587,0,0,1-.588-.583.577.577,0,0,1,.577-.583h.012a.583.583,0,0,1,0,1.165Z" transform="translate(-1101.754 -377.383)" fill="#575756"/>
        <path id="Trazado_886" data-name="Trazado 886" d="M1111.579,385.835a.587.587,0,0,1-.588-.583.577.577,0,0,1,.577-.582h.011a.582.582,0,1,1,0,1.165Z" transform="translate(-1104.789 -379.136)" fill="#575756"/>
        <path id="Trazado_887" data-name="Trazado 887" d="M1105.518,385.835a.587.587,0,0,1-.588-.583.577.577,0,0,1,.577-.582h.012a.582.582,0,0,1,0,1.165Z" transform="translate(-1101.754 -379.136)" fill="#575756"/>
        <path id="Trazado_888" data-name="Trazado 888" d="M1111.579,382.334a.587.587,0,0,1-.588-.583.577.577,0,0,1,.577-.583h.011a.583.583,0,1,1,0,1.165Z" transform="translate(-1104.789 -377.383)" fill="#575756"/>
        <path id="Trazado_889" data-name="Trazado 889" d="M1108.548,384.085a.587.587,0,0,1-.588-.583.577.577,0,0,1,.577-.582h.011a.582.582,0,1,1,0,1.165Z" transform="translate(-1103.271 -378.26)" fill="#575756"/>
      </g>
      <path id="Trazado_890" data-name="Trazado 890" d="M1135.8,400.833l-5.659,10.145-5.659-10.145Z" transform="translate(-1097.768 -366.119)" fill="#557ffb"/>
      <g id="Grupo_652" data-name="Grupo 652">
        <g id="Grupo_632" data-name="Grupo 632" transform="translate(6.909)">
          <path id="Trazado_891" data-name="Trazado 891" d="M1098.644,331.3c4.549,0,9.171,4.393,9.748,4.96h-9.748v-.708l-.512-3.543-.005-.7C1098.3,331.3,1098.47,331.3,1098.644,331.3Z" transform="translate(-1091.479 -331.304)" fill="#90adf4"/>
          <path id="Trazado_892" data-name="Trazado 892" d="M1091.977,335.562v.708h-3.582c-2.559,0-3.582-2.834-3.582-2.834v-.928a19.776,19.776,0,0,1,6.648-1.19l.005.7Z" transform="translate(-1084.812 -331.311)" fill="#90adf4"/>
        </g>
        <path id="Trazado_893" data-name="Trazado 893" d="M1075.071,343.366l-2.559,1.417v-2.126Z" transform="translate(-1071.744 -336.989)" fill="#ed5565"/>
        <g id="Grupo_633" data-name="Grupo 633" transform="translate(0.768 5.668)" opacity="0.3">
          <path id="Trazado_894" data-name="Trazado 894" d="M1073.024,342.8l-.512-.142v2.126l.512-.283Z" transform="translate(-1072.512 -342.657)" fill="#fff"/>
        </g>
        <path id="Trazado_895" data-name="Trazado 895" d="M1127.862,346.914h3.413l.681,1.417-3.071-.709Z" transform="translate(-1099.459 -339.12)" fill="#e6e9ed"/>
        <g id="Grupo_634" data-name="Grupo 634" transform="translate(31.304 7.794)" opacity="0.2">
          <path id="Trazado_896" data-name="Trazado 896" d="M1134.866,348.331l-.681-1.417h-.512l.617,1.284Z" transform="translate(-1133.673 -346.914)"/>
        </g>
        <path id="Trazado_897" data-name="Trazado 897" d="M1078.14,334.14s1.024,2.834,3.582,2.834h13.331l.062.063,7.589,2.062.343.708h-3.413l1.023.708,3.071.709v3.9a.749.749,0,0,1-.512.708c-.512.141-3.071.354-3.071.354l-.552-.106a21.451,21.451,0,0,0-5.036,0l-.553.106H1080.7l-.553-.106a21.449,21.449,0,0,0-5.036,0l-.553.106a11.183,11.183,0,0,1-2.559-.708c-.512-.354-.512-.708-.512-.708v-3.542l.512-1.417,2.559-1.417-2.559-.708a13.823,13.823,0,0,1,4.094-3.543v-1.417l1.535.708s.174-.085.512-.22" transform="translate(-1071.231 -332.015)" fill="#59c3d1" stroke="#39adbc" stroke-linecap="round" stroke-linejoin="round" stroke-width="1"/>
        <g id="Grupo_635" data-name="Grupo 635" transform="translate(0.479 1.118)" opacity="0.3">
          <path id="Trazado_898" data-name="Trazado 898" d="M1077.887,335.06v-1.28l-.512-.236v1.118a12.022,12.022,0,0,0-3.839,3.286l.522.146S1076.2,335.532,1077.887,335.06Z" transform="translate(-1072.736 -333.544)" fill="#fff"/>
          <path id="Trazado_899" data-name="Trazado 899" d="M1072.222,351.874v-3.542l.512-1.417-.34.217-.427,1.252v1.366l-.031,2.145s-.059.145.452.5a12.383,12.383,0,0,0,2.075.577l-.015-.172a5.984,5.984,0,0,1-1.857-.5A1.4,1.4,0,0,1,1072.222,351.874Z" transform="translate(-1071.933 -340.239)" fill="#fff"/>
        </g>
        <g id="Grupo_636" data-name="Grupo 636" transform="translate(23.064 5.213)" opacity="0.05">
          <path id="Trazado_900" data-name="Trazado 900" d="M1124.273,344.076l1.252,0-.116-.235-7.458-2.033a.213.213,0,0,1-.11-.052c-.086,0-.144-.008-.391-.008l-.282.009Z" transform="translate(-1117.169 -341.746)"/>
          <path id="Trazado_901" data-name="Trazado 901" d="M1131.452,349.945l-.007,3.585a.749.749,0,0,1-.512.708c-.394.109-2,.26-2.718.324l.149-.013s2.569-.169,3.081-.311a.492.492,0,0,0,.439-.506l0-3.69-.428-.1Z" transform="translate(-1122.7 -345.849)"/>
        </g>
        <g id="Grupo_637" data-name="Grupo 637" transform="translate(16.081 0.507)" opacity="0.3">
          <path id="Trazado_902" data-name="Trazado 902" d="M1103.183,336.519h1.06l.739-3.822q-.484-.209-.987-.378Z" transform="translate(-1103.183 -332.319)" fill="#fff"/>
        </g>
        <g id="Grupo_638" data-name="Grupo 638" transform="translate(17.413 0.99)" opacity="0.3">
          <path id="Trazado_903" data-name="Trazado 903" d="M1105.85,337h.265l.689-3.6c-.08-.038-.161-.076-.243-.113Z" transform="translate(-1105.85 -333.286)" fill="#fff"/>
        </g>
        <g id="Grupo_639" data-name="Grupo 639" transform="translate(9.842 0.111)" opacity="0.3">
          <path id="Trazado_904" data-name="Trazado 904" d="M1091.53,331.659l-.843,4.362a3.228,3.228,0,0,0,.7.083h.341l.884-4.577C1092.234,331.564,1091.873,331.609,1091.53,331.659Z" transform="translate(-1090.687 -331.527)" fill="#fff"/>
        </g>
        <g id="Grupo_640" data-name="Grupo 640" transform="translate(11.126 0.066)" opacity="0.3">
          <path id="Trazado_905" data-name="Trazado 905" d="M1093.259,336.077h.265l.917-4.641-.269.022Z" transform="translate(-1093.259 -331.436)" fill="#fff"/>
        </g>
        <g id="Grupo_641" data-name="Grupo 641" transform="translate(0 0.353)">
          <path id="Trazado_906" data-name="Trazado 906" d="M1103,345.494h-1.023c-.141,0-.256-.159-.256-.354s.115-.354.256-.354H1103c.141,0,.256.158.256.354S1103.145,345.494,1103,345.494Z" transform="translate(-1086.371 -338.408)" fill="#575756"/>
          <path id="Trazado_907" data-name="Trazado 907" d="M1091.729,345.494h-1.024c-.141,0-.256-.159-.256-.354s.115-.354.256-.354h1.024c.141,0,.256.158.256.354S1091.87,345.494,1091.729,345.494Z" transform="translate(-1080.726 -338.408)" fill="#575756"/>
          <path id="Trazado_908" data-name="Trazado 908" d="M1072.765,352.589h-1.535c-.141,0-.256-.158-.256-.354s.115-.354.256-.354h1.535c.141,0,.256.159.256.354S1072.907,352.589,1072.765,352.589Z" transform="translate(-1070.974 -341.961)" fill="#3c94a0"/>
          <path id="Trazado_909" data-name="Trazado 909" d="M1098.391,336.264c-.119,0-.226-.116-.251-.285l-.512-3.543a.368.368,0,0,1,.2-.417c.141-.041.274.086.3.278l.512,3.542a.367.367,0,0,1-.2.417A.177.177,0,0,1,1098.391,336.264Z" transform="translate(-1084.318 -332.012)" fill="#39adbc"/>
        </g>
        <g id="Grupo_646" data-name="Grupo 646" transform="translate(3.235 10.606)">
          <path id="Trazado_910" data-name="Trazado 910" d="M1084.582,356.111a3.565,3.565,0,1,1-3.564-3.564A3.566,3.566,0,0,1,1084.582,356.111Z" transform="translate(-1077.453 -352.547)" fill="#656d78" stroke="#333" stroke-miterlimit="10" stroke-width="1"/>
          <g id="Grupo_642" data-name="Grupo 642" opacity="0.2">
            <path id="Trazado_911" data-name="Trazado 911" d="M1078.245,356.111a3.553,3.553,0,0,1,3.168-3.524,3.331,3.331,0,0,0-.4-.04,3.565,3.565,0,1,0,0,7.129,3.321,3.321,0,0,0,.4-.04A3.553,3.553,0,0,1,1078.245,356.111Z" transform="translate(-1077.453 -352.547)" fill="#fff"/>
          </g>
          <g id="Grupo_643" data-name="Grupo 643" transform="translate(3.169)" opacity="0.2">
            <path id="Trazado_912" data-name="Trazado 912" d="M1086.968,356.111a3.553,3.553,0,0,1-3.168,3.524,3.313,3.313,0,0,0,.4.04,3.565,3.565,0,0,0,0-7.129,3.314,3.314,0,0,0-.4.04A3.554,3.554,0,0,1,1086.968,356.111Z" transform="translate(-1083.8 -352.547)"/>
          </g>
          <path id="Trazado_913" data-name="Trazado 913" d="M1084.587,357.7a1.98,1.98,0,1,1-1.98-1.98A1.982,1.982,0,0,1,1084.587,357.7Z" transform="translate(-1079.042 -354.136)" fill="#ccd1d9"/>
          <g id="Grupo_644" data-name="Grupo 644" transform="translate(1.584 1.584)" opacity="0.5">
            <path id="Trazado_914" data-name="Trazado 914" d="M1081.418,357.7a1.983,1.983,0,0,1,1.584-1.94,1.98,1.98,0,1,0-.4,3.921,1.948,1.948,0,0,0,.4-.04A1.983,1.983,0,0,1,1081.418,357.7Z" transform="translate(-1080.626 -355.72)" fill="#fff"/>
          </g>
          <g id="Grupo_645" data-name="Grupo 645" transform="translate(3.169 1.584)" opacity="0.2">
            <path id="Trazado_915" data-name="Trazado 915" d="M1085.384,357.7a1.983,1.983,0,0,1-1.584,1.94,1.947,1.947,0,0,0,.4.04,1.98,1.98,0,1,0-.4-3.921A1.983,1.983,0,0,1,1085.384,357.7Z" transform="translate(-1083.8 -355.72)"/>
          </g>
          <path id="Trazado_916" data-name="Trazado 916" d="M1084.239,357.305a.4.4,0,0,1-.4-.4.393.393,0,0,1,.392-.4h.008a.4.4,0,0,1,0,.792Z" transform="translate(-1080.651 -354.533)" fill="#575756"/>
          <path id="Trazado_917" data-name="Trazado 917" d="M1084.239,362.065a.4.4,0,0,1-.4-.4.393.393,0,0,1,.392-.4h.008a.4.4,0,0,1,0,.792Z" transform="translate(-1080.651 -356.916)" fill="#575756"/>
          <path id="Trazado_918" data-name="Trazado 918" d="M1082.178,358.5a.4.4,0,0,1-.4-.4.393.393,0,0,1,.393-.4h.007a.4.4,0,1,1,0,.792Z" transform="translate(-1079.619 -355.129)" fill="#575756"/>
          <path id="Trazado_919" data-name="Trazado 919" d="M1086.3,360.875a.4.4,0,0,1-.4-.4.393.393,0,0,1,.392-.4h.008a.4.4,0,0,1,0,.792Z" transform="translate(-1081.683 -356.32)" fill="#575756"/>
          <path id="Trazado_920" data-name="Trazado 920" d="M1082.178,360.875a.4.4,0,0,1-.4-.4.393.393,0,0,1,.393-.4h.007a.4.4,0,1,1,0,.792Z" transform="translate(-1079.619 -356.32)" fill="#575756"/>
          <path id="Trazado_921" data-name="Trazado 921" d="M1086.3,358.5a.4.4,0,0,1-.4-.4.393.393,0,0,1,.392-.4h.008a.4.4,0,0,1,0,.792Z" transform="translate(-1081.683 -355.129)" fill="#575756"/>
          <path id="Trazado_922" data-name="Trazado 922" d="M1084.239,359.685a.4.4,0,0,1-.4-.4.393.393,0,0,1,.392-.4h.008a.4.4,0,0,1,0,.792Z" transform="translate(-1080.651 -355.725)" fill="#575756"/>
        </g>
        <g id="Grupo_651" data-name="Grupo 651" transform="translate(22.261 10.606)">
          <path id="Trazado_923" data-name="Trazado 923" d="M1122.69,356.111a3.565,3.565,0,1,1-3.564-3.564A3.566,3.566,0,0,1,1122.69,356.111Z" transform="translate(-1115.561 -352.547)" fill="#656d78" stroke="#333" stroke-miterlimit="10" stroke-width="1"/>
          <g id="Grupo_647" data-name="Grupo 647" opacity="0.2">
            <path id="Trazado_924" data-name="Trazado 924" d="M1116.353,356.111a3.554,3.554,0,0,1,3.168-3.524,3.327,3.327,0,0,0-.4-.04,3.565,3.565,0,1,0,0,7.129,3.317,3.317,0,0,0,.4-.04A3.553,3.553,0,0,1,1116.353,356.111Z" transform="translate(-1115.561 -352.547)" fill="#fff"/>
          </g>
          <g id="Grupo_648" data-name="Grupo 648" transform="translate(3.169)" opacity="0.2">
            <path id="Trazado_925" data-name="Trazado 925" d="M1125.076,356.111a3.553,3.553,0,0,1-3.168,3.524,3.318,3.318,0,0,0,.4.04,3.565,3.565,0,0,0,0-7.129,3.318,3.318,0,0,0-.4.04A3.554,3.554,0,0,1,1125.076,356.111Z" transform="translate(-1121.908 -352.547)"/>
          </g>
          <path id="Trazado_926" data-name="Trazado 926" d="M1122.7,357.7a1.98,1.98,0,1,1-1.98-1.98A1.982,1.982,0,0,1,1122.7,357.7Z" transform="translate(-1117.15 -354.136)" fill="#ccd1d9"/>
          <g id="Grupo_649" data-name="Grupo 649" transform="translate(1.585 1.584)" opacity="0.5">
            <path id="Trazado_927" data-name="Trazado 927" d="M1119.527,357.7a1.983,1.983,0,0,1,1.584-1.94,1.98,1.98,0,1,0-.4,3.921,1.951,1.951,0,0,0,.4-.04A1.983,1.983,0,0,1,1119.527,357.7Z" transform="translate(-1118.735 -355.72)" fill="#fff"/>
          </g>
          <g id="Grupo_650" data-name="Grupo 650" transform="translate(3.169 1.584)" opacity="0.2">
            <path id="Trazado_928" data-name="Trazado 928" d="M1123.492,357.7a1.983,1.983,0,0,1-1.584,1.94,1.95,1.95,0,0,0,.4.04,1.98,1.98,0,1,0-.4-3.921A1.983,1.983,0,0,1,1123.492,357.7Z" transform="translate(-1121.908 -355.72)"/>
          </g>
          <path id="Trazado_929" data-name="Trazado 929" d="M1122.347,357.305a.4.4,0,0,1-.4-.4.393.393,0,0,1,.392-.4h.008a.4.4,0,0,1,0,.792Z" transform="translate(-1118.759 -354.533)" fill="#575756"/>
          <path id="Trazado_930" data-name="Trazado 930" d="M1122.347,362.065a.4.4,0,0,1-.4-.4.393.393,0,0,1,.392-.4h.008a.4.4,0,1,1,0,.792Z" transform="translate(-1118.759 -356.916)" fill="#575756"/>
          <path id="Trazado_931" data-name="Trazado 931" d="M1120.286,358.5a.4.4,0,0,1-.4-.4.393.393,0,0,1,.392-.4h.007a.4.4,0,1,1,0,.792Z" transform="translate(-1117.727 -355.129)" fill="#575756"/>
          <path id="Trazado_932" data-name="Trazado 932" d="M1124.408,360.875a.4.4,0,0,1-.4-.4.392.392,0,0,1,.392-.4h.008a.4.4,0,0,1,0,.792Z" transform="translate(-1119.791 -356.32)" fill="#575756"/>
          <path id="Trazado_933" data-name="Trazado 933" d="M1120.286,360.875a.4.4,0,0,1-.4-.4.393.393,0,0,1,.392-.4h.007a.4.4,0,1,1,0,.792Z" transform="translate(-1117.727 -356.32)" fill="#575756"/>
          <path id="Trazado_934" data-name="Trazado 934" d="M1124.408,358.5a.4.4,0,0,1-.4-.4.393.393,0,0,1,.392-.4h.008a.4.4,0,0,1,0,.792Z" transform="translate(-1119.791 -355.129)" fill="#575756"/>
          <path id="Trazado_935" data-name="Trazado 935" d="M1122.347,359.685a.4.4,0,0,1-.4-.4.393.393,0,0,1,.392-.4h.008a.4.4,0,0,1,0,.792Z" transform="translate(-1118.759 -355.725)" fill="#575756"/>
        </g>
        <path id="Trazado_936" data-name="Trazado 936" d="M1084.871,333.478s6.589-2.972,12.335-.532c0,0-3.6-3.152-12.394-.385" transform="translate(-1077.903 -331.364)" fill="#67cbdf" stroke="#39adbc" stroke-linecap="round" stroke-linejoin="round" stroke-width="1"/>
      </g>
    </g>
  </g>
</svg>
