<svg xmlns="http://www.w3.org/2000/svg" width="31.004" height="48.182" viewBox="0 0 31.004 48.182">
  <g id="D" transform="translate(0.501 1)">
    <g id="Grupo_685" data-name="Grupo 685" transform="translate(0 0)">
      <path id="Trazado_987" data-name="Trazado 987" d="M513.142,376.381a1.248,1.248,0,1,0-2.5,0V396.94l1.245,2.24,1.244-2.232.008-.008Z" transform="translate(-510.646 -351.999)" fill="#363638"/>
      <g id="Grupo_684" data-name="Grupo 684" transform="translate(0.499)">
        <g id="Grupo_682" data-name="Grupo 682">
          <path id="Trazado_988" data-name="Trazado 988" d="M540.148,353.262h-28.5V328.8h28.5l-5.108,12.232Z" transform="translate(-511.646 -328.798)" fill="#63af50" stroke="#5ea54a" stroke-miterlimit="10" stroke-width="2"/>
          <rect id="Rectángulo_307" data-name="Rectángulo 307" width="2.263" height="23.379" transform="translate(0.494 0.522)" fill="#fff" opacity="0.2"/>
        </g>
        <g id="Grupo_683" data-name="Grupo 683" transform="translate(6.671 5.15)">
          <path id="Trazado_989" data-name="Trazado 989" d="M536.77,349.606a6.285,6.285,0,0,1-2.489,2.479,7.651,7.651,0,0,1-3.792.9h-5.484V339.112h5.484a7.918,7.918,0,0,1,3.8.872,6.033,6.033,0,0,1,2.489,2.44,7.843,7.843,0,0,1-.009,7.182Zm-3.966-.989a3.968,3.968,0,0,0,0-5.2,3.694,3.694,0,0,0-2.664-.931h-1.3v7.056h1.3A3.72,3.72,0,0,0,532.8,348.617Z" transform="translate(-525.006 -339.112)" fill="#363638"/>
        </g>
      </g>
    </g>
  </g>
</svg>
