<svg xmlns="http://www.w3.org/2000/svg" width="36.584" height="36.606" viewBox="0 0 36.584 36.606">
  <g id="Grupo_696" data-name="Grupo 696" transform="translate(-314.068 -604.083)">
    <g id="Grupo_541" data-name="Grupo 541" transform="translate(298.928 588.969)">
      <rect id="Rectángulo_284" data-name="Rectángulo 284" width="14.754" height="2.949" transform="translate(28.418 32.811)" fill="#fff"/>
      <path id="Trazado_729" data-name="Trazado 729" d="M34.335,47.559H19.566a1.478,1.478,0,0,1-1.476-1.475V21.013H47.6v12.44a4.35,4.35,0,0,1,2.95-.365V19.539a4.426,4.426,0,0,0-4.425-4.425H19.566a4.426,4.426,0,0,0-4.426,4.425V46.084a4.427,4.427,0,0,0,4.426,4.425H33.472Z" transform="translate(0)" fill="#fff"/>
      <rect id="Rectángulo_285" data-name="Rectángulo 285" width="14.754" height="2.949" transform="translate(28.418 26.912)" fill="#fff"/>
      <path id="Trazado_730" data-name="Trazado 730" d="M33.549,50.792h10.47l2.965-2.95H33.549Z" transform="translate(-5.131 -9.132)" fill="#fff"/>
      <rect id="Rectángulo_286" data-name="Rectángulo 286" width="2.951" height="2.949" transform="translate(22.517 32.811)" fill="#fff"/>
      <rect id="Rectángulo_287" data-name="Rectángulo 287" width="2.951" height="2.949" transform="translate(22.517 26.912)" fill="#fff"/>
      <rect id="Rectángulo_288" data-name="Rectángulo 288" width="2.951" height="2.949" transform="translate(22.517 38.71)" fill="#fff"/>
      <path id="Trazado_731" data-name="Trazado 731" d="M60.385,48.668a2.843,2.843,0,0,1-.212,1.061,17.854,17.854,0,0,1-5.041,7.535A16.5,16.5,0,0,1,51.039,59.8a2.631,2.631,0,0,1-2.913-.484c-.439-.392-.879-.828-1.3-1.292a2.021,2.021,0,0,1,.006-2.893c.416-.452.858-.881,1.284-1.3l.183-.178a1.5,1.5,0,0,1,1.119-.513,1.473,1.473,0,0,1,1.032.649,2.542,2.542,0,0,0,1.777,1.133,3.989,3.989,0,0,0,.421.016,3.47,3.47,0,0,0,2.665-2.751,1.085,1.085,0,0,0-.006-.119l-.005-.051,0-.12a2.4,2.4,0,0,0-.835-1.716,2.693,2.693,0,0,1-.97-1.807,2.68,2.68,0,0,1,.972-1.8l.283-.286c.219-.224.44-.448.669-.663a2.03,2.03,0,0,1,3.025-.021c.37.347.749.725,1.123,1.128a2.816,2.816,0,0,1,.817,1.932" transform="translate(-8.661 -8.323)" fill="#fff"/>
    </g>
  </g>
</svg>
