<svg xmlns="http://www.w3.org/2000/svg" width="129" height="129.242" viewBox="0 0 129 129.242">
  <g id="Grupo_691" data-name="Grupo 691" transform="translate(-125 -41)">
    <g id="Ballot-4" transform="translate(104.213 51.758)">
      <path id="Trazado_657" data-name="Trazado 657" d="M217.782,208.948h21.384a1.782,1.782,0,0,0,1.782-1.782V185.782A1.782,1.782,0,0,0,239.166,184H217.782A1.782,1.782,0,0,0,216,185.782v21.384A1.782,1.782,0,0,0,217.782,208.948Zm1.782-21.384h17.82v17.82h-17.82Z" transform="translate(-136.796 -136.796)" fill="#ad0b0b"/>
      <path id="Trazado_658" data-name="Trazado 658" d="M217.782,72.948h21.384a1.782,1.782,0,0,0,1.782-1.782V49.782A1.782,1.782,0,0,0,239.166,48H217.782A1.782,1.782,0,0,0,216,49.782V71.166A1.782,1.782,0,0,0,217.782,72.948Zm1.782-21.384h17.82v17.82h-17.82Z" transform="translate(-136.796 -31.09)" fill="#ad0b0b"/>
      <path id="Trazado_659" data-name="Trazado 659" d="M217.782,344.948h21.384a1.782,1.782,0,0,0,1.782-1.782V321.782A1.782,1.782,0,0,0,239.166,320H217.782A1.782,1.782,0,0,0,216,321.782v21.384A1.782,1.782,0,0,0,217.782,344.948Zm1.782-21.384h17.82v17.82h-17.82Z" transform="translate(-136.796 -242.502)" fill="#333335"/>
      <path id="Trazado_660" data-name="Trazado 660" d="M81.782,208.948h21.384a1.782,1.782,0,0,0,1.782-1.782V185.782A1.782,1.782,0,0,0,103.166,184H81.782A1.782,1.782,0,0,0,80,185.782v21.384A1.782,1.782,0,0,0,81.782,208.948Zm19.6-6.084-6.39-6.39,6.39-6.39Zm-2.52,2.52H86.084l6.39-6.39Zm-6.39-11.43-6.39-6.39h12.78Zm-2.52,2.52-6.39,6.39v-12.78Z" transform="translate(-31.09 -136.796)" fill="#333335"/>
      <path id="Trazado_661" data-name="Trazado 661" d="M81.782,72.948h21.384a1.782,1.782,0,0,0,1.782-1.782V49.782A1.782,1.782,0,0,0,103.166,48H81.782A1.782,1.782,0,0,0,80,49.782V71.166A1.782,1.782,0,0,0,81.782,72.948Zm1.782-21.384h17.82v17.82H83.564Z" transform="translate(-31.09 -31.09)" fill="#ad0b0b"/>
      <path id="Trazado_662" data-name="Trazado 662" d="M81.782,344.948h21.384a1.782,1.782,0,0,0,1.782-1.782V321.782A1.782,1.782,0,0,0,103.166,320H81.782A1.782,1.782,0,0,0,80,321.782v21.384A1.782,1.782,0,0,0,81.782,344.948Zm1.782-21.384h17.82v17.82H83.564Z" transform="translate(-31.09 -242.502)" fill="#333335"/>
      <path id="Trazado_663" data-name="Trazado 663" d="M111.28,8h-69.5A1.782,1.782,0,0,0,40,9.782V116.7a1.782,1.782,0,0,0,1.782,1.782h69.5a1.782,1.782,0,0,0,1.782-1.782V9.782A1.782,1.782,0,0,0,111.28,8ZM109.5,114.919H43.564V11.564H109.5Z" fill="#333335"/>
      <path id="Trazado_664" data-name="Trazado 664" d="M407.166,18.692H401.82a1.782,1.782,0,0,0-1.782,1.782V27.6h-1.782v-8.91a1.782,1.782,0,0,0-1.782-1.782V13.346a5.346,5.346,0,1,0-10.692,0V16.91A1.782,1.782,0,0,0,384,18.692v85.536a1.782,1.782,0,0,0,1.782,1.782h.438l3.2,11.182a1.782,1.782,0,0,0,3.425,0l3.2-11.182h.438a1.782,1.782,0,0,0,1.782-1.782V31.166h1.782v19.6a1.782,1.782,0,0,0,1.782,1.782h5.346a1.782,1.782,0,0,0,1.782-1.782V20.474a1.782,1.782,0,0,0-1.782-1.782Zm-19.6,1.782h7.128v81.972h-7.128Zm1.782-7.128a1.782,1.782,0,0,1,3.564,0V16.91h-3.564Zm1.782,96.869-1.2-4.205h2.4Zm14.256-61.229H403.6V22.256h1.782Z" transform="translate(-267.374)" fill="#333335"/>
      <path id="Trazado_665" data-name="Trazado 665" d="M207.166,456H185.782a1.782,1.782,0,0,0,0,3.564h21.384a1.782,1.782,0,1,0,0-3.564Z" transform="translate(-111.924 -348.209)" fill="#333335"/>
      <path id="Trazado_666" data-name="Trazado 666" d="M307.564,456h-1.782a1.782,1.782,0,0,0,0,3.564h1.782a1.782,1.782,0,0,0,0-3.564Z" transform="translate(-205.194 -348.209)" fill="#333335"/>
    </g>
    <g id="Grupo_500" data-name="Grupo 500" transform="translate(15 3)">
      <path id="Unión_1" data-name="Unión 1" d="M2.714,6.214V5.72L1.28,4.286H.786a.786.786,0,1,1,0-1.571h.435L2.714,1.221V.786a.786.786,0,1,1,1.571,0v.441L5.773,2.714h.441a.786.786,0,1,1,0,1.571h-.5L4.286,5.715v.5a.786.786,0,1,1-1.571,0Z" transform="translate(203 38)" fill="#333335"/>
      <path id="Unión_4" data-name="Unión 4" d="M2.714,6.214V5.72L1.28,4.286H.786a.786.786,0,1,1,0-1.571h.435L2.714,1.221V.786a.786.786,0,1,1,1.571,0v.441L5.773,2.714h.441a.786.786,0,1,1,0,1.571h-.5L4.286,5.715v.5a.786.786,0,1,1-1.571,0Z" transform="translate(232 110)" fill="#ad0b0b"/>
      <path id="Unión_2" data-name="Unión 2" d="M2.714,6.214V5.72L1.28,4.286H.786a.786.786,0,1,1,0-1.571h.435L2.714,1.221V.786a.786.786,0,1,1,1.571,0v.441L5.773,2.714h.441a.786.786,0,1,1,0,1.571h-.5L4.286,5.715v.5a.786.786,0,1,1-1.571,0Z" transform="translate(115 90)" fill="#333335"/>
      <path id="Unión_3" data-name="Unión 3" d="M2.714,6.214V5.72L1.28,4.286H.786a.786.786,0,1,1,0-1.571h.435L2.714,1.221V.786a.786.786,0,1,1,1.571,0v.441L5.773,2.714h.441a.786.786,0,1,1,0,1.571h-.5L4.286,5.715v.5a.786.786,0,1,1-1.571,0Z" transform="translate(142 45)" fill="#ad0b0b"/>
      <rect id="Rectángulo_275" data-name="Rectángulo 275" width="2" height="2" rx="1" transform="translate(210 44)" fill="#333335"/>
      <rect id="Rectángulo_277" data-name="Rectángulo 277" width="2" height="2" rx="1" transform="translate(214 41)" fill="#333335"/>
      <rect id="Rectángulo_276" data-name="Rectángulo 276" width="2" height="2" rx="1" transform="translate(110 100)" fill="#333335"/>
    </g>
  </g>
</svg>
