<svg xmlns="http://www.w3.org/2000/svg" width="129" height="140" viewBox="0 0 129 140">
  <g id="Grupo_690" data-name="Grupo 690" transform="translate(-129 -37)">
    <g id="Accept" transform="translate(103.887 47)">
      <path id="Trazado_673" data-name="Trazado 673" d="M75.806,464H65.968a1.968,1.968,0,1,0,0,3.935h9.839a1.968,1.968,0,1,0,0-3.935Z" transform="translate(-18.097 -343.839)" fill="#333335"/>
      <path id="Trazado_674" data-name="Trazado 674" d="M131.935,464h-1.968a1.968,1.968,0,1,0,0,3.935h1.968a1.968,1.968,0,0,0,0-3.935Z" transform="translate(-66.355 -343.839)" fill="#333335"/>
      <path id="Trazado_675" data-name="Trazado 675" d="M81.968,115.806h62.968a1.968,1.968,0,0,0,1.968-1.968v-7.871A1.968,1.968,0,0,0,144.935,104H81.968A1.968,1.968,0,0,0,80,105.968v7.871A1.968,1.968,0,0,0,81.968,115.806Zm1.968-7.871h59.032v3.935H83.935Z" transform="translate(-30.161 -72.387)" fill="#333335"/>
      <path id="Trazado_676" data-name="Trazado 676" d="M81.968,179.806h62.968a1.968,1.968,0,0,0,1.968-1.968v-7.871A1.968,1.968,0,0,0,144.935,168H81.968A1.968,1.968,0,0,0,80,169.968v7.871A1.968,1.968,0,0,0,81.968,179.806Zm1.968-7.871h59.032v3.935H83.935Z" transform="translate(-30.161 -120.645)" fill="#ad0b0b"/>
      <path id="Trazado_677" data-name="Trazado 677" d="M81.968,243.806h62.968a1.968,1.968,0,0,0,1.968-1.968v-7.871A1.968,1.968,0,0,0,144.935,232H81.968A1.968,1.968,0,0,0,80,233.968v7.871A1.968,1.968,0,0,0,81.968,243.806Zm1.968-7.871h59.032v3.935H83.935Z" transform="translate(-30.161 -168.903)" fill="#ad0b0b"/>
      <path id="Trazado_678" data-name="Trazado 678" d="M119.355,296H81.968a1.968,1.968,0,0,0,0,3.935h37.387a1.968,1.968,0,1,0,0-3.935Z" transform="translate(-30.161 -217.161)" fill="#333335"/>
      <path id="Trazado_679" data-name="Trazado 679" d="M107.548,320H81.968a1.968,1.968,0,0,0,0,3.935h25.581a1.968,1.968,0,1,0,0-3.935Z" transform="translate(-30.161 -235.258)" fill="#333335"/>
      <path id="Trazado_680" data-name="Trazado 680" d="M85.9,347.935a1.968,1.968,0,1,0,0-3.935H81.968a1.968,1.968,0,1,0,0,3.935Z" transform="translate(-30.161 -253.355)" fill="#333335"/>
      <path id="Trazado_681" data-name="Trazado 681" d="M123.935,347.935a1.968,1.968,0,1,0,0-3.935h-1.968a1.968,1.968,0,1,0,0,3.935Z" transform="translate(-60.323 -253.355)" fill="#333335"/>
      <path id="Trazado_682" data-name="Trazado 682" d="M148.226,100.484a23.644,23.644,0,0,0-21.645-23.53V25.71A1.968,1.968,0,0,0,126,24.318L110.262,8.576A1.968,1.968,0,0,0,108.871,8h-66.9A1.968,1.968,0,0,0,40,9.968V128.032A1.968,1.968,0,0,0,41.968,130h82.645a1.968,1.968,0,0,0,1.968-1.968v-4.018A23.644,23.644,0,0,0,148.226,100.484ZM110.839,14.718l9.024,9.024h-9.024Zm-66.9,111.346V11.935H106.9V25.71a1.968,1.968,0,0,0,1.968,1.968h13.774V76.954a23.613,23.613,0,0,0,0,47.061v2.05Zm80.677-5.9a19.677,19.677,0,1,1,19.677-19.677A19.677,19.677,0,0,1,124.613,120.161Z" fill="#333335"/>
      <path id="Trazado_683" data-name="Trazado 683" d="M362.971,352.576a1.968,1.968,0,0,0-2.783,0h0L347.5,365.264l-8.521-5.113a1.968,1.968,0,0,0-2.025,3.375l9.839,5.9a1.968,1.968,0,0,0,2.4-.3l13.774-13.774a1.968,1.968,0,0,0,0-2.783Z" transform="translate(-223.193 -259.387)" fill="#ad0b0b"/>
    </g>
    <g id="Grupo_501" data-name="Grupo 501" transform="translate(19 -1)">
      <path id="Unión_1" data-name="Unión 1" d="M2.714,6.214V5.72L1.28,4.286H.786a.786.786,0,1,1,0-1.571h.435L2.714,1.221V.786a.786.786,0,1,1,1.571,0v.441L5.773,2.714h.441a.786.786,0,1,1,0,1.571h-.5L4.286,5.715v.5a.786.786,0,1,1-1.571,0Z" transform="translate(203 38)" fill="#ad0b0b"/>
      <path id="Unión_4" data-name="Unión 4" d="M2.714,6.214V5.72L1.28,4.286H.786a.786.786,0,1,1,0-1.571h.435L2.714,1.221V.786a.786.786,0,1,1,1.571,0v.441L5.773,2.714h.441a.786.786,0,1,1,0,1.571h-.5L4.286,5.715v.5a.786.786,0,1,1-1.571,0Z" transform="translate(232 110)" fill="#333335"/>
      <path id="Unión_2" data-name="Unión 2" d="M2.714,6.214V5.72L1.28,4.286H.786a.786.786,0,1,1,0-1.571h.435L2.714,1.221V.786a.786.786,0,1,1,1.571,0v.441L5.773,2.714h.441a.786.786,0,1,1,0,1.571h-.5L4.286,5.715v.5a.786.786,0,1,1-1.571,0Z" transform="translate(115 90)" fill="#333335"/>
      <path id="Unión_3" data-name="Unión 3" d="M2.714,6.214V5.72L1.28,4.286H.786a.786.786,0,1,1,0-1.571h.435L2.714,1.221V.786a.786.786,0,1,1,1.571,0v.441L5.773,2.714h.441a.786.786,0,1,1,0,1.571h-.5L4.286,5.715v.5a.786.786,0,1,1-1.571,0Z" transform="translate(142 45)" fill="#333335"/>
      <rect id="Rectángulo_275" data-name="Rectángulo 275" width="2" height="2" rx="1" transform="translate(210 44)" fill="#ad0b0b"/>
      <rect id="Rectángulo_277" data-name="Rectángulo 277" width="2" height="2" rx="1" transform="translate(230 108)" fill="#333335"/>
      <rect id="Rectángulo_276" data-name="Rectángulo 276" width="2" height="2" rx="1" transform="translate(110 100)" fill="#333335"/>
    </g>
  </g>
</svg>
