<svg xmlns="http://www.w3.org/2000/svg" width="149" height="128.984" viewBox="0 0 149 128.984">
  <g id="Grupo_689" data-name="Grupo 689" transform="translate(-110 -45)">
    <g id="Grupo_484" data-name="Grupo 484" transform="translate(87.723 46.256)">
      <path id="Trazado_632" data-name="Trazado 632" d="M142.623,8H73.1a1.931,1.931,0,0,0-1.931,1.931v9.655H61.518a1.931,1.931,0,0,0-1.931,1.931v9.655H49.931A1.931,1.931,0,0,0,48,33.1V125.8a1.931,1.931,0,0,0,1.931,1.931H119.45a1.931,1.931,0,0,0,1.931-1.931v-9.655h9.655a1.931,1.931,0,0,0,1.931-1.931v-9.655h9.655a1.931,1.931,0,0,0,1.931-1.931V9.931A1.931,1.931,0,0,0,142.623,8Zm-25.1,115.865H51.862V35.035h65.657Zm11.587-11.587h-7.724V33.1a1.931,1.931,0,0,0-1.931-1.931h-56V23.449h65.657v88.83Zm11.587-11.587h-7.724V21.518a1.931,1.931,0,0,0-1.931-1.931h-56V11.862h65.657Z" fill="#333335"/>
      <path id="Trazado_633" data-name="Trazado 633" d="M136,136H81.931A1.931,1.931,0,0,0,80,137.931V161.1a1.931,1.931,0,0,0,1.931,1.931H136a1.931,1.931,0,0,0,1.931-1.931V137.931A1.931,1.931,0,0,0,136,136Zm-1.931,23.173H83.862V139.862H134.07Z" transform="translate(-24.276 -97.103)" fill="#ad0b0b"/>
      <path id="Trazado_634" data-name="Trazado 634" d="M190.622,360H153.931a1.931,1.931,0,1,0,0,3.862h36.691a1.931,1.931,0,1,0,0-3.862Z" transform="translate(-78.896 -267.032)" fill="#ad0b0b"/>
      <path id="Trazado_635" data-name="Trazado 635" d="M153.931,395.862H182.9a1.931,1.931,0,1,0,0-3.862H153.931a1.931,1.931,0,1,0,0,3.862Z" transform="translate(-78.896 -291.308)" fill="#ad0b0b"/>
      <path id="Trazado_636" data-name="Trazado 636" d="M299.862,392h-1.931a1.931,1.931,0,1,0,0,3.862h1.931a1.931,1.931,0,1,0,0-3.862Z" transform="translate(-188.136 -291.308)" fill="#ad0b0b"/>
      <path id="Trazado_637" data-name="Trazado 637" d="M190.622,424H153.931a1.931,1.931,0,1,0,0,3.862h36.691a1.931,1.931,0,1,0,0-3.862Z" transform="translate(-78.896 -315.584)" fill="#333335"/>
      <path id="Trazado_638" data-name="Trazado 638" d="M128.277,456H81.931a1.931,1.931,0,0,0,0,3.862h46.346a1.931,1.931,0,0,0,0-3.862Z" transform="translate(-24.276 -339.859)" fill="#333335"/>
      <path id="Trazado_639" data-name="Trazado 639" d="M299.862,456h-1.931a1.931,1.931,0,1,0,0,3.862h1.931a1.931,1.931,0,1,0,0-3.862Z" transform="translate(-188.136 -339.859)" fill="#333335"/>
      <path id="Trazado_640" data-name="Trazado 640" d="M84.428,387.021a1.931,1.931,0,0,0,2.731,0h0l7.724-7.724a1.931,1.931,0,0,0-2.731-2.731h0l-6.359,6.359-2.5-2.5a1.931,1.931,0,0,0-2.731,2.731Z" transform="translate(-24.276 -279.17)" fill="#333335"/>
      <path id="Trazado_641" data-name="Trazado 641" d="M190.622,264H153.931a1.931,1.931,0,0,0,0,3.862h36.691a1.931,1.931,0,0,0,0-3.862Z" transform="translate(-78.896 -194.205)" fill="#ad0b0b"/>
      <path id="Trazado_642" data-name="Trazado 642" d="M190.622,296H153.931a1.931,1.931,0,0,0,0,3.862h36.691a1.931,1.931,0,0,0,0-3.862Z" transform="translate(-78.896 -218.481)" fill="#ad0b0b"/>
      <path id="Trazado_643" data-name="Trazado 643" d="M190.622,328H153.931a1.931,1.931,0,0,0,0,3.862h36.691a1.931,1.931,0,0,0,0-3.862Z" transform="translate(-78.896 -242.757)" fill="#ad0b0b"/>
      <path id="Trazado_644" data-name="Trazado 644" d="M84.428,291.021a1.931,1.931,0,0,0,2.731,0h0l7.724-7.724a1.931,1.931,0,0,0-2.731-2.731l-6.359,6.359-2.5-2.5a1.931,1.931,0,0,0-2.731,2.731Z" transform="translate(-24.276 -206.343)" fill="#333335"/>
    </g>
    <g id="Grupo_499" data-name="Grupo 499">
      <path id="Unión_1" data-name="Unión 1" d="M2.714,6.214V5.72L1.28,4.286H.786a.786.786,0,1,1,0-1.571h.435L2.714,1.221V.786a.786.786,0,1,1,1.571,0v.441L5.773,2.714h.441a.786.786,0,1,1,0,1.571h-.5L4.286,5.715v.5a.786.786,0,1,1-1.571,0Z" transform="translate(250 49)" fill="#ad0b0b"/>
      <path id="Unión_4" data-name="Unión 4" d="M2.714,6.214V5.72L1.28,4.286H.786a.786.786,0,1,1,0-1.571h.435L2.714,1.221V.786a.786.786,0,1,1,1.571,0v.441L5.773,2.714h.441a.786.786,0,1,1,0,1.571h-.5L4.286,5.715v.5a.786.786,0,1,1-1.571,0Z" transform="translate(239 94)" fill="#333335"/>
      <path id="Unión_2" data-name="Unión 2" d="M2.714,6.214V5.72L1.28,4.286H.786a.786.786,0,1,1,0-1.571h.435L2.714,1.221V.786a.786.786,0,1,1,1.571,0v.441L5.773,2.714h.441a.786.786,0,1,1,0,1.571h-.5L4.286,5.715v.5a.786.786,0,1,1-1.571,0Z" transform="translate(115 90)" fill="#333335"/>
      <path id="Unión_3" data-name="Unión 3" d="M2.714,6.214V5.72L1.28,4.286H.786a.786.786,0,1,1,0-1.571h.435L2.714,1.221V.786a.786.786,0,1,1,1.571,0v.441L5.773,2.714h.441a.786.786,0,1,1,0,1.571h-.5L4.286,5.715v.5a.786.786,0,1,1-1.571,0Z" transform="translate(142 45)" fill="#333335"/>
      <rect id="Rectángulo_275" data-name="Rectángulo 275" width="2" height="2" rx="1" transform="translate(257 60)" fill="#ad0b0b"/>
      <rect id="Rectángulo_277" data-name="Rectángulo 277" width="2" height="2" rx="1" transform="translate(215 47)" fill="#ad0b0b"/>
      <rect id="Rectángulo_276" data-name="Rectángulo 276" width="2" height="2" rx="1" transform="translate(110 100)" fill="#333335"/>
    </g>
  </g>
</svg>
