<svg xmlns="http://www.w3.org/2000/svg" viewBox="0 0 800 494.78"><defs><style>.cls-1{fill:#0c528c;}.cls-2,.cls-6,.cls-8{fill:#fff;}.cls-3,.cls-8{font-size:28.54px;font-family:BaiJamjuree-Bold, Bai Jamjuree;font-weight:700;}.cls-3{fill:#00b6bd;}.cls-4{letter-spacing:0em;}.cls-5{letter-spacing:0em;}.cls-12,.cls-6{font-size:104.13px;font-family:LicensePlate, License Plate;}.cls-7{fill:#000789;}.cls-9{letter-spacing:-0.02em;}.cls-10{letter-spacing:0em;}.cls-11{fill:#0f1b56;opacity:0.45;}.cls-13{fill:none;stroke:#f7ff00;stroke-miterlimit:10;stroke-width:5px;}</style></defs><title>Recurso 2</title><g id="Capa_2" data-name="Capa 2"><g id="Capa_1-2" data-name="Capa 1"><rect class="cls-1" width="800" height="494.78"/><rect class="cls-2" x="190.37" y="57.79" width="419.26" height="183.89" rx="7"/><rect x="196.41" y="94.57" width="407.17" height="110.86" rx="2.9"/><text/><text class="cls-3" transform="translate(318.65 87.31)">A<tspan class="cls-4" x="19.44" y="0">R</tspan><tspan class="cls-5" x="38.68" y="0">GENTINA</tspan></text><text class="cls-6" transform="translate(240.02 193.3)">ABC 123</text><text/><path class="cls-7" d="M178.7,278.75H621.3a7,7,0,0,1,7,7v38.61a0,0,0,0,1,0,0H171.7a0,0,0,0,1,0,0V285.75A7,7,0,0,1,178.7,278.75Z"/><path class="cls-2" d="M171.7,320.79v105.6a18.45,18.45,0,0,0,18.39,18.39H609.91a18.45,18.45,0,0,0,18.39-18.39V320.79Z"/><text class="cls-8" transform="translate(234.81 311.82)">REPÚBLI<tspan class="cls-9" x="120.96" y="0">C</tspan><tspan x="140.03" y="0">A A</tspan><tspan class="cls-10" x="187.13" y="0">R</tspan><tspan x="206.37" y="0">GENTINA</tspan></text><path class="cls-11" d="M0,0V494.78H800V0ZM419.29,113a18.29,18.29,0,0,1,18.3-18.29H553.07A18.29,18.29,0,0,1,571.36,113v73.55a18.29,18.29,0,0,1-18.29,18.29H437.59a18.29,18.29,0,0,1-18.3-18.29ZM604.53,417.18a18.3,18.3,0,0,1-18.3,18.3H439.85a18.3,18.3,0,0,1-18.3-18.3V343.64a18.29,18.29,0,0,1,18.3-18.29H586.23a18.3,18.3,0,0,1,18.3,18.29Z"/><text class="cls-12" transform="translate(194.31 424.92)">AB 123 CD</text><path class="cls-13" d="M439.85,325.35H586.23a18.3,18.3,0,0,1,18.3,18.3v73.54a18.3,18.3,0,0,1-18.3,18.3H439.85a18.29,18.29,0,0,1-18.29-18.29V343.64A18.29,18.29,0,0,1,439.85,325.35Z"/><path class="cls-13" d="M437.59,95.29H553.07a18.3,18.3,0,0,1,18.3,18.3v73.54a18.3,18.3,0,0,1-18.3,18.3H437.59a18.3,18.3,0,0,1-18.3-18.3V113.59A18.29,18.29,0,0,1,437.59,95.29Z"/></g></g></svg>