<?xml version="1.0" standalone="no"?>
<!DOCTYPE svg PUBLIC "-//W3C//DTD SVG 20010904//EN"
 "http://www.w3.org/TR/2001/REC-SVG-20010904/DTD/svg10.dtd">
<svg version="1.0" xmlns="http://www.w3.org/2000/svg"
 width="1080.000000pt" height="1080.000000pt" viewBox="0 0 1080.000000 1080.000000"
 preserveAspectRatio="xMidYMid meet">
<metadata>
Created by potrace 1.11, written by Peter Selinger 2001-2013
</metadata>
<g transform="translate(0.000000,1080.000000) scale(0.100000,-0.100000)"
fill="#000000" stroke="none">
<path d="M5157 10554 c-1 -1 -67 -4 -147 -8 -80 -3 -156 -8 -170 -10 -14 -3
-52 -7 -85 -10 -105 -11 -171 -19 -265 -36 -30 -5 -73 -12 -95 -16 -48 -7 -70
-12 -70 -14 0 -1 -11 -3 -25 -5 -14 -2 -68 -13 -120 -25 -52 -12 -101 -22
-107 -23 -7 0 -13 -4 -13 -9 0 -5 -4 -7 -8 -4 -5 3 -30 -1 -55 -9 -26 -8 -49
-14 -52 -15 -3 0 -7 -1 -10 -1 -3 -1 -9 -3 -15 -4 -5 -1 -12 -4 -15 -5 -7 -4
-15 -5 -57 -14 -21 -5 -38 -12 -38 -18 0 -5 -4 -7 -9 -3 -5 3 -12 1 -16 -5 -4
-6 -10 -8 -15 -5 -6 4 -92 -21 -140 -42 -8 -3 -19 -7 -25 -9 -37 -9 -141 -50
-143 -57 -2 -4 -8 -5 -13 -1 -5 3 -9 0 -9 -6 0 -6 -5 -8 -10 -5 -6 4 -16 2
-23 -3 -7 -5 -29 -15 -49 -21 -21 -7 -38 -17 -38 -21 0 -5 -6 -7 -14 -4 -7 3
-20 -1 -27 -8 -8 -7 -23 -15 -34 -16 -11 -2 -23 -8 -26 -14 -3 -5 -9 -10 -12
-9 -15 1 -67 -22 -67 -28 0 -4 -6 -8 -12 -8 -23 -1 -188 -84 -188 -94 0 -6 -4
-8 -9 -4 -5 3 -16 -2 -25 -10 -8 -9 -18 -15 -21 -15 -10 2 -160 -82 -163 -92
-2 -4 -8 -6 -13 -2 -5 3 -12 -2 -15 -10 -3 -9 -10 -14 -14 -11 -4 3 -18 -3
-31 -13 -13 -10 -52 -35 -86 -56 -35 -21 -63 -42 -63 -47 0 -6 -4 -8 -8 -5 -5
3 -18 -4 -30 -14 -12 -11 -24 -20 -27 -20 -8 0 -149 -103 -153 -112 -2 -5 -10
-8 -18 -8 -8 0 -17 -7 -20 -15 -4 -8 -12 -15 -20 -15 -8 0 -14 -4 -14 -8 0 -5
-11 -15 -25 -22 -13 -7 -22 -17 -19 -22 3 -4 0 -8 -6 -8 -16 0 -87 -55 -123
-94 -16 -17 -31 -30 -33 -28 -8 5 -142 -113 -143 -125 -1 -6 -6 -15 -13 -19
-7 -5 -8 -3 -3 7 5 8 -58 -52 -138 -133 -81 -80 -147 -152 -147 -158 0 -6 -4
-9 -9 -5 -6 3 -13 -1 -18 -9 -7 -12 -83 -103 -118 -140 -34 -37 -106 -126
-101 -126 3 0 -5 -10 -17 -23 -55 -58 -118 -143 -110 -151 4 -3 2 -6 -4 -6
-11 0 -79 -92 -75 -102 1 -5 -2 -8 -7 -8 -11 0 -57 -71 -53 -82 1 -5 -2 -8 -7
-8 -7 0 -75 -101 -72 -108 1 -1 -8 -12 -18 -24 -11 -11 -18 -25 -15 -30 3 -4
0 -8 -5 -8 -6 0 -17 -15 -26 -32 -8 -18 -19 -40 -25 -48 -54 -81 -255 -480
-263 -523 -1 -6 -8 -18 -14 -25 -7 -7 -13 -21 -13 -31 0 -10 -3 -21 -7 -25 -4
-3 -12 -21 -19 -39 -62 -166 -81 -215 -111 -302 -19 -55 -36 -107 -38 -115 -1
-8 -11 -41 -20 -74 -9 -32 -18 -64 -19 -70 -1 -6 -7 -27 -14 -46 -6 -19 -14
-46 -16 -60 -3 -14 -10 -43 -15 -64 -5 -22 -8 -44 -5 -48 3 -4 1 -8 -4 -8 -5
0 -9 -6 -9 -12 0 -7 -5 -38 -12 -68 -20 -96 -40 -206 -46 -251 -2 -17 -6 -42
-9 -57 -3 -15 -8 -48 -11 -74 -3 -27 -7 -67 -10 -90 -34 -287 -39 -828 -9
-1068 2 -19 6 -62 9 -95 3 -33 8 -71 11 -85 2 -14 7 -45 10 -70 3 -25 9 -67
14 -95 18 -98 21 -110 26 -150 4 -22 11 -51 15 -64 5 -13 7 -26 5 -29 -3 -2
-1 -13 5 -24 6 -11 13 -36 15 -56 3 -21 8 -46 11 -57 4 -11 8 -27 9 -35 3 -16
12 -50 40 -145 10 -33 19 -64 20 -70 4 -20 76 -240 82 -250 4 -5 8 -18 9 -28
2 -10 10 -31 18 -47 8 -16 15 -34 15 -40 0 -5 9 -29 19 -53 11 -23 32 -71 46
-107 47 -114 93 -211 216 -453 11 -20 52 -90 91 -155 39 -64 77 -130 85 -145
9 -16 21 -31 29 -34 8 -3 12 -9 9 -13 -3 -5 0 -14 7 -22 7 -7 40 -52 72 -101
33 -48 68 -96 78 -107 10 -11 16 -20 13 -20 -5 0 19 -31 50 -64 12 -11 21 -24
20 -28 0 -3 15 -23 33 -43 17 -20 32 -39 32 -41 0 -5 42 -54 86 -100 17 -18
29 -36 26 -39 -3 -3 2 -5 12 -5 9 0 15 -4 12 -9 -3 -4 37 -52 89 -107 52 -54
95 -102 95 -106 0 -4 3 -8 8 -8 4 0 39 -31 77 -70 39 -38 76 -70 83 -70 7 0
11 -4 8 -8 -6 -10 104 -108 116 -104 4 1 8 -4 8 -10 0 -7 20 -27 43 -45 23
-18 54 -43 68 -55 15 -13 41 -34 59 -48 18 -14 63 -49 101 -78 37 -30 69 -52
71 -50 2 1 14 -7 27 -19 14 -13 43 -35 65 -50 23 -15 72 -50 110 -76 37 -27
65 -42 61 -35 -4 8 -1 7 7 -2 18 -20 73 -59 89 -62 7 -2 22 -11 33 -21 11 -9
23 -17 28 -17 4 0 32 -16 62 -35 29 -19 56 -31 60 -28 3 4 6 2 6 -4 0 -6 12
-16 28 -22 15 -6 42 -20 60 -31 17 -11 32 -16 32 -12 0 4 4 2 8 -4 9 -13 71
-44 89 -44 7 0 13 -4 13 -9 0 -7 19 -17 70 -36 3 -1 37 -16 75 -34 39 -18 75
-33 80 -34 6 -1 12 -4 15 -7 8 -9 203 -83 217 -83 7 0 13 -4 13 -9 0 -4 9 -8
19 -8 11 0 23 -5 26 -10 4 -6 12 -9 18 -8 7 1 23 -4 37 -12 14 -7 26 -12 28
-11 1 1 60 -16 130 -38 116 -37 202 -61 227 -65 6 -1 16 -5 23 -9 6 -5 12 -6
12 -4 0 3 32 -3 72 -14 40 -10 74 -16 77 -14 2 3 10 0 18 -6 7 -6 13 -9 13 -6
0 3 15 1 33 -4 17 -5 84 -18 147 -29 107 -18 150 -25 240 -35 19 -2 46 -7 60
-9 25 -5 78 -10 275 -23 120 -8 505 -8 630 0 149 10 208 15 255 22 41 6 90 12
130 16 8 0 51 7 95 14 44 8 83 11 87 9 4 -3 8 0 8 6 0 6 4 9 8 6 4 -2 39 2 77
10 39 8 79 17 90 19 11 2 20 4 20 5 0 1 11 3 25 5 14 2 54 11 90 20 36 9 72
18 80 20 76 15 388 112 406 126 6 5 14 6 17 2 4 -3 12 -1 19 5 7 5 32 16 56
23 23 6 42 16 42 21 0 4 3 7 8 6 13 -5 92 25 92 34 0 5 4 7 9 4 5 -4 40 8 78
26 37 18 70 32 73 33 15 1 70 29 70 35 0 3 6 7 13 7 17 0 145 62 152 74 4 5
10 7 14 5 4 -3 17 3 28 14 12 10 23 16 26 13 3 -3 18 4 34 15 15 10 38 23 51
26 12 4 22 12 22 17 0 5 6 9 14 9 8 0 22 8 32 18 10 9 19 15 22 13 6 -6 81 42
82 52 0 5 4 6 9 3 5 -3 19 4 33 17 25 23 32 27 47 27 5 0 16 6 23 13 7 7 38
28 68 47 30 19 65 44 76 56 12 13 24 21 26 18 3 -2 17 7 31 20 15 14 27 23 27
20 0 -3 48 32 108 77 59 45 106 86 104 91 -1 5 2 7 7 4 5 -4 14 2 20 11 5 10
12 17 16 15 6 -3 19 8 91 75 19 17 34 29 34 26 0 -3 10 5 23 18 13 13 48 46
80 73 31 27 53 54 50 59 -3 6 -2 7 3 4 17 -10 373 362 366 384 -1 5 5 9 13 9
8 0 15 4 15 8 0 5 20 30 45 57 24 27 42 52 39 57 -3 4 -1 8 5 8 5 0 46 48 90
108 44 59 96 128 115 154 20 25 36 50 36 55 0 5 8 18 18 29 20 23 39 52 49 74
4 8 9 17 13 20 10 8 70 110 65 110 -3 0 3 9 12 20 30 35 97 158 93 169 -1 2 2
7 7 10 16 11 53 82 48 91 -3 5 -1 10 4 12 7 2 61 99 66 118 1 3 12 26 24 52
12 26 20 49 19 51 -2 2 3 11 11 20 7 10 10 17 5 17 -5 0 -4 4 2 8 10 6 75 149
80 175 1 4 3 9 4 12 1 3 3 8 5 13 1 4 6 18 12 32 36 87 42 101 43 105 0 3 0 6
1 8 0 1 2 9 5 17 2 8 15 49 30 90 39 112 122 404 128 454 1 12 5 28 8 36 4 8
12 44 18 80 7 36 14 74 16 85 2 11 7 35 10 54 3 18 8 43 10 55 6 28 14 82 19
126 2 19 6 46 9 60 4 23 13 107 22 205 34 399 19 871 -41 1245 -3 14 -7 43
-11 65 -3 22 -10 60 -15 85 -5 25 -11 56 -13 70 -3 14 -10 45 -16 70 -6 25
-13 58 -15 74 -2 15 -7 36 -10 46 -3 10 -8 27 -10 37 -16 75 -80 289 -87 291
-4 2 -6 7 -3 11 2 5 -5 32 -16 62 -11 30 -21 59 -23 64 -5 23 -18 61 -26 80
-4 11 -16 40 -25 65 -9 25 -22 56 -28 70 -5 14 -11 32 -13 40 -2 8 -8 16 -14
18 -5 2 -8 7 -5 12 3 5 -10 41 -28 82 -19 40 -44 97 -57 126 -13 28 -28 52
-32 52 -5 0 -7 4 -3 9 3 5 0 15 -7 23 -7 7 -14 20 -16 28 -7 30 -56 120 -65
120 -6 0 -8 3 -4 6 3 3 -4 22 -15 42 -59 107 -82 147 -88 152 -3 3 -14 22 -23
43 -10 20 -22 37 -28 37 -6 0 -8 4 -5 8 3 5 -3 18 -13 29 -10 11 -21 28 -25
39 -3 10 -18 32 -33 49 -16 16 -28 32 -27 35 2 11 -47 80 -57 80 -5 0 -8 4 -5
8 3 5 -8 24 -24 43 -16 19 -29 39 -30 44 0 6 -9 17 -20 25 -11 8 -20 18 -20
23 0 11 -149 201 -204 261 -25 27 -46 52 -46 56 0 3 -8 13 -17 21 -10 9 -76
77 -147 152 -71 75 -132 134 -137 132 -4 -3 -11 0 -15 6 -5 8 -3 9 7 4 8 -5
-8 14 -36 41 -27 27 -53 48 -57 46 -5 -2 -8 5 -8 14 0 10 -3 14 -7 11 -3 -4
-13 2 -20 13 -8 11 -19 18 -24 14 -5 -3 -8 -1 -7 4 2 6 -1 12 -6 14 -5 1 -26
19 -45 38 -43 42 -171 146 -177 143 -2 -1 -16 10 -32 25 -34 33 -71 62 -77 62
-3 0 -15 9 -27 20 -13 10 -26 19 -30 20 -5 0 -16 7 -25 16 -10 9 -43 34 -73
55 -30 21 -60 44 -67 49 -7 6 -15 10 -19 10 -4 0 -22 11 -41 26 -18 14 -33 21
-33 17 0 -4 -4 -3 -8 2 -11 16 -92 66 -92 58 0 -5 -4 -3 -8 3 -11 16 -97 67
-212 125 -25 12 -57 31 -72 41 -16 11 -32 16 -38 13 -5 -3 -10 -1 -10 4 0 6
-7 11 -15 11 -8 0 -15 4 -15 9 0 7 -48 25 -58 21 -1 0 -10 6 -18 15 -9 8 -20
13 -25 10 -5 -4 -9 -1 -9 4 0 6 -4 11 -9 11 -5 0 -35 12 -67 27 -33 15 -61 28
-64 28 -3 1 -22 9 -44 18 -21 9 -41 17 -43 17 -3 0 -19 7 -36 15 -61 27 -167
64 -167 57 0 -4 -4 -2 -8 4 -6 9 -218 82 -255 88 -9 1 -19 5 -23 8 -3 4 -12 4
-20 1 -8 -3 -14 1 -14 8 0 7 -3 10 -6 6 -3 -3 -18 -1 -33 5 -14 5 -35 12 -46
14 -11 2 -56 12 -100 23 -175 43 -217 52 -222 47 -3 -3 -14 -1 -24 4 -16 9
-61 18 -129 26 -14 1 -27 3 -30 4 -7 3 -17 5 -90 14 -36 5 -74 10 -85 12 -34
7 -159 19 -310 29 -85 7 -472 14 -478 9z"/>
</g>
</svg>
